<?xml version="1.0" encoding="utf-8"?>
<!-- Generator: Adobe Illustrator 16.0.0, SVG Export Plug-In . SVG Version: 6.00 Build 0)  -->
<!DOCTYPE svg PUBLIC "-//W3C//DTD SVG 1.1//EN" "http://www.w3.org/Graphics/SVG/1.1/DTD/svg11.dtd">
<svg version="1.1" id="Layer_1" xmlns="http://www.w3.org/2000/svg" xmlns:xlink="http://www.w3.org/1999/xlink" x="0px" y="0px"
	 width="1920px" height="1080px" viewBox="0 0 1920 1080" enable-background="new 0 0 1920 1080" xml:space="preserve">
<rect fill="#FFFFFF" width="1919" height="554"/>
<rect y="45" fill="#F9F900" width="1065" height="303"/>
<rect x="7" y="526" fill="#E3DFE0" width="1911" height="548"/>
<g>
	<g>
		<path fill="#7AD9FF" d="M1084,98c0,5.523-4.478,10-10,10H11c-5.523,0-10-4.477-10-10V10C1,4.477,5.477,0,11,0h1063
			c5.522,0,10,4.477,10,10V98z"/>
		<path fill="none" stroke="#5FAFCF" stroke-width="4" stroke-miterlimit="10" d="M1084,98c0,5.523-4.478,10-10,10H11
			c-5.523,0-10-4.477-10-10V10C1,4.477,5.477,0,11,0h1063c5.522,0,10,4.477,10,10V98z"/>
	</g>
	<path fill="#61CAF2" stroke="#5FAFCF" stroke-width="4" stroke-miterlimit="10" d="M1099,111.048
		c0,8.427-9.057,16.952-22.009,16.952H24.496C11.544,128,0,119.475,0,111.048v-5.181C0,97.439,11.544,92,24.496,92h1052.495
		c12.952,0,22.009,5.439,22.009,13.867V111.048z"/>
</g>
<g>
	<path fill="#7AD9FF" d="M1201,515c0,5.523-4.478,10-10,10H10c-5.523,0-10-4.477-10-10V324c0-5.523,4.477-10,10-10h1181
		c5.522,0,10,4.477,10,10V515z"/>
	<path fill="none" stroke="#5FAFCF" stroke-width="4" stroke-miterlimit="10" d="M1201,515c0,5.523-4.478,10-10,10H10
		c-5.523,0-10-4.477-10-10V324c0-5.523,4.477-10,10-10h1181c5.522,0,10,4.477,10,10V515z"/>
</g>
<path fill="#61CAF2" stroke="#5FAFCF" stroke-width="4" stroke-miterlimit="10" d="M1218,316.466
	c0,7.597-11.155,14.534-25.504,14.534H26.462C12.113,331,0,324.063,0,316.466v-4.671C0,304.195,12.113,299,26.462,299h1166.034
	c14.349,0,25.504,5.195,25.504,12.795V316.466z"/>
<g>
	<polygon fill="#D0CCCD" points="126.127,984 397.138,570.151 1189.438,569.995 1083.648,984 	"/>
	<defs>
		<filter id="Adobe_OpacityMaskFilter" filterUnits="userSpaceOnUse" x="137.018" y="593.527" width="1696.639" height="347.584">
			<feColorMatrix  type="matrix" values="1 0 0 0 0  0 1 0 0 0  0 0 1 0 0  0 0 0 1 0"/>
		</filter>
	</defs>
	<mask maskUnits="userSpaceOnUse" x="137.018" y="593.527" width="1696.639" height="347.584" id="SVGID_1_">
		<g filter="url(#Adobe_OpacityMaskFilter)">
			<polygon fill="#FFFFFF" points="1037.348,936.876 216.423,937.09 476.811,530.061 1154.699,530.061 			"/>
		</g>
	</mask>
	<g mask="url(#SVGID_1_)">
		<g>
			<g>
				<defs>
					<path id="SVGID_2_" d="M1792.325,937.089c-525.921,0-1051.842,0-1577.764,0c59.818-114.932,134.826-220.032,200.664-331.352
						c459.046,0.057,918.054,6.929,1377.1,6.985C1792.325,720.845,1792.325,828.967,1792.325,937.089z"/>
				</defs>
				<clipPath id="SVGID_3_">
					<use xlink:href="#SVGID_2_"  overflow="visible"/>
				</clipPath>
				<g clip-path="url(#SVGID_3_)">
					<path fill="none" d="M1725.168,600.865c36.163,0.04,72.326,0.045,108.488,0.045c0.002,35.472-0.021,70.943-0.031,106.416
						c-36.252-0.096-72.504-0.192-108.756-0.318C1724.972,671.627,1725.066,636.246,1725.168,600.865z"/>
					<path fill="#44484F" d="M1795.919,647.25c-23.628,0.003-47.255-0.025-70.882-0.055c0.045-15.443,0.087-30.887,0.131-46.33
						c23.584,0.024,47.168,0.045,70.752,0.045C1795.92,616.356,1795.919,631.804,1795.919,647.25z"/>
					<path fill="#FFFFFF" d="M1725.036,648.102c23.628,0.029,47.255,0.058,70.883,0.056c-0.001,19.387-0.002,38.773-0.002,58.161
						c-23.682-0.069-47.364-0.135-71.046-0.215C1724.928,686.77,1724.979,667.436,1725.036,648.102z"/>
				</g>
				<g clip-path="url(#SVGID_3_)">
					<path fill="none" d="M1724.87,707.012c36.251,0.121,72.503,0.219,108.755,0.314c-0.012,39.436-0.02,78.872-0.018,118.308
						c-36.369-0.263-72.739-0.526-109.108-0.803C1724.636,785.558,1724.758,746.285,1724.87,707.012z"/>
					<path fill="#44484F" d="M1795.916,765.387c-23.74-0.131-47.48-0.268-71.22-0.418c0.06-19.319,0.119-38.638,0.174-57.957
						c23.683,0.078,47.364,0.149,71.047,0.215C1795.916,726.613,1795.916,746,1795.916,765.387z"/>
					<path fill="#FFFFFF" d="M1724.695,765.874c23.74,0.146,47.48,0.291,71.221,0.421c0.001,19.386-0.001,38.771-0.001,58.156
						c-23.804-0.17-47.608-0.351-71.413-0.529C1724.571,804.572,1724.63,785.224,1724.695,765.874z"/>
				</g>
				<g clip-path="url(#SVGID_3_)">
					<path fill="none" d="M1724.499,824.831c36.369,0.276,72.739,0.54,109.108,0.803c0.005,38.212,0.03,76.424,0.049,114.636
						c-36.544,0-73.088,0.016-109.632,0.033C1724.202,901.812,1724.36,863.322,1724.499,824.831z"/>
					<path fill="#44484F" d="M1795.917,883.505c-23.88-0.14-47.759-0.274-71.639-0.416c0.078-19.419,0.149-38.839,0.221-58.258
						c23.806,0.181,47.61,0.361,71.416,0.531C1795.917,844.743,1795.916,864.124,1795.917,883.505z"/>
					<path fill="#FFFFFF" d="M1724.273,884c23.881,0.142,47.762,0.275,71.644,0.413c0.001,18.467,0.005,36.935,0.003,55.401
						c-23.965,0.005-47.929,0.02-71.893,0.029C1724.108,921.229,1724.197,902.614,1724.273,884z"/>
				</g>
				<g clip-path="url(#SVGID_3_)">
					<path fill="none" d="M1584.003,600.51c47.055,0.165,94.11,0.292,141.165,0.355c-0.102,35.381-0.196,70.762-0.299,106.143
						c-48.044-0.165-96.088-0.385-144.132-0.631C1581.837,671.088,1582.917,635.799,1584.003,600.51z"/>
					<path fill="#44484F" d="M1652.801,647.061c-23.407-0.061-46.814-0.122-70.222-0.206c0.477-15.448,0.948-30.896,1.424-46.345
						c23.138,0.083,46.276,0.155,69.414,0.217C1653.211,616.172,1653.006,631.616,1652.801,647.061z"/>
					<path fill="#FFFFFF" d="M1725.036,648.102c-24.082-0.04-48.164-0.079-72.246-0.137c0.208-15.595,0.413-31.188,0.621-46.783
						c23.919,0.06,47.837,0.103,71.756,0.138C1725.121,616.914,1725.078,632.508,1725.036,648.102z"/>
					<path fill="#44484F" d="M1652.776,648.872c24.086,0.056,48.171,0.103,72.257,0.137c-0.054,19.333-0.109,38.666-0.164,57.999
						c-24.288-0.084-48.577-0.183-72.865-0.287C1652.266,687.438,1652.521,668.155,1652.776,648.872z"/>
					<path fill="#FFFFFF" d="M1582.552,647.76c23.413,0.079,46.825,0.148,70.238,0.205c-0.258,19.284-0.513,38.569-0.773,57.854
						c-23.751-0.106-47.501-0.22-71.252-0.341C1581.363,686.238,1581.959,666.999,1582.552,647.76z"/>
				</g>
				<g clip-path="url(#SVGID_3_)">
					<path fill="none" d="M1580.737,706.377c48.044,0.25,96.089,0.455,144.133,0.635c-0.112,39.273-0.234,78.546-0.371,117.819
						c-49.17-0.388-98.341-0.779-147.511-1.204C1578.271,784.545,1579.519,745.461,1580.737,706.377z"/>
					<path fill="#44484F" d="M1651.211,764.485c-24.096-0.172-48.191-0.345-72.287-0.526c0.608-19.194,1.214-38.388,1.813-57.582
						c23.756,0.125,47.511,0.237,71.267,0.344C1651.745,725.976,1651.482,745.23,1651.211,764.485z"/>
					<path fill="#FFFFFF" d="M1724.695,765.874c-24.498-0.151-48.997-0.316-73.495-0.486c0.268-19.255,0.53-38.511,0.792-57.766
						c24.291,0.108,48.583,0.204,72.874,0.291C1724.812,727.233,1724.752,746.554,1724.695,765.874z"/>
					<path fill="#44484F" d="M1651.188,766.291c24.501,0.172,49.003,0.334,73.504,0.489c-0.065,19.351-0.125,38.7-0.193,58.051
						c-24.715-0.192-49.431-0.389-74.146-0.589C1650.638,804.925,1650.913,785.608,1651.188,766.291z"/>
					<path fill="#FFFFFF" d="M1578.893,764.859c24.103,0.184,48.205,0.356,72.308,0.528c-0.272,19.315-0.551,38.63-0.832,57.945
						c-24.45-0.198-48.9-0.403-73.351-0.613C1577.651,803.434,1578.274,784.146,1578.893,764.859z"/>
				</g>
				<g clip-path="url(#SVGID_3_)">
					<path fill="none" d="M1576.988,823.627c49.17,0.425,98.341,0.816,147.511,1.204c-0.139,38.491-0.297,76.981-0.475,115.472
						c-50.35,0.025-100.699,0.051-151.049,0.077C1574.375,901.465,1575.702,862.547,1576.988,823.627z"/>
					<path fill="#44484F" d="M1649.461,882.639c-24.814-0.152-49.628-0.312-74.442-0.465c0.67-19.516,1.324-39.031,1.97-58.547
						c24.455,0.21,48.91,0.415,73.365,0.615C1650.067,843.708,1649.773,863.174,1649.461,882.639z"/>
					<path fill="#FFFFFF" d="M1724.273,884c-24.942-0.147-49.884-0.297-74.826-0.445c0.307-19.468,0.604-38.936,0.895-58.403
						c24.718,0.198,49.437,0.399,74.154,0.587C1724.426,845.159,1724.352,864.579,1724.273,884z"/>
					<path fill="#44484F" d="M1649.433,884.472c24.946,0.148,49.892,0.297,74.838,0.44c-0.08,18.464-0.161,36.928-0.246,55.391
						c-25.171,0.013-50.342,0.025-75.514,0.038C1648.828,921.718,1649.134,903.095,1649.433,884.472z"/>
					<path fill="#FFFFFF" d="M1574.987,883.096c24.82,0.152,49.64,0.307,74.46,0.459c-0.302,18.774-0.613,37.548-0.929,56.322
						c-25.175,0.011-50.351,0.022-75.525,0.033C1573.667,920.973,1574.334,902.034,1574.987,883.096z"/>
				</g>
				<g clip-path="url(#SVGID_3_)">
					<path fill="none" d="M1451.086,599.866c44.305,0.26,88.61,0.475,132.917,0.644c-1.086,35.289-2.166,70.578-3.266,105.867
						c-46.165-0.25-92.329-0.521-138.493-0.828C1445.221,670.324,1448.17,635.097,1451.086,599.866z"/>
					<path fill="#44484F" d="M1514.134,646.591c-22.301-0.101-44.602-0.203-66.902-0.322c1.289-15.467,2.573-30.935,3.854-46.402
						c21.854,0.129,43.708,0.246,65.562,0.353C1515.812,615.677,1514.974,631.134,1514.134,646.591z"/>
					<path fill="#FFFFFF" d="M1582.552,647.76c-22.822-0.076-45.646-0.168-68.468-0.268c0.85-15.605,1.692-31.211,2.54-46.816
						c22.454,0.106,44.909,0.202,67.364,0.289C1583.507,616.563,1583.033,632.161,1582.552,647.76z"/>
					<path fill="#44484F" d="M1514.033,648.396c22.83,0.1,45.661,0.192,68.491,0.268c-0.593,19.237-1.189,38.476-1.787,57.713
						c-23.287-0.126-46.573-0.257-69.86-0.394C1511.938,686.788,1512.991,667.593,1514.033,648.396z"/>
					<path fill="#FFFFFF" d="M1447.156,647.171c22.31,0.12,44.618,0.224,66.928,0.321c-1.048,19.198-2.1,38.396-3.157,57.595
						c-22.869-0.138-45.738-0.28-68.607-0.435C1443.942,685.493,1445.551,666.332,1447.156,647.171z"/>
				</g>
				<g clip-path="url(#SVGID_3_)">
					<path fill="none" d="M1442.244,705.548c46.164,0.307,92.328,0.586,138.493,0.829c-1.219,39.084-2.466,78.168-3.749,117.25
						c-48.258-0.418-96.515-0.851-144.771-1.297C1435.599,783.406,1438.94,744.479,1442.244,705.548z"/>
					<path fill="#44484F" d="M1507.683,763.396c-23.44-0.192-46.882-0.39-70.322-0.592c1.636-19.085,3.265-38.17,4.884-57.256
						c22.878,0.154,45.756,0.299,68.634,0.435C1509.82,725.12,1508.757,744.258,1507.683,763.396z"/>
					<path fill="#FFFFFF" d="M1578.893,764.859c-23.753-0.182-47.506-0.366-71.259-0.564c1.072-19.139,2.136-38.277,3.196-57.416
						c23.293,0.14,46.587,0.271,69.88,0.397C1580.106,726.471,1579.507,745.665,1578.893,764.859z"/>
					<path fill="#44484F" d="M1507.584,765.194c23.761,0.198,47.521,0.386,71.281,0.567c-0.618,19.289-1.246,38.577-1.877,57.865
						c-24.229-0.204-48.456-0.417-72.685-0.639C1505.406,803.725,1506.498,784.459,1507.584,765.194z"/>
					<path fill="#FFFFFF" d="M1437.283,763.699c23.45,0.202,46.9,0.404,70.351,0.596c-1.084,19.262-2.175,38.523-3.276,57.785
						c-24.021-0.213-48.041-0.434-72.062-0.659C1433.966,802.181,1435.628,782.94,1437.283,763.699z"/>
				</g>
				<g clip-path="url(#SVGID_3_)">
					<path fill="none" d="M1432.217,822.33c48.257,0.446,96.514,0.879,144.771,1.297c-1.286,38.92-2.613,77.838-4.013,116.753
						c-50.376,0.026-100.753,0.054-151.13,0.08C1425.327,901.086,1428.788,861.709,1432.217,822.33z"/>
					<path fill="#44484F" d="M1500.902,881.698c-24.61-0.16-49.22-0.321-73.83-0.486c1.72-19.627,3.443-39.253,5.145-58.882
						c24.029,0.222,48.058,0.445,72.087,0.658C1503.185,842.559,1502.046,862.129,1500.902,881.698z"/>
					<path fill="#FFFFFF" d="M1574.987,883.096c-24.714-0.158-49.427-0.317-74.141-0.47c1.148-19.575,2.285-39.151,3.405-58.729
						c24.235,0.222,48.47,0.425,72.705,0.64C1576.314,844.057,1575.658,863.576,1574.987,883.096z"/>
					<path fill="#44484F" d="M1500.794,883.553c24.721,0.152,49.441,0.314,74.162,0.465c-0.65,18.788-1.311,37.575-1.98,56.362
						c-25.185,0.014-50.37,0.026-75.555,0.04C1498.552,921.465,1499.68,902.509,1500.794,883.553z"/>
					<path fill="#FFFFFF" d="M1426.991,882.145c24.618,0.163,49.237,0.321,73.855,0.481c-1.121,19.106-2.26,38.213-3.397,57.318
						c-25.188,0.012-50.374,0.022-75.561,0.034C1423.595,920.701,1425.295,901.423,1426.991,882.145z"/>
				</g>
				<g clip-path="url(#SVGID_3_)">
					<path fill="none" d="M1324.229,599.016c42.285,0.313,84.57,0.604,126.857,0.851c-2.916,35.23-5.865,70.458-8.842,105.683
						c-44.783-0.302-89.566-0.625-134.35-0.975C1313.418,669.4,1318.865,634.215,1324.229,599.016z"/>
					<path fill="#44484F" d="M1381.634,645.904c-21.509-0.128-43.017-0.263-64.525-0.402c2.388-15.493,4.757-30.989,7.12-46.486
						c20.936,0.156,41.871,0.305,62.808,0.446C1385.244,614.943,1383.443,630.425,1381.634,645.904z"/>
					<path fill="#FFFFFF" d="M1447.156,647.171c-21.876-0.11-43.752-0.231-65.627-0.366c1.826-15.627,3.643-31.256,5.454-46.886
						c21.354,0.146,42.709,0.279,64.064,0.404C1449.756,615.939,1448.457,631.556,1447.156,647.171z"/>
					<path fill="#44484F" d="M1381.422,647.709c21.887,0.131,43.772,0.254,65.659,0.367c-1.604,19.158-3.215,38.316-4.837,57.473
						c-22.533-0.153-45.066-0.305-67.599-0.475C1376.918,685.954,1379.178,666.832,1381.422,647.709z"/>
					<path fill="#FFFFFF" d="M1316.968,646.403c21.521,0.14,43.04,0.275,64.562,0.401c-2.244,19.128-4.506,38.254-6.777,57.379
						c-22.238-0.159-44.478-0.329-66.717-0.497C1311.031,684.595,1314.011,665.501,1316.968,646.403z"/>
				</g>
				<g clip-path="url(#SVGID_3_)">
					<path fill="none" d="M1307.896,704.576c44.782,0.346,89.565,0.674,134.349,0.972c-3.304,38.931-6.646,77.858-10.027,116.782
						c-47.585-0.447-95.17-0.9-142.755-1.367C1295.623,782.17,1301.789,743.378,1307.896,704.576z"/>
					<path fill="#44484F" d="M1367.811,762.182c-22.973-0.212-45.944-0.427-68.916-0.642c3.01-18.986,6.012-37.975,9.001-56.964
						c22.25,0.171,44.501,0.334,66.751,0.502C1372.376,724.113,1370.1,743.148,1367.811,762.182z"/>
					<path fill="#FFFFFF" d="M1437.283,763.699c-23.193-0.205-46.387-0.411-69.579-0.623c2.286-19.035,4.567-38.071,6.835-57.108
						c22.543,0.161,45.086,0.318,67.63,0.476C1440.551,725.529,1438.919,744.614,1437.283,763.699z"/>
					<path fill="#44484F" d="M1367.596,763.972c23.203,0.21,46.406,0.419,69.61,0.624c-1.655,19.245-3.316,38.49-4.989,57.734
						c-23.861-0.221-47.722-0.447-71.582-0.678C1362.959,802.426,1365.278,783.199,1367.596,763.972z"/>
					<path fill="#FFFFFF" d="M1298.754,762.43c22.983,0.221,45.967,0.435,68.95,0.646c-2.317,19.224-4.636,38.447-6.96,57.67
						c-23.713-0.235-47.426-0.464-71.138-0.693C1292.652,800.845,1295.709,781.638,1298.754,762.43z"/>
				</g>
				<g clip-path="url(#SVGID_3_)">
					<path fill="none" d="M1289.462,820.963c47.585,0.467,95.17,0.92,142.755,1.367c-3.429,39.379-6.89,78.756-10.371,118.13
						c-50.395,0.027-100.789,0.055-151.185,0.082C1276.848,900.67,1283.145,860.814,1289.462,820.963z"/>
					<path fill="#44484F" d="M1353.484,880.719c-24.463-0.168-48.928-0.333-73.391-0.502c3.112-19.753,6.236-39.504,9.368-59.254
						c23.724,0.234,47.448,0.465,71.173,0.689C1358.252,841.342,1355.867,861.029,1353.484,880.719z"/>
					<path fill="#FFFFFF" d="M1426.991,882.145c-24.54-0.158-49.08-0.326-73.62-0.488c2.383-19.697,4.768-39.395,7.153-59.092
						c23.871,0.228,47.742,0.453,71.613,0.676C1430.435,842.876,1428.715,862.511,1426.991,882.145z"/>
					<path fill="#44484F" d="M1353.258,882.594c24.55,0.165,49.1,0.321,73.65,0.485c-1.679,19.128-3.363,38.255-5.062,57.381
						c-25.194,0.014-50.39,0.027-75.584,0.041C1348.584,921.197,1350.922,901.896,1353.258,882.594z"/>
					<path fill="#FFFFFF" d="M1279.945,881.16c24.475,0.169,48.951,0.332,73.426,0.496c-2.353,19.452-4.709,38.904-7.051,58.357
						c-25.194,0.012-50.389,0.023-75.582,0.035C1273.785,920.416,1276.86,900.787,1279.945,881.16z"/>
				</g>
				<g clip-path="url(#SVGID_3_)">
					<path fill="none" d="M1201.249,598.026c40.993,0.347,81.985,0.675,122.979,0.989c-5.363,35.199-10.811,70.385-16.334,105.559
						c-43.898-0.34-87.797-0.7-131.696-1.064C1184.691,668.382,1193.059,633.226,1201.249,598.026z"/>
					<path fill="#44484F" d="M1253.419,645.07c-21.03-0.147-42.062-0.299-63.092-0.454c3.671-15.523,7.307-31.054,10.922-46.59
						c20.381,0.172,40.762,0.343,61.144,0.507C1259.42,614.049,1256.43,629.562,1253.419,645.07z"/>
					<path fill="#FFFFFF" d="M1316.968,646.403c-21.241-0.14-42.483-0.282-63.725-0.433c3.042-15.655,6.062-31.314,9.061-46.979
						c20.618,0.167,41.236,0.326,61.854,0.481C1321.773,615.119,1319.381,630.763,1316.968,646.403z"/>
					<path fill="#44484F" d="M1253.067,646.874c21.254,0.15,42.509,0.293,63.763,0.433c-2.957,19.093-5.938,38.182-8.936,57.268
						c-22.027-0.168-44.057-0.348-66.085-0.522C1245.588,684.997,1249.342,665.938,1253.067,646.874z"/>
					<path fill="#FFFFFF" d="M1190.115,645.518c21.043,0.155,42.085,0.306,63.128,0.453c-3.725,19.069-7.478,38.133-11.257,57.191
						c-21.857-0.176-43.715-0.357-65.573-0.539C1181.018,683.597,1185.596,664.564,1190.115,645.518z"/>
				</g>
				<g clip-path="url(#SVGID_3_)">
					<path fill="none" d="M1176.199,703.511c43.898,0.364,87.797,0.726,131.696,1.065c-6.106,38.802-12.272,77.594-18.434,116.387
						c-47.155-0.463-94.31-0.947-141.466-1.41C1157.354,780.861,1166.817,742.196,1176.199,703.511z"/>
					<path fill="#44484F" d="M1230.475,760.877c-22.688-0.221-45.377-0.447-68.066-0.671c4.607-18.896,9.21-37.793,13.791-56.695
						c21.869,0.182,43.739,0.363,65.609,0.54C1238.045,722.996,1234.262,741.937,1230.475,760.877z"/>
					<path fill="#FFFFFF" d="M1298.754,762.43c-22.818-0.214-45.639-0.435-68.457-0.662c3.787-18.941,7.57-37.884,11.336-56.83
						c22.041,0.18,44.082,0.354,66.123,0.527C1304.766,724.455,1301.764,743.442,1298.754,762.43z"/>
					<path fill="#44484F" d="M1230.118,762.662c22.831,0.224,45.662,0.446,68.493,0.66c-3.047,19.214-6.101,38.427-9.149,57.641
						c-23.616-0.229-47.231-0.468-70.847-0.701C1222.434,801.059,1226.277,781.86,1230.118,762.662z"/>
					<path fill="#FFFFFF" d="M1162.193,761.095c22.701,0.224,45.402,0.455,68.104,0.673c-3.84,19.192-7.676,38.386-11.502,57.581
						c-23.526-0.237-47.053-0.472-70.579-0.71C1152.85,799.451,1157.519,780.272,1162.193,761.095z"/>
				</g>
				<g clip-path="url(#SVGID_3_)">
					<path fill="none" d="M1147.996,819.553c47.156,0.463,94.311,0.947,141.466,1.41c-6.317,39.852-12.614,79.707-18.801,119.579
						c-50.407,0.027-100.814,0.056-151.222,0.083C1128.689,900.204,1138.275,859.862,1147.996,819.553z"/>
					<path fill="#44484F" d="M1206.858,879.712c-24.375-0.168-48.749-0.344-73.124-0.511c4.711-19.894,9.459-39.777,14.262-59.648
						c23.54,0.231,47.08,0.47,70.619,0.709C1214.666,840.072,1210.752,859.891,1206.858,879.712z"/>
					<path fill="#FFFFFF" d="M1279.945,881.16c-24.424-0.164-48.849-0.333-73.273-0.5c3.896-19.834,7.809-39.664,11.761-59.486
						c23.628,0.229,47.257,0.466,70.885,0.701C1286.178,841.634,1283.057,861.396,1279.945,881.16z"/>
					<path fill="#44484F" d="M1206.486,881.61c24.438,0.169,48.873,0.331,73.311,0.495c-3.062,19.477-6.114,38.954-9.136,58.437
						c-25.202,0.014-50.404,0.027-75.606,0.042C1198.822,920.918,1202.642,901.262,1206.486,881.61z"/>
					<path fill="#FFFFFF" d="M1133.508,880.155c24.389,0.169,48.776,0.335,73.164,0.505c-3.874,19.802-7.729,39.607-11.521,59.425
						c-25.199,0.012-50.396,0.023-75.596,0.035C1124.133,920.115,1128.803,900.131,1133.508,880.155z"/>
				</g>
				<g clip-path="url(#SVGID_3_)">
					<path fill="none" d="M1079.961,596.981c40.43,0.348,80.858,0.702,121.288,1.045c-8.19,35.199-16.558,70.355-25.051,105.483
						c-43.513-0.365-87.026-0.736-130.54-1.106C1057.314,667.333,1068.783,632.207,1079.961,596.981z"/>
					<path fill="#44484F" d="M1127.602,644.151c-20.865-0.153-41.73-0.315-62.596-0.469c5.033-15.552,10.011-31.121,14.955-46.701
						c20.189,0.174,40.379,0.351,60.568,0.526C1136.252,613.064,1131.949,628.614,1127.602,644.151z"/>
					<path fill="#FFFFFF" d="M1190.115,645.518c-20.922-0.152-41.844-0.309-62.766-0.464c4.389-15.685,8.736-31.38,13.053-47.085
						c20.246,0.172,40.493,0.347,60.74,0.518C1197.492,614.17,1193.82,629.848,1190.115,645.518z"/>
					<path fill="#44484F" d="M1127.097,645.956c20.935,0.155,41.87,0.312,62.805,0.466c-4.522,19.04-9.095,38.068-13.703,57.088
						c-21.774-0.181-43.548-0.369-65.321-0.551C1116.331,683.972,1121.749,664.974,1127.097,645.956z"/>
					<path fill="#FFFFFF" d="M1064.713,644.582c20.879,0.158,41.758,0.315,62.637,0.472c-5.348,19.024-10.762,38.029-16.219,57.022
						c-21.727-0.185-43.453-0.369-65.18-0.554C1052.265,682.562,1058.52,663.582,1064.713,644.582z"/>
				</g>
				<g clip-path="url(#SVGID_3_)">
					<path fill="none" d="M1045.656,702.406c43.514,0.373,87.028,0.732,130.543,1.104c-9.382,38.686-18.846,77.351-28.203,116.042
						c-46.968-0.482-93.936-0.955-140.904-1.435C1019.829,779.508,1032.792,740.974,1045.656,702.406z"/>
					<path fill="#44484F" d="M1094.561,759.523c-22.591-0.225-45.182-0.452-67.773-0.683c6.294-18.811,12.601-37.616,18.869-56.435
						c21.74,0.18,43.48,0.371,65.22,0.552C1105.462,721.82,1100.007,740.671,1094.561,759.523z"/>
					<path fill="#FFFFFF" d="M1162.193,761.095c-22.63-0.227-45.26-0.453-67.89-0.684c5.448-18.854,10.897-37.708,16.319-56.569
						c21.786,0.188,43.573,0.37,65.359,0.553C1171.402,723.299,1166.795,742.196,1162.193,761.095z"/>
					<path fill="#44484F" d="M1094.049,761.301c22.643,0.227,45.285,0.456,67.927,0.683c-4.673,19.187-9.345,38.374-13.979,57.569
						c-23.492-0.243-46.984-0.48-70.477-0.718C1082.998,799.648,1088.51,780.471,1094.049,761.301z"/>
					<path fill="#FFFFFF" d="M1026.491,759.728c22.604,0.227,45.208,0.46,67.812,0.684c-5.533,19.163-11.046,38.332-16.524,57.512
						c-23.462-0.241-46.925-0.479-70.387-0.718C1013.718,798.032,1020.084,778.873,1026.491,759.728z"/>
				</g>
				<g clip-path="url(#SVGID_3_)">
					<path fill="none" d="M1007.092,818.118c46.969,0.479,93.937,0.952,140.904,1.435c-9.721,40.31-19.307,80.651-28.557,121.072
						c-50.413,0.028-100.826,0.06-151.238,0.084C980.658,899.685,993.729,858.855,1007.092,818.118z"/>
					<path fill="#44484F" d="M1060.676,878.689c-24.345-0.173-48.689-0.34-73.034-0.513c6.4-20.047,12.89-40.063,19.45-60.059
						c23.477,0.237,46.951,0.479,70.428,0.717C1071.848,838.771,1066.229,858.721,1060.676,878.689z"/>
					<path fill="#FFFFFF" d="M1133.508,880.155c-24.366-0.164-48.732-0.333-73.099-0.506c5.556-19.984,11.173-39.95,16.851-59.899
						c23.506,0.237,47.012,0.477,70.518,0.714C1142.965,840.348,1138.22,860.247,1133.508,880.155z"/>
					<path fill="#44484F" d="M1060.144,880.611c24.38,0.169,48.759,0.331,73.138,0.502c-4.667,19.825-9.295,39.659-13.842,59.512
						c-25.207,0.015-50.412,0.028-75.619,0.042C1049.16,920.621,1054.625,900.609,1060.144,880.611z"/>
					<path fill="#FFFFFF" d="M987.334,879.143c24.358,0.168,48.717,0.341,73.075,0.507c-5.563,20.147-11.067,40.311-16.452,60.507
						c-25.199,0.012-50.399,0.025-75.6,0.036C974.55,919.801,980.903,899.46,987.334,879.143z"/>
				</g>
				<g clip-path="url(#SVGID_3_)">
					<path fill="none" d="M958.177,595.951c40.595,0.332,81.189,0.672,121.784,1.03c-11.178,35.226-22.646,70.352-34.303,105.422
						c-43.627-0.37-87.254-0.738-130.88-1.093C929.561,666.317,944.077,631.226,958.177,595.951z"/>
					<path fill="#44484F" d="M1002.303,643.218c-21.016-0.155-42.03-0.307-63.045-0.457c6.375-15.576,12.672-31.182,18.919-46.81
						c20.363,0.166,40.726,0.335,61.089,0.507C1013.66,612.062,1008.016,627.652,1002.303,643.218z"/>
					<path fill="#FFFFFF" d="M1064.713,644.582c-20.914-0.155-41.828-0.313-62.743-0.466c5.771-15.71,11.472-31.443,17.13-47.194
						c20.238,0.173,40.477,0.347,60.715,0.521C1074.824,613.171,1069.797,628.885,1064.713,644.582z"/>
					<path fill="#44484F" d="M1001.638,645.018c20.927,0.154,41.854,0.31,62.782,0.468c-6.178,18.998-12.448,37.965-18.762,56.918
						c-21.768-0.182-43.537-0.368-65.305-0.553C987.521,682.934,994.614,663.989,1001.638,645.018z"/>
					<path fill="#FFFFFF" d="M938.888,643.662c21.027,0.146,42.055,0.303,63.082,0.454c-7.022,18.979-14.117,37.931-21.283,56.856
						c-21.846-0.18-43.691-0.36-65.537-0.541C923.134,681.538,931.058,662.62,938.888,643.662z"/>
				</g>
				<g clip-path="url(#SVGID_3_)">
					<path fill="none" d="M914.778,701.31c43.626,0.361,87.252,0.723,130.878,1.097c-12.864,38.567-25.827,77.102-38.564,115.712
						c-47.023-0.48-94.045-0.957-141.068-1.425C882.068,778.145,898.48,739.752,914.778,701.31z"/>
					<path fill="#44484F" d="M958.952,758.16c-22.68-0.226-45.359-0.451-68.039-0.672c7.955-18.727,15.923-37.447,23.865-56.179
						c21.858,0.181,43.716,0.362,65.574,0.544C973.242,720.631,966.087,739.392,958.952,758.16z"/>
					<path fill="#FFFFFF" d="M1026.491,759.728c-22.625-0.23-45.25-0.453-67.875-0.684c7.136-18.771,14.289-37.534,21.403-56.313
						c21.781,0.183,43.562,0.372,65.344,0.554C1039.093,722.105,1032.782,740.913,1026.491,759.728z"/>
					<path fill="#44484F" d="M958.28,759.931c22.638,0.227,45.276,0.454,67.915,0.685c-6.405,19.155-12.777,38.321-19.104,57.503
						c-23.489-0.237-46.979-0.483-70.468-0.713C943.785,798.225,951.015,779.071,958.28,759.931z"/>
					<path fill="#FFFFFF" d="M890.54,758.369c22.692,0.225,45.384,0.451,68.076,0.675c-7.262,19.132-14.49,38.275-21.652,57.444
						c-23.52-0.235-47.04-0.476-70.56-0.711C874.378,796.611,882.437,777.481,890.54,758.369z"/>
				</g>
				<g clip-path="url(#SVGID_3_)">
					<path fill="none" d="M866.023,816.693c47.023,0.468,94.045,0.944,141.068,1.425c-13.363,40.737-26.434,81.566-38.891,122.591
						c-50.412,0.028-100.823,0.059-151.234,0.083C832.536,899.115,849.036,857.81,866.023,816.693z"/>
					<path fill="#44484F" d="M914.589,877.663c-24.373-0.169-48.745-0.34-73.118-0.511c8.053-20.207,16.243-40.355,24.552-60.459
						c23.534,0.235,47.067,0.47,70.601,0.712C929.178,837.455,921.826,857.537,914.589,877.663z"/>
					<path fill="#FFFFFF" d="M987.334,879.143c-24.364-0.166-48.729-0.34-73.093-0.508c7.238-20.146,14.592-40.246,22.042-60.314
						c23.503,0.235,47.006,0.477,70.509,0.714C1000.225,839.045,993.734,859.078,987.334,879.143z"/>
					<path fill="#44484F" d="M913.892,879.609c24.378,0.164,48.756,0.334,73.135,0.5c-6.382,20.167-12.682,40.359-18.826,60.6
						c-25.207,0.014-50.413,0.026-75.619,0.042C899.518,920.312,906.656,899.944,913.892,879.609z"/>
					<path fill="#FFFFFF" d="M841.085,878.131c24.385,0.166,48.771,0.333,73.156,0.504c-7.292,20.485-14.488,41.003-21.48,61.594
						c-25.198,0.012-50.397,0.024-75.595,0.034C824.934,919.473,832.946,898.778,841.085,878.131z"/>
				</g>
				<g clip-path="url(#SVGID_3_)">
					<path fill="none" d="M833.714,595.015c41.487,0.288,82.975,0.602,124.462,0.937c-14.1,35.274-28.616,70.366-43.399,105.359
						c-44.237-0.362-88.474-0.705-132.711-1.03C799.694,665.387,816.969,630.341,833.714,595.015z"/>
					<path fill="#44484F" d="M875.636,642.328c-21.479-0.144-42.958-0.275-64.438-0.406c7.596-15.594,15.088-31.233,22.516-46.907
						c20.901,0.147,41.801,0.296,62.702,0.452C889.558,611.118,882.642,626.742,875.636,642.328z"/>
					<path fill="#FFFFFF" d="M938.888,643.662c-21.22-0.148-42.439-0.294-63.659-0.434c7.075-15.73,14.061-31.499,20.984-47.297
						c20.593,0.158,41.186,0.319,61.778,0.484C951.687,612.19,945.325,627.94,938.888,643.662z"/>
					<path fill="#44484F" d="M874.821,644.127c21.231,0.144,42.463,0.29,63.695,0.435c-7.828,18.952-15.756,37.861-23.738,56.749
						c-22.011-0.178-44.022-0.354-66.033-0.525C857.517,681.935,866.226,663.059,874.821,644.127z"/>
					<path fill="#FFFFFF" d="M810.757,642.821c21.49,0.128,42.981,0.268,64.471,0.407c-8.596,18.938-17.304,37.824-26.075,56.682
						c-22.215-0.175-44.43-0.339-66.645-0.505C792.017,680.589,801.45,661.737,810.757,642.821z"/>
				</g>
				<g clip-path="url(#SVGID_3_)">
					<path fill="none" d="M782.066,700.281c44.238,0.325,88.475,0.677,132.712,1.028c-16.298,38.442-32.71,76.835-48.755,115.384
						c-47.32-0.471-94.64-0.94-141.959-1.396C743.092,776.804,762.649,738.579,782.066,700.281z"/>
					<path fill="#44484F" d="M822.533,756.825c-22.954-0.217-45.909-0.434-68.863-0.644c9.46-18.636,18.944-37.26,28.396-55.9
						c22.226,0.163,44.453,0.332,66.679,0.503C840.02,719.471,831.268,738.144,822.533,756.825z"/>
					<path fill="#FFFFFF" d="M890.54,758.369c-22.806-0.224-45.611-0.443-68.417-0.664c8.732-18.685,17.489-37.356,26.213-56.045
						c22.023,0.168,44.047,0.349,66.07,0.525C906.467,720.92,898.493,739.641,890.54,758.369z"/>
					<path fill="#44484F" d="M821.71,758.588c22.818,0.221,45.636,0.443,68.454,0.664c-8.104,19.123-16.162,38.266-24.14,57.441
						c-23.607-0.236-47.215-0.473-70.822-0.702C803.951,796.816,812.802,777.689,821.71,758.588z"/>
					<path fill="#FFFFFF" d="M753.226,757.061c22.966,0.207,45.932,0.43,68.897,0.645c-8.904,19.091-17.753,38.206-26.506,57.367
						c-23.7-0.228-47.4-0.464-71.1-0.692C733.987,795.223,743.575,776.127,753.226,757.061z"/>
				</g>
				<g clip-path="url(#SVGID_3_)">
					<path fill="none" d="M724.064,815.298c47.32,0.455,94.64,0.925,141.959,1.396c-16.988,41.116-33.488,82.422-49.057,124.099
						c-50.402,0.031-100.805,0.056-151.207,0.083C684.123,898.518,703.751,856.751,724.064,815.298z"/>
					<path fill="#44484F" d="M768.249,876.646c-24.458-0.167-48.916-0.337-73.373-0.501c9.548-20.372,19.288-40.645,29.188-60.848
						c23.712,0.229,47.425,0.455,71.137,0.693C786.068,836.146,777.077,856.357,768.249,876.646z"/>
					<path fill="#FFFFFF" d="M841.085,878.131c-24.42-0.171-48.841-0.333-73.261-0.501c8.827-20.312,17.821-40.546,26.96-60.72
						c23.62,0.229,47.24,0.465,70.86,0.7C857.331,837.733,849.139,857.902,841.085,878.131z"/>
					<path fill="#44484F" d="M767.398,878.614c24.433,0.168,48.866,0.328,73.299,0.497c-8.072,20.499-16.02,41.043-23.73,61.681
						c-25.203,0.016-50.406,0.026-75.609,0.042C749.803,919.995,758.526,899.275,767.398,878.614z"/>
					<path fill="#FFFFFF" d="M694.415,877.133c24.47,0.17,48.939,0.328,73.409,0.497c-8.944,20.81-17.739,41.679-26.249,62.67
						c-25.193,0.012-50.387,0.023-75.58,0.035C675.188,919.141,684.718,898.101,694.415,877.133z"/>
				</g>
				<g clip-path="url(#SVGID_3_)">
					<path fill="none" d="M704.385,594.248c43.11,0.218,86.219,0.476,129.329,0.767c-16.745,35.326-34.02,70.372-51.647,105.266
						c-45.346-0.333-90.692-0.638-136.039-0.915C665.984,664.595,685.506,629.615,704.385,594.248z"/>
					<path fill="#44484F" d="M745.714,641.552c-22.256-0.119-44.513-0.225-66.769-0.324c8.589-15.603,17.053-31.268,25.44-46.979
						c21.803,0.112,43.606,0.228,65.409,0.357C761.852,610.299,753.842,625.953,745.714,641.552z"/>
					<path fill="#FFFFFF" d="M810.757,642.821c-21.838-0.129-43.677-0.251-65.515-0.368c8.208-15.743,16.299-31.541,24.316-47.381
						c21.312,0.132,42.624,0.265,63.935,0.408C825.997,611.302,818.429,627.085,810.757,642.821z"/>
					<path fill="#44484F" d="M744.771,643.352c21.849,0.113,43.697,0.241,65.545,0.369c-9.311,18.907-18.744,37.75-28.25,56.56
						c-22.503-0.161-45.007-0.323-67.511-0.474C724.727,681.04,734.817,662.233,744.771,643.352z"/>
					<path fill="#FFFFFF" d="M678.446,642.126c22.265,0.104,44.531,0.207,66.796,0.327c-9.951,18.893-20.042,37.707-30.213,56.482
						c-22.834-0.154-45.668-0.3-68.502-0.438C657.278,679.77,667.938,660.992,678.446,642.126z"/>
				</g>
				<g clip-path="url(#SVGID_3_)">
					<path fill="none" d="M646.027,699.367c45.346,0.28,90.692,0.585,136.039,0.914c-19.417,38.298-38.974,76.522-58.002,115.017
						c-47.859-0.46-95.718-0.899-143.577-1.34C601.935,775.532,624.057,737.495,646.027,699.367z"/>
					<path fill="#44484F" d="M684.187,755.558c-23.415-0.206-46.83-0.402-70.244-0.597c10.685-18.537,21.405-37.054,32.085-55.594
						c22.843,0.144,45.686,0.287,68.528,0.441C704.445,718.398,694.301,736.97,684.187,755.558z"/>
					<path fill="#FFFFFF" d="M753.226,757.061c-23.171-0.214-46.343-0.424-69.515-0.625c10.113-18.593,20.261-37.166,30.372-55.76
						c22.514,0.15,45.027,0.318,67.541,0.476C772.173,719.795,762.686,738.421,753.226,757.061z"/>
					<path fill="#44484F" d="M683.234,757.312c23.182,0.207,46.364,0.417,69.545,0.625c-9.654,19.08-19.242,38.19-28.715,57.36
						c-23.847-0.232-47.694-0.456-71.541-0.679C662.646,795.455,672.901,776.364,683.234,757.312z"/>
					<path fill="#FFFFFF" d="M613.439,755.834c23.424,0.191,46.848,0.392,70.271,0.602c-10.33,19.039-20.583,38.116-30.705,57.268
						c-24.003-0.222-48.005-0.444-72.008-0.661C591.686,793.9,602.52,774.844,613.439,755.834z"/>
				</g>
				<g clip-path="url(#SVGID_3_)">
					<path fill="none" d="M580.487,813.958c47.859,0.44,95.718,0.88,143.577,1.34c-20.312,41.453-39.941,83.22-58.304,125.577
						c-50.388,0.027-100.776,0.055-151.164,0.082C535.242,897.937,557.407,855.716,580.487,813.958z"/>
					<path fill="#44484F" d="M621.307,875.649c-24.602-0.158-49.204-0.321-73.806-0.485c10.77-20.527,21.773-40.918,32.986-61.206
						c24.012,0.221,48.024,0.441,72.036,0.661C641.922,834.865,631.509,855.198,621.307,875.649z"/>
					<path fill="#FFFFFF" d="M694.415,877.133c-24.534-0.16-49.067-0.328-73.601-0.488c10.201-20.478,20.617-40.836,31.226-61.104
						c23.858,0.223,47.715,0.452,71.573,0.676C713.706,836.44,703.965,856.737,694.415,877.133z"/>
					<path fill="#44484F" d="M620.322,877.643c24.544,0.162,49.088,0.321,73.632,0.481c-9.621,20.818-19.069,41.71-28.194,62.751
						c-25.197,0.014-50.393,0.027-75.59,0.041C599.919,919.68,610.014,898.612,620.322,877.643z"/>
					<path fill="#FFFFFF" d="M546.981,876.164c24.611,0.16,49.222,0.32,73.833,0.48c-10.393,21.118-20.575,42.333-30.393,63.726
						c-25.187,0.011-50.373,0.022-75.56,0.034C525.224,918.816,535.983,897.433,546.981,876.164z"/>
				</g>
				<g clip-path="url(#SVGID_3_)">
					<path fill="none" d="M568.005,593.726c45.46,0.134,90.92,0.302,136.38,0.522c-18.879,35.367-38.401,70.347-58.357,105.117
						c-46.954-0.279-93.907-0.528-140.861-0.747C526.702,663.99,547.721,629.101,568.005,593.726z"/>
					<path fill="#44484F" d="M610.657,640.954c-23.348-0.084-46.697-0.147-70.045-0.21c9.26-15.601,18.37-31.28,27.394-47.019
						c23.069,0.066,46.139,0.143,69.208,0.227C628.464,609.68,619.629,625.353,610.657,640.954z"/>
					<path fill="#FFFFFF" d="M678.446,642.126c-22.77-0.1-45.54-0.19-68.31-0.272c9.062-15.743,17.986-31.56,26.817-47.434
						c22.394,0.091,44.789,0.187,67.183,0.296C695.671,610.574,687.125,626.383,678.446,642.126z"/>
					<path fill="#44484F" d="M609.615,642.752c22.778,0.082,45.555,0.174,68.333,0.273c-10.511,18.854-21.172,37.62-31.92,56.34
						c-23.245-0.137-46.489-0.268-69.734-0.396C587.517,680.297,598.649,661.575,609.615,642.752z"/>
					<path fill="#FFFFFF" d="M540.075,641.643c23.354,0.061,46.708,0.124,70.061,0.211c-10.965,18.835-22.096,37.567-33.32,56.249
						c-23.703-0.125-47.407-0.239-71.11-0.346C517.289,679.128,528.768,660.44,540.075,641.643z"/>
				</g>
				<g clip-path="url(#SVGID_3_)">
					<path fill="none" d="M505.168,698.62c46.953,0.219,93.906,0.468,140.859,0.747c-21.97,38.128-44.092,76.165-65.54,114.591
						c-48.64-0.425-97.28-0.859-145.92-1.255C457.621,774.377,481.478,736.554,505.168,698.62z"/>
					<path fill="#44484F" d="M542.797,754.395c-24.062-0.184-48.124-0.359-72.185-0.529c11.504-18.424,23.051-36.821,34.556-55.245
						c23.708,0.106,47.417,0.225,71.126,0.35C565.141,717.452,553.95,735.912,542.797,754.395z"/>
					<path fill="#FFFFFF" d="M613.439,755.834c-23.723-0.194-47.445-0.383-71.168-0.568c11.152-18.486,22.347-36.947,33.501-55.433
						c23.252,0.129,46.503,0.258,69.755,0.401C634.845,718.775,624.123,737.293,613.439,755.834z"/>
					<path fill="#44484F" d="M541.746,756.141c23.729,0.186,47.459,0.373,71.189,0.571c-10.922,19.022-21.757,38.092-32.447,57.246
						c-24.207-0.214-48.415-0.43-72.622-0.64C519.021,794.176,530.335,775.132,541.746,756.141z"/>
					<path fill="#FFFFFF" d="M470.07,754.734c24.067,0.174,48.134,0.35,72.202,0.531c-11.405,18.979-22.721,38.006-33.872,57.135
						c-24.427-0.212-48.855-0.417-73.282-0.617C446.618,792.674,458.292,773.674,470.07,754.734z"/>
				</g>
				<g clip-path="url(#SVGID_3_)">
					<path fill="none" d="M434.567,812.703c48.64,0.396,97.28,0.83,145.92,1.255c-23.08,41.758-45.245,83.979-65.891,126.999
						c-50.366,0.026-100.731,0.053-151.097,0.078C385.658,897.404,409.544,854.749,434.567,812.703z"/>
					<path fill="#44484F" d="M473.416,874.688c-24.804-0.156-49.608-0.313-74.412-0.466c11.576-20.669,23.397-41.19,35.562-61.519
						c24.433,0.196,48.866,0.405,73.299,0.615C496.097,833.616,484.641,854.084,473.416,874.688z"/>
					<path fill="#FFFFFF" d="M546.981,876.164c-24.703-0.156-49.406-0.313-74.109-0.472c11.229-20.631,22.686-41.128,34.46-61.453
						c24.215,0.21,48.429,0.422,72.644,0.64C568.757,835.192,557.75,855.607,546.981,876.164z"/>
					<path fill="#44484F" d="M472.328,876.7c24.71,0.152,49.42,0.312,74.131,0.464c-10.905,21.124-21.575,42.359-31.863,63.793
						c-25.186,0.013-50.371,0.026-75.557,0.039C449.766,919.37,460.919,897.973,472.328,876.7z"/>
					<path fill="#FFFFFF" d="M398.442,875.233c24.81,0.152,49.62,0.303,74.43,0.459c-11.504,21.418-22.749,42.966-33.555,64.746
						c-25.177,0.011-50.354,0.022-75.531,0.033C374.938,918.511,386.545,896.799,398.442,875.233z"/>
				</g>
				<g clip-path="url(#SVGID_3_)">
					<path fill="none" d="M422.389,593.527c48.539,0.009,97.077,0.08,145.616,0.198c-20.284,35.375-41.304,70.265-62.838,104.893
						c-49.058-0.213-98.116-0.38-147.175-0.526C380.117,663.623,401.664,628.856,422.389,593.527z"/>
					<path fill="#44484F" d="M468.578,640.604c-24.754-0.035-49.508-0.057-74.263-0.062c9.503-15.588,18.837-31.267,28.074-47.014
						c24.7,0.005,49.399,0.025,74.1,0.056C487.302,609.328,478.019,625.009,468.578,640.604z"/>
					<path fill="#FFFFFF" d="M540.075,641.643c-24.015-0.06-48.029-0.105-72.044-0.144c9.536-15.734,18.912-31.556,28.184-47.447
						c23.841,0.038,47.681,0.087,71.521,0.143C558.629,610.079,549.428,625.9,540.075,641.643z"/>
					<path fill="#44484F" d="M467.484,642.396c24.018,0.038,48.036,0.083,72.054,0.143c-11.307,18.787-22.787,37.463-34.371,56.08
						c-24.235-0.104-48.469-0.203-72.704-0.292C444.269,679.764,455.97,661.141,467.484,642.396z"/>
					<path fill="#FFFFFF" d="M393.765,641.434c24.755,0.014,49.511,0.034,74.266,0.065c-11.514,18.758-23.213,37.393-35.02,55.967
						c-24.822-0.084-49.645-0.163-74.467-0.229C370.426,678.723,382.194,660.144,393.765,641.434z"/>
				</g>
				<g clip-path="url(#SVGID_3_)">
					<path fill="none" d="M357.991,698.094c49.059,0.14,98.118,0.313,147.177,0.526c-23.69,37.934-47.547,75.757-70.601,114.083
						c-49.664-0.41-99.328-0.787-148.992-1.152C309.179,773.388,333.671,735.801,357.991,698.094z"/>
					<path fill="#44484F" d="M397.247,753.377c-24.895-0.157-49.789-0.3-74.684-0.442c11.792-18.291,23.636-36.55,35.428-54.841
						c24.824,0.064,49.648,0.146,74.472,0.232C420.737,716.685,408.972,735.018,397.247,753.377z"/>
					<path fill="#FFFFFF" d="M470.07,754.734c-24.458-0.172-48.916-0.334-73.374-0.489c11.718-18.367,23.491-36.699,35.218-55.061
						c24.238,0.091,48.477,0.192,72.715,0.297C493.122,717.906,481.573,736.306,470.07,754.734z"/>
					<path fill="#44484F" d="M396.142,755.114c24.462,0.159,48.924,0.322,73.386,0.492c-11.784,18.954-23.458,37.97-34.96,57.097
						c-24.689-0.206-49.377-0.399-74.066-0.592C372.221,793.011,384.122,774.028,396.142,755.114z"/>
					<path fill="#FFFFFF" d="M322.008,753.8c24.896,0.139,49.792,0.288,74.688,0.445c-12.015,18.898-23.916,37.863-35.634,56.947
						c-24.974-0.189-49.949-0.378-74.923-0.558C297.926,791.581,309.906,772.655,322.008,753.8z"/>
				</g>
				<g clip-path="url(#SVGID_3_)">
					<path fill="none" d="M285.575,811.551c49.664,0.365,99.328,0.742,148.992,1.152c-25.023,42.046-48.909,84.701-71.067,128.332
						c-50.335,0.026-100.671,0.052-151.007,0.076C235.136,896.948,259.713,853.898,285.575,811.551z"/>
					<path fill="#44484F" d="M324.227,873.769c-25.064-0.145-50.129-0.293-75.193-0.437c11.868-20.78,24.006-41.396,36.542-61.781
						c24.975,0.18,49.95,0.371,74.925,0.561C348.076,832.47,336.021,853.039,324.227,873.769z"/>
					<path fill="#FFFFFF" d="M398.442,875.233c-24.93-0.152-49.859-0.298-74.789-0.45c11.799-20.761,23.863-41.356,36.286-61.751
						c24.692,0.196,49.385,0.389,74.078,0.591C421.846,833.981,410.02,854.532,398.442,875.233z"/>
					<path fill="#44484F" d="M323.08,875.801c24.934,0.146,49.868,0.295,74.801,0.443c-11.798,21.422-23.307,42.986-34.381,64.791
						c-25.171,0.014-50.343,0.025-75.515,0.039C299.268,919.09,311.019,897.367,323.08,875.801z"/>
					<path fill="#FFFFFF" d="M248.457,874.352c25.065,0.14,50.131,0.289,75.197,0.432c-12.157,21.713-24.018,43.578-35.375,65.722
						c-25.164,0.013-50.327,0.021-75.49,0.032C224.228,918.229,236.182,896.209,248.457,874.352z"/>
				</g>
				<g clip-path="url(#SVGID_3_)">
					<path fill="none" d="M346.914,593.527c25.158,0,50.316,0,75.475,0c-20.725,35.329-42.272,70.096-64.396,104.564
						c-25.139-0.066-50.278-0.133-75.417-0.199C304.713,663.508,326.221,628.801,346.914,593.527z"/>
					<path fill="#FFFFFF" d="M393.765,641.434c-12.575-0.004-25.15-0.008-37.726-0.012c9.597-15.722,19.018-31.538,28.337-47.425
						c12.579,0,25.158,0,37.738,0C412.792,609.889,403.365,625.708,393.765,641.434z"/>
					<path fill="#44484F" d="M355.489,642.316c12.576,0.004,25.152,0.009,37.728,0.013c-11.574,18.695-23.343,37.261-35.224,55.763
						c-12.57-0.033-25.14-0.066-37.709-0.1C332.161,679.521,343.924,660.985,355.489,642.316z"/>
				</g>
				<g clip-path="url(#SVGID_3_)">
					<path fill="none" d="M282.575,697.895c25.139,0.066,50.278,0.133,75.417,0.199c-24.32,37.707-48.812,75.294-72.416,113.457
						c-25.128-0.182-50.257-0.363-75.385-0.544C233.755,772.939,258.255,735.48,282.575,697.895z"/>
					<path fill="#FFFFFF" d="M322.008,753.8c-12.565-0.07-25.13-0.141-37.695-0.21c11.785-18.262,23.626-36.486,35.418-54.742
						c12.57,0.034,25.139,0.067,37.708,0.102C345.642,717.24,333.798,735.503,322.008,753.8z"/>
					<path fill="#44484F" d="M283.755,754.452c12.565,0.07,25.13,0.142,37.695,0.212c-12.105,18.872-24.085,37.816-35.875,56.887
						c-12.564-0.091-25.128-0.182-37.693-0.272C259.669,792.226,271.648,773.303,283.755,754.452z"/>
				</g>
				<g clip-path="url(#SVGID_3_)">
					<path fill="none" d="M210.19,811.007c25.128,0.181,50.256,0.362,75.385,0.544c-25.862,42.348-50.439,85.397-73.083,129.561
						c-25.158,0-50.316,0-75.475,0C159.703,896.765,184.223,853.508,210.19,811.007z"/>
					<path fill="#FFFFFF" d="M248.457,874.352c-12.569-0.071-25.137-0.142-37.706-0.213c11.869-20.838,24.018-41.502,36.567-61.938
						c12.564,0.091,25.128,0.182,37.693,0.272C272.476,832.896,260.327,853.537,248.457,874.352z"/>
					<path fill="#44484F" d="M210.172,875.163c12.569,0.07,25.138,0.141,37.707,0.211c-12.176,21.712-24.025,43.587-35.386,65.737
						c-12.579,0-25.158,0-37.738,0C186.137,918.896,197.978,896.942,210.172,875.163z"/>
				</g>
			</g>
		</g>
	</g>
</g>
<polygon fill="#61D1FF" stroke="#5FAFCF" stroke-width="4" stroke-miterlimit="10" points="1155.078,619.621 1185.967,299 1920,299 
	1918.271,616.163 "/>
<g>
	<g>
		<path fill="#C4EEFF" d="M1919,876c0,5.522-4.478,10-10,10h-744c-5.522,0-10-4.478-10-10V620c0-5.522,4.478-10,10-10h744
			c5.522,0,10,4.478,10,10V876z"/>
		<path fill="none" stroke="#5FAFCF" stroke-width="4" stroke-miterlimit="10" d="M1919,876c0,5.522-4.478,10-10,10h-744
			c-5.522,0-10-4.478-10-10V620c0-5.522,4.478-10,10-10h744c5.522,0,10,4.478,10,10V876z"/>
	</g>
	<path fill="#A6E5FF" stroke="#5FAFCF" stroke-width="4" stroke-miterlimit="10" d="M1923,617.523c0,9.1-7.377,16.477-16.477,16.477
		h-739.047c-9.1,0-16.477-7.377-16.477-16.477v-5.047c0-9.1,7.377-16.477,16.477-16.477h739.047c9.1,0,16.477,7.377,16.477,16.477
		V617.523z"/>
</g>
<g>
	<g>
		<path fill="#A6E5FF" d="M1218,460c0-5.523-4.478-10-10-10h-18c-5.522,0-10,4.477-10,10v146c0,5.522,4.478,10,10,10h18
			c5.522,0,10-4.478,10-10V460z"/>
		<path fill="none" stroke="#5FAFCF" stroke-width="4" stroke-miterlimit="10" d="M1218,460c0-5.523-4.478-10-10-10h-18
			c-5.522,0-10,4.477-10,10v146c0,5.522,4.478,10,10,10h18c5.522,0,10-4.478,10-10V460z"/>
	</g>
	<g>
		<path fill="#A6E5FF" d="M1232,264c0-5.523-4.478-10-10-10h-9c-5.522,0-10,4.477-10,10v106c0,5.523,4.478,10,10,10h9
			c5.522,0,10-4.477,10-10V264z"/>
		<path fill="none" stroke="#5FAFCF" stroke-width="4" stroke-miterlimit="10" d="M1232,264c0-5.523-4.478-10-10-10h-9
			c-5.522,0-10,4.477-10,10v106c0,5.523,4.478,10,10,10h9c5.522,0,10-4.477,10-10V264z"/>
	</g>
	<g>
		<path fill="#A6E5FF" d="M1215,365c0-5.523-4.478-10-10-10h-9c-5.522,0-10,4.477-10,10v106c0,5.523,4.478,10,10,10h9
			c5.522,0,10-4.477,10-10V365z"/>
		<path fill="none" stroke="#5FAFCF" stroke-width="4" stroke-miterlimit="10" d="M1215,365c0-5.523-4.478-10-10-10h-9
			c-5.522,0-10,4.477-10,10v106c0,5.523,4.478,10,10,10h9c5.522,0,10-4.477,10-10V365z"/>
	</g>
	<g>
		<path fill="#A6E5FF" d="M1352,460c0-5.523-4.478-10-10-10h-18c-5.522,0-10,4.477-10,10v146c0,5.522,4.478,10,10,10h18
			c5.522,0,10-4.478,10-10V460z"/>
		<path fill="none" stroke="#5FAFCF" stroke-width="4" stroke-miterlimit="10" d="M1352,460c0-5.523-4.478-10-10-10h-18
			c-5.522,0-10,4.477-10,10v146c0,5.522,4.478,10,10,10h18c5.522,0,10-4.478,10-10V460z"/>
	</g>
	<g>
		<path fill="#A6E5FF" d="M1500,460c0-5.523-4.478-10-10-10h-18c-5.522,0-10,4.477-10,10v146c0,5.522,4.478,10,10,10h18
			c5.522,0,10-4.478,10-10V460z"/>
		<path fill="none" stroke="#5FAFCF" stroke-width="4" stroke-miterlimit="10" d="M1500,460c0-5.523-4.478-10-10-10h-18
			c-5.522,0-10,4.477-10,10v146c0,5.522,4.478,10,10,10h18c5.522,0,10-4.478,10-10V460z"/>
	</g>
	<g>
		<path fill="#A6E5FF" d="M1669,460c0-5.523-4.478-10-10-10h-18c-5.522,0-10,4.477-10,10v146c0,5.522,4.478,10,10,10h18
			c5.522,0,10-4.478,10-10V460z"/>
		<path fill="none" stroke="#5FAFCF" stroke-width="4" stroke-miterlimit="10" d="M1669,460c0-5.523-4.478-10-10-10h-18
			c-5.522,0-10,4.477-10,10v146c0,5.522,4.478,10,10,10h18c5.522,0,10-4.478,10-10V460z"/>
	</g>
	<g>
		<path fill="#A6E5FF" d="M1823,460c0-5.523-4.478-10-10-10h-18c-5.522,0-10,4.477-10,10v146c0,5.522,4.478,10,10,10h18
			c5.522,0,10-4.478,10-10V460z"/>
		<path fill="none" stroke="#5FAFCF" stroke-width="4" stroke-miterlimit="10" d="M1823,460c0-5.523-4.478-10-10-10h-18
			c-5.522,0-10,4.477-10,10v146c0,5.522,4.478,10,10,10h18c5.522,0,10-4.478,10-10V460z"/>
	</g>
	<g>
		<path fill="#A6E5FF" d="M1188.488,446.851c-1.397,5.319-7.04,9.774-12.538,9.899l-21.953,0.5c-5.498,0.125-8.79-4.108-7.315-9.407
			l52.438-188.286c1.475-5.299,7.182-9.557,12.682-9.557h18.445c5.5,0,8.856,4.275,7.459,9.595L1188.488,446.851z"/>
		<path fill="none" stroke="#5FAFCF" stroke-width="4" stroke-miterlimit="10" d="M1188.488,446.851
			c-1.397,5.319-7.04,9.774-12.538,9.899l-21.953,0.5c-5.498,0.125-8.79-4.108-7.315-9.407l52.438-188.286
			c1.475-5.299,7.182-9.557,12.682-9.557h18.445c5.5,0,8.856,4.275,7.459,9.595L1188.488,446.851z"/>
	</g>
	<path fill="#A6E5FF" stroke="#5FAFCF" stroke-width="4" stroke-miterlimit="10" d="M1923,462.524c0,9.1-7.377,16.476-16.477,16.476
		h-751.047c-9.1,0-16.477-7.376-16.477-16.476v-5.048c0-9.1,7.377-16.476,16.477-16.476h751.047c9.1,0,16.477,7.376,16.477,16.476
		V462.524z"/>
</g>
<g>
	<g>
		<path fill="#FFD1D9" d="M1385,688.036c0,5.5-4.034,9.964-9.534,9.964h-172.519c-5.5,0-7.479-3.709-4.397-8.266l3.898-5.606
			c3.081-4.556,10.103-8.128,15.603-8.128h157.415c5.5,0,9.534,4.208,9.534,9.708V688.036z"/>
		<path fill="none" stroke="#FF808F" stroke-width="4" stroke-miterlimit="10" d="M1385,688.036c0,5.5-4.034,9.964-9.534,9.964
			h-172.519c-5.5,0-7.479-3.709-4.397-8.266l3.898-5.606c3.081-4.556,10.103-8.128,15.603-8.128h157.415
			c5.5,0,9.534,4.208,9.534,9.708V688.036z"/>
	</g>
	<g>
		<path fill="#FFD1D9" d="M1578,688c0,5.522-4.478,10-10,10h-173c-5.522,0-10-4.478-10-10v-2c0-5.522,4.478-10,10-10h173
			c5.522,0,10,4.478,10,10V688z"/>
		<path fill="none" stroke="#FF808F" stroke-width="4" stroke-miterlimit="10" d="M1578,688c0,5.522-4.478,10-10,10h-173
			c-5.522,0-10-4.478-10-10v-2c0-5.522,4.478-10,10-10h173c5.522,0,10,4.478,10,10V688z"/>
	</g>
	<g>
		<path fill="#FFD1D9" d="M1766.091,688.896c2.427,4.936-0.087,9.104-5.587,9.104h-172.519c-5.5,0-9.985-4.759-9.985-10.259v-2.329
			c0-5.5,4.485-10.412,9.985-10.412h161.536c5.5,0,11.986,4.309,14.413,9.244L1766.091,688.896z"/>
		<path fill="none" stroke="#FF808F" stroke-width="4" stroke-miterlimit="10" d="M1766.091,688.896
			c2.427,4.936-0.087,9.104-5.587,9.104h-172.519c-5.5,0-9.985-4.759-9.985-10.259v-2.329c0-5.5,4.485-10.412,9.985-10.412h161.536
			c5.5,0,11.986,4.309,14.413,9.244L1766.091,688.896z"/>
	</g>
	<g>
		<path fill="#FFABB9" d="M1386,775c0,5.522-4.478,10-10,10h-173c-5.522,0-10-4.478-10-10v-76c0-5.522,4.478-10,10-10h173
			c5.522,0,10,4.478,10,10V775z"/>
		<path fill="none" stroke="#FF808F" stroke-width="4" stroke-miterlimit="10" d="M1386,775c0,5.522-4.478,10-10,10h-173
			c-5.522,0-10-4.478-10-10v-76c0-5.522,4.478-10,10-10h173c5.522,0,10,4.478,10,10V775z"/>
	</g>
	<path fill="#5E646E" stroke="#44484F" stroke-width="4" stroke-miterlimit="10" d="M1768,971.337
		c0,13.702-7.754,23.663-15.283,23.663h-556.685c-7.532,0-13.032-9.961-13.032-23.663v-24.812c0-13.705,5.5-24.524,13.032-24.524
		h556.685c7.529,0,15.283,10.819,15.283,24.524V971.337z"/>
	<path opacity="0.7" fill="#44484F" d="M1182.399,904l-1.319,60.941c0,0,123.355-6.453,294.121-6.453
		c179.992,0,292.799,8.894,292.799,8.894V904H1182.399z"/>
	<g>
		<path fill="#FFABB9" d="M1385,883.105c0,5.5-4.605,9.895-10.105,9.895h-222.058c-5.5,0-8.152-4.051-5.894-9.065l41.326-91.795
			c2.259-5.015,8.606-9.14,14.106-9.14h172.519c5.5,0,10.105,4.596,10.105,10.096V883.105z"/>
		<path fill="none" stroke="#FF808F" stroke-width="4" stroke-miterlimit="10" d="M1385,883.105c0,5.5-4.605,9.895-10.105,9.895
			h-222.058c-5.5,0-8.152-4.051-5.894-9.065l41.326-91.795c2.259-5.015,8.606-9.14,14.106-9.14h172.519
			c5.5,0,10.105,4.596,10.105,10.096V883.105z"/>
	</g>
	<g>
		<path fill="#FFABB9" d="M1578,883.105c0,5.5,4.484,9.895,9.984,9.895h222.059c5.5,0,8.152-4.051,5.894-9.065l-41.326-91.795
			c-2.259-5.015-8.606-9.14-14.106-9.14h-172.52c-5.5,0-9.984,4.596-9.984,10.096V883.105z"/>
		<path fill="none" stroke="#FF808F" stroke-width="4" stroke-miterlimit="10" d="M1578,883.105c0,5.5,4.484,9.895,9.984,9.895
			h222.059c5.5,0,8.152-4.051,5.894-9.065l-41.326-91.795c-2.259-5.015-8.606-9.14-14.106-9.14h-172.52
			c-5.5,0-9.984,4.596-9.984,10.096V883.105z"/>
	</g>
	<g>
		<path fill="#FFABB9" d="M1578,775c0,5.522-4.478,10-10,10h-173c-5.522,0-10-4.478-10-10v-76c0-5.522,4.478-10,10-10h173
			c5.522,0,10,4.478,10,10V775z"/>
		<path fill="none" stroke="#FF808F" stroke-width="4" stroke-miterlimit="10" d="M1578,775c0,5.522-4.478,10-10,10h-173
			c-5.522,0-10-4.478-10-10v-76c0-5.522,4.478-10,10-10h173c5.522,0,10,4.478,10,10V775z"/>
	</g>
	<g>
		<path fill="#FFABB9" d="M1578,883c0,5.522-4.478,10-10,10h-173c-5.522,0-10-4.478-10-10v-90c0-5.522,4.478-10,10-10h173
			c5.522,0,10,4.478,10,10V883z"/>
		<path fill="none" stroke="#FF808F" stroke-width="4" stroke-miterlimit="10" d="M1578,883c0,5.522-4.478,10-10,10h-173
			c-5.522,0-10-4.478-10-10v-90c0-5.522,4.478-10,10-10h173c5.522,0,10,4.478,10,10V883z"/>
	</g>
	<g>
		<path fill="#FF94A6" d="M1578,930c0,5.522-4.478,10-10,10h-173c-5.522,0-10-4.478-10-10v-27c0-5.522,4.478-10,10-10h173
			c5.522,0,10,4.478,10,10V930z"/>
		<path fill="none" stroke="#FF808F" stroke-width="4" stroke-miterlimit="10" d="M1578,930c0,5.522-4.478,10-10,10h-173
			c-5.522,0-10-4.478-10-10v-27c0-5.522,4.478-10,10-10h173c5.522,0,10,4.478,10,10V930z"/>
	</g>
	<g>
		<path fill="#FFABB9" d="M1771,774c0,5.522-4.478,10-10,10h-173c-5.522,0-10-4.478-10-10v-76c0-5.522,4.478-10,10-10h173
			c5.522,0,10,4.478,10,10V774z"/>
		<path fill="none" stroke="#FF808F" stroke-width="4" stroke-miterlimit="10" d="M1771,774c0,5.522-4.478,10-10,10h-173
			c-5.522,0-10-4.478-10-10v-76c0-5.522,4.478-10,10-10h173c5.522,0,10,4.478,10,10V774z"/>
	</g>
	<path fill="#FF94A6" stroke="#FF808F" stroke-width="4" stroke-miterlimit="10" d="M1385,924.35c0,8.735-2.07,16.65-5.197,16.65
		h-231.299c-3.128,0-4.504-7.915-4.504-16.65v-15.825c0-8.737,1.376-16.524,4.504-16.524h231.299c3.127,0,5.197,7.787,5.197,16.524
		V924.35z"/>
	<path fill="#FF94A6" stroke="#FF808F" stroke-width="4" stroke-miterlimit="10" d="M1819,924.35c0,8.735-0.924,16.65-4.053,16.65
		H1583.65c-3.129,0-4.65-7.915-4.65-16.65v-15.825c0-8.737,1.521-16.524,4.65-16.524h231.297c3.129,0,4.053,7.787,4.053,16.524
		V924.35z"/>
</g>
</svg>
