<?xml version="1.0" encoding="iso-8859-1"?>
<!-- Generator: Adobe Illustrator 16.0.0, SVG Export Plug-In . SVG Version: 6.00 Build 0)  -->
<!DOCTYPE svg PUBLIC "-//W3C//DTD SVG 1.1//EN" "http://www.w3.org/Graphics/SVG/1.1/DTD/svg11.dtd">
<svg version="1.1" id="Layer_1" xmlns="http://www.w3.org/2000/svg" xmlns:xlink="http://www.w3.org/1999/xlink" x="0px" y="0px"
	 width="1920px" height="1080px" viewBox="0 0 1920 1080" style="enable-background:new 0 0 1920 1080;" xml:space="preserve">
<symbol  id="New_Symbol" viewBox="-10 -5.354 20 10.707">
	<path style="opacity:0.3;fill:#FFFFFF;" d="M9.295,0.146C9.295-2.73,5.133-5.062,0-5.062c-5.135,0-9.295,2.331-9.295,5.208
		c0,2.876,4.16,5.207,9.295,5.207C5.133,5.354,9.295,3.022,9.295,0.146z"/>
	<path style="fill:#FF8095;" d="M7.295-1.187c0-2.302-3.33-4.167-7.437-4.167c-4.107,0-7.437,1.865-7.437,4.167
		c0,2.301,3.329,4.166,7.437,4.166C3.965,2.979,7.295,1.114,7.295-1.187z"/>
	<polygon style="display:none;fill:none;" points="-10,5 10,5 10,-5 -10,-5 	"/>
</symbol>
<symbol  id="New_Symbol_1" viewBox="-75 -118.489 149 236.489">
	<path style="fill:#576275;" d="M-2-83.159v142l-5-0.255l-5,0.255v-142c0,0-0.315-4.115,5-4.115C-1.686-87.274-2-83.159-2-83.159z"
		/>
	<path style="fill:#282D36;" d="M47.081,46.307c-0.078-9.296-24.219-16.632-53.922-16.385c-29.702,0.248-53.718,7.984-53.641,17.28
		c0.077,9.297,24.219,16.631,53.921,16.384C23.143,63.34,47.158,55.603,47.081,46.307z"/>
	<path style="fill:#44484F;" d="M47.081,48.137c-0.078-9.296-24.219-16.632-53.922-16.385C-36.542,32-60.559,39.736-60.481,49.032
		c0.077,9.297,24.219,16.631,53.921,16.384C23.143,65.17,47.158,57.434,47.081,48.137z"/>
	<path style="fill:#FF758C;stroke:#ED5C75;stroke-width:4;stroke-miterlimit:10;" d="M-6.841,65.416c0,0-0.1-0.127-0.28-0.363
		c-0.181,0.236-0.281,0.363-0.281,0.363l-51.852,7.83l-0.186-25.013c0,0,14.456-14.291,52.74-13.829
		c39.443,0.476,52.618,11.998,52.618,11.998l-0.186,26.844L-6.841,65.416z"/>
	<path style="fill:#FFA1B0;stroke:#FFABB9;stroke-width:4;stroke-miterlimit:10;" d="M47.139,70.366
		C47.061,61.069,22.92,53.735-6.783,53.981c-29.703,0.247-53.718,7.983-53.641,17.28s24.218,16.632,53.921,16.384
		C23.2,87.398,47.216,79.662,47.139,70.366z"/>
	<path style="opacity:0.1;" d="M59.491-98.056c-0.097-11.589-30.192-20.732-67.22-20.426c-37.027,0.309-66.965,9.953-66.87,21.542
		c0.097,11.59,30.191,20.733,67.22,20.426C29.648-76.823,59.587-86.467,59.491-98.056z"/>
	
		<use xlink:href="#New_Symbol"  width="20" height="10.707" x="-10" y="-5.354" transform="matrix(0.7961 0 0 0.7961 -8.0483 70.4902)" style="overflow:visible;"/>
	<g style="opacity:0.8;">
		
			<image style="overflow:visible;" width="140" height="94" xlink:href="DE683761D209DD34.png"  transform="matrix(1 0 0 -1 -66 118)">
		</image>
	</g>
	<path style="fill:#282D36;" d="M26.781-89.261c0,0-27.816,11.276-30.126,12.53c-0.003,0.415-1.689-1.838-4.091-2.098
		c-2.402,0.26-4.101,2.513-4.102,2.098c-2.31-1.254-30.113-12.53-30.113-12.53c-3.898-12.29,18.28-17.027,34.2-17.027
		C10.409-106.288,30.679-101.551,26.781-89.261z"/>
	<path style="fill:#3C4452;" d="M-38.616-89.434c0,0,23.375,9.965,25.015,9.965c0-0.82-7.805-10.252-0.417-18.453
		C-14.012-98.742-36.156-98.578-38.616-89.434z"/>
	<polygon style="display:none;fill:none;" points="-75,118 74,118 74,-118 -75,-118 	"/>
</symbol>
<symbol  id="New_Symbol_2_1_" viewBox="-97 -183 190 364.781">
	<polygon style="fill:#FFFFFF;stroke:#9CE2FF;stroke-width:4;stroke-miterlimit:10;" points="83,94 -86,94 -86,-181 83,-181 	"/>
	<g>
		<path style="fill:#9EE3FF;stroke:#9CE2FF;stroke-width:4;stroke-miterlimit:10;" d="M-0.94,179.781
			C-48.318,179.781-86.722,141-86.722,94h19.343c0,37,29.745,66.438,66.438,66.438C35.754,160.438,65.498,131,65.498,94h19.343
			C84.841,141,46.437,179.781-0.94,179.781z"/>
		<path style="fill:#F9F900;stroke:#C2C200;stroke-width:3;stroke-miterlimit:10;" d="M-0.94,136.623
			c23.816,0,43.122-18.123,43.122-43.123h23.316c0,37-29.744,66.438-66.438,66.438c-36.693,0-66.438-29.438-66.438-66.438h23.316
			C-44.062,118.5-24.757,136.623-0.94,136.623z"/>
		<path style="fill:#FFABB9;stroke:#FF8297;stroke-width:4;stroke-miterlimit:10;" d="M-0.94,137.122
			C-24.757,137.122-44.062,118-44.062,94h86.244C42.182,118,22.876,137.122-0.94,137.122z"/>
	</g>
	<path style="opacity:0.1;" d="M85,94l-87.475-0.491L-87,94V73c0,0,33.187,4.738,82.009,4.988c0.103-0.195,0.194-0.178,0.276,0
		c0.752,0.004,1.51,0.006,2.269,0.008c0.398-0.002,0.795-0.004,1.192-0.006c0.063-0.18,0.144-0.198,0.246-0.001
		C48.021,77.74,85,73,85,73V94z"/>
	<g>
		<path style="fill:#D2F4FF;" d="M91,93.5c0-4.125-4.5-7.5-10-7.5H-85c-5.5,0-10,3.375-10,7.5s4.5,7.5,10,7.5H81
			C86.5,101,91,97.625,91,93.5z"/>
		<path style="fill:none;stroke:#9CE2FF;stroke-width:4;stroke-miterlimit:10;" d="M91,93.5c0-4.125-4.5-7.5-10-7.5H-85
			c-5.5,0-10,3.375-10,7.5s4.5,7.5,10,7.5H81C86.5,101,91,97.625,91,93.5z"/>
	</g>
	<polygon style="fill:#FFFFFF;stroke:#9CE2FF;stroke-width:4;stroke-miterlimit:10;" points="65,69 -67,69 -67,-181 65,-181 	"/>
	<path style="fill:#FFABB9;stroke:#FF8297;stroke-width:4;stroke-miterlimit:10;" d="M-59-56c0,4.418,3.582,8,8,8s8-3.582,8-8
		s-3.582-8-8-8S-59-60.418-59-56z"/>
	<polygon style="display:none;fill:none;" points="-97,181 93,181 93,-183 -97,-183 	"/>
</symbol>
<symbol  id="New_Symbol_4" viewBox="-52 -52 104 104">
	<path style="fill:#A1B3D1;" d="M0,52c-28.719,0-52-23.281-52-52s23.281-52,52-52S52-28.719,52,0S28.719,52,0,52z M0-12
		c-6.627,0-12,5.373-12,12s5.373,12,12,12S12,6.627,12,0S6.627-12,0-12z"/>
	<path style="fill:#C4EEFF;stroke:#9CE2FF;stroke-width:4;stroke-miterlimit:10;" d="M0,22c-12.15,0-22-9.85-22-22s9.85-22,22-22
		c12.15,0,22,9.85,22,22S12.15,22,0,22z M0-12c-6.627,0-12,5.373-12,12s5.373,12,12,12S12,6.627,12,0S6.627-12,0-12z"/>
	<polygon style="display:none;fill:none;" points="-52,52 52,52 52,-52 -52,-52 	"/>
</symbol>
<g id="New_Symbol_2">
</g>
<g>
	<defs>
		<rect id="SVGID_1_" width="1920" height="1080"/>
	</defs>
	<clipPath id="SVGID_2_">
		<use xlink:href="#SVGID_1_"  style="overflow:visible;"/>
	</clipPath>
	
		<rect x="1107" y="209" style="clip-path:url(#SVGID_2_);fill:#E0F6FF;stroke:#9CE2FF;stroke-width:4;stroke-miterlimit:10;" width="820" height="184"/>
	<rect x="1107" y="-33" style="clip-path:url(#SVGID_2_);fill:#FFFFFF;" width="820" height="242"/>
	
		<rect x="1107" y="201" style="clip-path:url(#SVGID_2_);fill:#9EE3FF;stroke:#9CE2FF;stroke-width:4;stroke-miterlimit:10;" width="809" height="14"/>
	<g style="clip-path:url(#SVGID_2_);">
		
			<use xlink:href="#New_Symbol_2_1_"  width="190" height="364.781" id="XMLID_2_" x="-97" y="-183" transform="matrix(1 0 0 -1 1483 208)" style="overflow:visible;"/>
	</g>
	<g style="clip-path:url(#SVGID_2_);">
		
			<use xlink:href="#New_Symbol_2_1_"  width="190" height="364.781" id="XMLID_3_" x="-97" y="-183" transform="matrix(1 0 0 -1 1756 208)" style="overflow:visible;"/>
	</g>
	<g style="clip-path:url(#SVGID_2_);">
		<rect x="5" y="389" style="fill:#F2FCFF;" width="1917" height="691"/>
	</g>
	<polygon style="clip-path:url(#SVGID_2_);fill:#F9F900;" points="1059,442.287 -2,436 -2,-1 1109,-1 	"/>
	<rect y="283" style="clip-path:url(#SVGID_2_);fill:#F5F500;" width="1059" height="170"/>
	<polygon style="opacity:0.1;clip-path:url(#SVGID_2_);" points="3.864,542 962.666,522.23 1021.7,460.416 -2,453.18 	"/>
	<g style="clip-path:url(#SVGID_2_);">
		<g>
			<path style="fill:#9EE3FF;" d="M52.408,1034c-5.5,0-7.183-3.38-3.739-7.669l291.042-362.407
				c3.443-4.289,10.761-7.765,16.261-7.763l867.468,0.247c5.5,0.002,8.653,4.305,7.008,9.553l-112.512,358.622
				c-1.646,5.248-7.492,9.417-12.992,9.417H52.408z"/>
			<path style="fill:none;stroke:#9CE2FF;stroke-width:4;stroke-miterlimit:10;" d="M52.408,1034c-5.5,0-7.183-3.38-3.739-7.669
				l291.042-362.407c3.443-4.289,10.761-7.765,16.261-7.763l867.468,0.247c5.5,0.002,8.653,4.305,7.008,9.553l-112.512,358.622
				c-1.646,5.248-7.492,9.417-12.992,9.417H52.408z"/>
		</g>
		<g>
			<path style="fill:#9EE3FF;" d="M131.395,996c-5.5,0-7.203-3.613-3.783-7.921l241.862-304.77
				c3.419-4.309,10.717-7.821,16.216-7.78l796.562,5.923c5.5,0.041,8.396,4.274,6.438,9.413l-112.721,295.706
				c-1.959,5.139-8.062,9.429-13.562,9.429H131.395z"/>
			<path style="fill:none;stroke:#9CE2FF;stroke-width:4;stroke-miterlimit:10;" d="M131.395,996c-5.5,0-7.203-3.613-3.783-7.921
				l241.862-304.77c3.419-4.309,10.717-7.821,16.216-7.78l796.562,5.923c5.5,0.041,8.396,4.274,6.438,9.413l-112.721,295.706
				c-1.959,5.139-8.062,9.429-13.562,9.429H131.395z"/>
		</g>
		<defs>
			<filter id="Adobe_OpacityMaskFilter" filterUnits="userSpaceOnUse" x="118.98" y="669.934" width="1889.306" height="329.706">
				<feColorMatrix  type="matrix" values="1 0 0 0 0  0 1 0 0 0  0 0 1 0 0  0 0 0 1 0"/>
			</filter>
		</defs>
		<mask maskUnits="userSpaceOnUse" x="118.98" y="669.934" width="1889.306" height="329.706" id="SVGID_3_">
			<g style="filter:url(#Adobe_OpacityMaskFilter);">
				<polygon style="fill:#FFFFFF;" points="1080.269,995.623 123.564,995.826 427.019,609.73 1217.031,609.73 				"/>
			</g>
		</mask>
		<g style="opacity:0.2;mask:url(#SVGID_3_);">
			<g>
				<g>
					<defs>
						<path id="SVGID_6_" d="M1960.12,995.824c-612.909,0-1225.818-0.043-1838.727,0
							c70.931-110.815,158.764-208.151,235.971-314.309c534.262,0.033,1068.494,6.56,1602.755,6.625
							C1960.12,790.702,1960.12,893.263,1960.12,995.824z"/>
					</defs>
					<clipPath id="SVGID_4_">
						<use xlink:href="#SVGID_6_"  style="overflow:visible;"/>
					</clipPath>
					<g style="clip-path:url(#SVGID_4_);">
						<path style="fill:none;" d="M1881.863,676.89c42.141,0.042,84.281,0.044,126.423,0.044
							c0.005,33.647-0.03,67.295-0.042,100.942c-42.241-0.091-84.482-0.188-126.724-0.299
							C1881.641,744.015,1881.758,710.452,1881.863,676.89z"/>
						<path style="fill:#44484F;" d="M1964.306,720.891c-27.528-0.016-55.058-0.027-82.587-0.054
							c0.049-14.649,0.099-29.298,0.145-43.947c27.481,0.03,54.963,0.04,82.444,0.044
							C1964.308,691.586,1964.307,706.238,1964.306,720.891z"/>
						<path style="fill:#FFFFFF;" d="M1881.716,721.696c27.53,0.026,55.061,0.05,82.59,0.055
							c-0.001,18.39-0.001,36.779-0.002,55.169c-27.593-0.064-55.187-0.126-82.78-0.203
							C1881.59,758.377,1881.655,740.036,1881.716,721.696z"/>
					</g>
					<g style="clip-path:url(#SVGID_4_);">
						<path style="fill:none;" d="M1881.521,777.576c42.241,0.119,84.482,0.21,126.724,0.301
							c-0.012,37.407-0.012,74.814-0.013,112.222c-42.387-0.248-84.774-0.5-127.161-0.762
							C1881.232,852.083,1881.384,814.83,1881.521,777.576z"/>
						<path style="fill:#44484F;" d="M1964.303,832.951c-27.664-0.121-55.328-0.254-82.992-0.394
							c0.072-18.327,0.143-36.654,0.21-54.981c27.595,0.08,55.188,0.152,82.783,0.206
							C1964.304,796.172,1964.303,814.562,1964.303,832.951z"/>
						<path style="fill:#FFFFFF;" d="M1881.308,833.415c27.665,0.135,55.33,0.279,82.995,0.399c0.002,18.388,0,36.776,0,55.164
							c-27.743-0.156-55.485-0.326-83.229-0.503C1881.152,870.122,1881.23,851.769,1881.308,833.415z"/>
					</g>
					<g style="clip-path:url(#SVGID_4_);">
						<path style="fill:none;" d="M1881.07,889.337c42.387,0.262,84.774,0.514,127.161,0.762
							c0.011,36.247,0.036,72.495,0.055,108.741c-42.589,0-85.177,0.016-127.765,0.032
							C1880.728,962.36,1880.906,925.849,1881.07,889.337z"/>
						<path style="fill:#44484F;" d="M1964.305,944.994c-27.832-0.133-55.664-0.26-83.496-0.396
							c0.091-18.421,0.179-36.841,0.262-55.262c27.744,0.172,55.488,0.345,83.231,0.504
							C1964.304,908.226,1964.304,926.609,1964.305,944.994z"/>
						<path style="fill:#FFFFFF;" d="M1880.807,945.466c27.833,0.132,55.665,0.268,83.498,0.391
							c0.001,17.518,0.002,35.035,0.003,52.553c-27.928,0.003-55.856,0.019-83.784,0.028
							C1880.621,980.78,1880.715,963.123,1880.807,945.466z"/>
					</g>
					<g style="clip-path:url(#SVGID_4_);">
						<path style="fill:none;" d="M1717.443,676.554c54.807,0.167,109.613,0.281,164.42,0.336
							c-0.105,33.562-0.223,67.125-0.343,100.688c-55.962-0.169-111.923-0.361-167.884-0.602
							C1714.932,743.503,1716.197,710.028,1717.443,676.554z"/>
						<path style="fill:#44484F;" d="M1797.577,720.71c-27.259-0.057-54.519-0.124-81.777-0.193
							c0.552-14.654,1.101-29.309,1.644-43.963c26.945,0.079,53.892,0.148,80.837,0.208
							C1798.045,691.411,1797.812,706.061,1797.577,720.71z"/>
						<path style="fill:#FFFFFF;" d="M1881.716,721.696c-28.051-0.034-56.102-0.075-84.152-0.127
							c0.238-14.792,0.474-29.584,0.71-44.376c27.862,0.056,55.726,0.102,83.589,0.128
							C1881.815,692.112,1881.766,706.904,1881.716,721.696z"/>
						<path style="fill:#44484F;" d="M1797.55,722.428c28.055,0.054,56.108,0.097,84.163,0.129
							c-0.063,18.34-0.125,36.681-0.192,55.021c-28.293-0.089-56.587-0.178-84.88-0.273
							C1796.947,759.012,1797.252,740.72,1797.55,722.428z"/>
						<path style="fill:#FFFFFF;" d="M1715.769,721.375c27.265,0.07,54.53,0.135,81.795,0.194
							c-0.301,18.292-0.603,36.584-0.907,54.876c-27.662-0.098-55.324-0.206-82.986-0.324
							C1714.377,757.873,1715.076,739.624,1715.769,721.375z"/>
					</g>
					<g style="clip-path:url(#SVGID_4_);">
						<path style="fill:none;" d="M1713.637,776.977c55.961,0.231,111.922,0.431,167.884,0.6
							c-0.137,37.254-0.288,74.507-0.45,111.761c-57.297-0.362-114.593-0.733-171.889-1.141
							C1710.695,851.124,1712.19,814.052,1713.637,776.977z"/>
						<path style="fill:#44484F;" d="M1795.694,832.096c-28.07-0.155-56.142-0.326-84.212-0.498
							c0.725-18.207,1.444-36.414,2.154-54.621c27.668,0.116,55.336,0.221,83.004,0.328
							C1796.33,795.568,1796.017,813.832,1795.694,832.096z"/>
						<path style="fill:#FFFFFF;" d="M1881.308,833.415c-28.543-0.15-57.087-0.302-85.63-0.462
							c0.325-18.264,0.64-36.528,0.948-54.793c28.297,0.103,56.595,0.196,84.892,0.276
							C1881.451,796.763,1881.381,815.089,1881.308,833.415z"/>
						<path style="fill:#44484F;" d="M1795.664,833.81c28.547,0.169,57.093,0.315,85.64,0.466
							c-0.071,18.354-0.153,36.708-0.233,55.062c-28.8-0.184-57.601-0.372-86.4-0.557
							C1795.008,870.457,1795.34,852.133,1795.664,833.81z"/>
						<path style="fill:#FFFFFF;" d="M1711.447,832.451c28.077,0.174,56.153,0.342,84.23,0.502
							c-0.326,18.321-0.657,36.644-0.992,54.965c-28.489-0.186-56.979-0.388-85.468-0.582
							C1709.967,869.041,1710.709,850.746,1711.447,832.451z"/>
					</g>
					<g style="clip-path:url(#SVGID_4_);">
						<path style="fill:none;" d="M1709.182,888.196c57.296,0.407,114.592,0.778,171.889,1.141
							c-0.164,36.512-0.343,73.023-0.549,109.535c-58.678,0.024-117.354,0.049-176.031,0.073
							C1706.076,962.03,1707.653,925.114,1709.182,888.196z"/>
						<path style="fill:#44484F;" d="M1793.615,944.17c-28.919-0.138-57.837-0.287-86.756-0.439
							c0.781-18.511,1.555-37.022,2.322-55.534c28.496,0.199,56.992,0.392,85.488,0.584
							C1794.324,907.244,1793.975,925.707,1793.615,944.17z"/>
						<path style="fill:#FFFFFF;" d="M1880.807,945.466c-29.069-0.14-58.14-0.28-87.209-0.423
							c0.359-18.467,0.711-36.934,1.056-55.401c28.804,0.192,57.608,0.374,86.412,0.558
							C1880.983,908.621,1880.895,927.044,1880.807,945.466z"/>
						<path style="fill:#44484F;" d="M1793.58,945.912c29.073,0.147,58.146,0.281,87.22,0.421
							c-0.089,17.513-0.177,35.026-0.278,52.539c-29.335,0.013-58.669,0.024-88.004,0.036
							C1792.874,981.243,1793.234,963.578,1793.58,945.912z"/>
						<path style="fill:#FFFFFF;" d="M1706.822,944.607c28.925,0.146,57.851,0.291,86.775,0.436
							c-0.352,17.809-0.709,35.617-1.07,53.425c-29.34,0.011-58.679,0.021-88.018,0.032
							C1705.289,980.536,1706.058,962.572,1706.822,944.607z"/>
					</g>
					<g style="clip-path:url(#SVGID_4_);">
						<path style="fill:none;" d="M1562.723,675.945c51.573,0.246,103.146,0.452,154.721,0.607
							c-1.246,33.476-2.508,66.95-3.808,100.423c-53.751-0.231-107.502-0.502-161.253-0.785
							C1555.899,742.782,1559.342,709.367,1562.723,675.945z"/>
						<path style="fill:#44484F;" d="M1636.117,720.263c-25.957-0.091-51.915-0.195-77.872-0.304
							c1.502-14.67,2.993-29.342,4.478-44.014c25.437,0.121,50.873,0.233,76.31,0.335
							C1638.065,690.941,1637.095,705.603,1636.117,720.263z"/>
						<path style="fill:#FFFFFF;" d="M1715.768,721.374c-26.569-0.078-53.14-0.159-79.709-0.256
							c0.99-14.801,1.972-29.603,2.945-44.405c26.141,0.1,52.282,0.195,78.423,0.272
							C1716.877,691.781,1716.326,706.578,1715.768,721.374z"/>
						<path style="fill:#44484F;" d="M1636,721.977c26.579,0.095,53.157,0.18,79.736,0.256c-0.691,18.248-1.391,36.496-2.101,54.743
							c-27.114-0.114-54.229-0.24-81.343-0.373C1633.541,758.395,1634.777,740.187,1636,721.977z"/>
						<path style="fill:#FFFFFF;" d="M1558.158,720.814c25.967,0.108,51.934,0.215,77.9,0.304
							c-1.223,18.213-2.459,36.424-3.708,54.635c-26.625-0.127-53.251-0.266-79.876-0.411
							C1554.388,757.168,1556.28,738.992,1558.158,720.814z"/>
					</g>
					<g style="clip-path:url(#SVGID_4_);">
						<path style="fill:none;" d="M1552.383,776.189c53.751,0.296,107.502,0.555,161.253,0.787
							c-1.446,37.075-2.934,74.148-4.455,111.22c-56.223-0.396-112.444-0.811-168.667-1.229
							C1544.502,850.045,1548.479,813.121,1552.383,776.189z"/>
						<path style="fill:#44484F;" d="M1628.507,831.064c-27.301-0.184-54.603-0.368-81.903-0.562
							c1.937-18.104,3.865-36.207,5.779-54.312c26.637,0.146,53.273,0.281,79.91,0.416
							C1631.039,794.759,1629.778,812.912,1628.507,831.064z"/>
						<path style="fill:#FFFFFF;" d="M1711.445,832.452c-27.666-0.174-55.332-0.352-82.998-0.537
							c1.27-18.152,2.534-36.306,3.785-54.46c27.123,0.131,54.247,0.26,81.37,0.374
							C1712.893,796.037,1712.174,814.245,1711.445,832.452z"/>
						<path style="fill:#44484F;" d="M1628.387,832.771c27.676,0.186,55.351,0.364,83.026,0.536
							c-0.736,18.297-1.482,36.593-2.232,54.889c-28.228-0.197-56.454-0.4-84.682-0.604
							C1625.801,869.319,1627.1,851.046,1628.387,832.771z"/>
						<path style="fill:#FFFFFF;" d="M1546.513,831.35c27.312,0.194,54.623,0.385,81.935,0.565
							c-1.291,18.272-2.582,36.545-3.888,54.816c-27.984-0.211-55.97-0.415-83.954-0.628
							C1542.581,867.853,1544.553,849.602,1546.513,831.35z"/>
					</g>
					<g style="clip-path:url(#SVGID_4_);">
						<path style="fill:none;" d="M1540.514,886.967c56.223,0.419,112.444,0.833,168.667,1.229
							c-1.528,36.918-3.099,73.834-4.693,110.749c-58.708,0.025-117.415,0.051-176.123,0.076
							C1532.392,961.668,1536.466,924.318,1540.514,886.967z"/>
						<path style="fill:#44484F;" d="M1620.489,943.281c-28.679-0.154-57.356-0.305-86.035-0.462
							c2.02-18.617,4.043-37.234,6.06-55.853c27.995,0.215,55.99,0.42,83.985,0.626
							C1623.167,906.156,1621.832,924.719,1620.489,943.281z"/>
						<path style="fill:#FFFFFF;" d="M1706.821,944.607c-28.798-0.146-57.597-0.296-86.395-0.448
							c1.342-18.568,2.68-37.136,4.009-55.705c28.236,0.203,56.473,0.407,84.709,0.604
							C1708.379,907.575,1707.602,926.092,1706.821,944.607z"/>
						<path style="fill:#44484F;" d="M1620.363,945.041c28.807,0.15,57.612,0.301,86.419,0.44
							c-0.755,17.821-1.518,35.644-2.295,53.464c-29.351,0.013-58.701,0.025-88.052,0.038
							C1617.756,981.004,1619.056,963.021,1620.363,945.041z"/>
						<path style="fill:#FFFFFF;" d="M1534.359,943.705c28.689,0.152,57.378,0.305,86.067,0.454
							c-1.318,18.124-2.635,36.249-3.958,54.373c-29.352,0.011-58.703,0.021-88.055,0.032
							C1530.383,980.277,1532.373,961.991,1534.359,943.705z"/>
					</g>
					<g style="clip-path:url(#SVGID_4_);">
						<path style="fill:none;" d="M1415.132,675.137c49.196,0.301,98.394,0.573,147.591,0.809
							c-3.381,33.422-6.823,66.837-10.34,100.245c-52.125-0.287-104.251-0.595-156.376-0.925
							C1402.511,741.913,1408.896,708.54,1415.132,675.137z"/>
						<path style="fill:#44484F;" d="M1481.91,719.613c-25.025-0.121-50.051-0.247-75.076-0.382
							c2.789-14.694,5.553-29.393,8.298-44.095c24.354,0.148,48.71,0.289,73.065,0.425
							C1486.118,690.248,1484.021,704.932,1481.91,719.613z"/>
						<path style="fill:#FFFFFF;" d="M1558.158,720.814c-25.457-0.108-50.915-0.222-76.372-0.347
							c2.134-14.821,4.251-29.646,6.35-44.472c24.848,0.134,49.695,0.264,74.543,0.382
							C1561.181,691.191,1559.675,706.004,1558.158,720.814z"/>
						<path style="fill:#44484F;" d="M1481.663,721.324c25.468,0.123,50.937,0.241,76.404,0.348
							c-1.877,18.175-3.771,36.348-5.685,54.519c-26.229-0.144-52.458-0.294-78.688-0.447
							C1476.376,757.607,1479.033,739.468,1481.663,721.324z"/>
						<path style="fill:#FFFFFF;" d="M1406.673,720.086c25.038,0.135,50.075,0.261,75.113,0.382
							c-2.629,18.146-5.287,36.288-7.965,54.427c-25.883-0.149-51.765-0.31-77.647-0.473
							C1399.701,756.315,1403.208,738.205,1406.673,720.086z"/>
					</g>
					<g style="clip-path:url(#SVGID_4_);">
						<path style="fill:none;" d="M1396.007,775.268c52.125,0.326,104.251,0.65,156.376,0.922
							c-3.904,36.932-7.881,73.855-11.869,110.777c-55.432-0.427-110.862-0.854-166.294-1.297
							C1381.482,848.869,1388.797,812.078,1396.007,775.268z"/>
						<path style="fill:#44484F;" d="M1465.613,829.911c-26.748-0.198-53.495-0.403-80.243-0.609
							c3.561-18.009,7.109-36.02,10.637-54.034c25.896,0.165,51.792,0.323,77.688,0.475
							C1471.019,793.801,1468.321,811.856,1465.613,829.911z"/>
						<path style="fill:#FFFFFF;" d="M1546.513,831.35c-27.009-0.19-54.018-0.389-81.026-0.591
							c2.709-18.054,5.406-36.11,8.084-54.169c26.241,0.155,52.482,0.305,78.724,0.448
							C1550.38,795.144,1548.452,813.247,1546.513,831.35z"/>
						<path style="fill:#44484F;" d="M1465.358,831.609c27.021,0.199,54.042,0.397,81.063,0.594
							c-1.962,18.256-3.932,36.51-5.908,54.764c-27.796-0.211-55.593-0.426-83.389-0.643
							C1459.87,868.086,1462.619,849.849,1465.358,831.609z"/>
						<path style="fill:#FFFFFF;" d="M1385.203,830.148c26.761,0.206,53.522,0.412,80.283,0.61
							c-2.738,18.236-5.488,36.47-8.232,54.705c-27.621-0.218-55.243-0.433-82.864-0.656
							C1377.99,866.587,1381.596,848.367,1385.203,830.148z"/>
					</g>
					<g style="clip-path:url(#SVGID_4_);">
						<path style="fill:none;" d="M1374.22,885.67c55.432,0.443,110.862,0.87,166.294,1.297
							c-4.048,37.352-8.122,74.701-12.149,112.055c-58.73,0.025-117.462,0.052-176.192,0.078
							C1359.376,961.261,1366.766,923.459,1374.22,885.67z"/>
						<path style="fill:#44484F;" d="M1448.705,942.352c-28.505-0.156-57.011-0.315-85.516-0.475
							c3.652-18.74,7.334-37.475,11.03-56.207c27.635,0.222,55.271,0.438,82.905,0.654
							C1454.308,904.998,1451.501,923.674,1448.705,942.352z"/>
						<path style="fill:#FFFFFF;" d="M1534.359,943.705c-28.596-0.154-57.192-0.309-85.788-0.463
							c2.799-18.686,5.607-37.369,8.423-56.052c27.809,0.212,55.617,0.426,83.426,0.64
							C1538.402,906.455,1536.379,925.08,1534.359,943.705z"/>
						<path style="fill:#44484F;" d="M1448.438,944.133c28.607,0.154,57.216,0.308,85.823,0.457
							c-1.97,18.144-3.938,36.287-5.897,54.432c-29.363,0.013-58.727,0.025-88.09,0.039
							C1442.973,980.748,1445.703,962.439,1448.438,944.133z"/>
						<path style="fill:#FFFFFF;" d="M1363.016,942.772c28.519,0.159,57.037,0.313,85.556,0.47
							c-2.758,18.449-5.503,36.901-8.229,55.355c-29.361,0.012-58.722,0.022-88.082,0.033
							C1355.81,980.005,1359.398,961.386,1363.016,942.772z"/>
					</g>
					<g style="clip-path:url(#SVGID_4_);">
						<path style="fill:none;" d="M1272.1,674.2c47.678,0.326,95.354,0.64,143.032,0.937
							c-6.236,33.403-12.621,66.776-19.125,100.129c-51.087-0.316-102.173-0.666-153.259-1.01
							C1252.742,740.964,1262.557,707.624,1272.1,674.2z"/>
						<path style="fill:#44484F;" d="M1332.743,718.821c-24.463-0.14-48.925-0.283-73.388-0.43
							c4.289-14.719,8.535-29.449,12.744-44.191c23.703,0.163,47.405,0.322,71.107,0.481
							C1339.748,689.402,1336.262,704.115,1332.743,718.821z"/>
						<path style="fill:#FFFFFF;" d="M1406.673,720.086c-24.712-0.133-49.425-0.267-74.137-0.409
							c3.557-14.846,7.079-29.698,10.568-44.56c23.981,0.154,47.964,0.31,71.945,0.454
							C1412.281,690.414,1409.489,705.252,1406.673,720.086z"/>
						<path style="fill:#44484F;" d="M1332.331,720.532c24.726,0.143,49.452,0.274,74.178,0.412
							c-3.468,18.113-6.967,36.221-10.502,54.321c-25.636-0.162-51.272-0.326-76.908-0.495
							C1323.547,756.7,1327.963,738.622,1332.331,720.532z"/>
						<path style="fill:#FFFFFF;" d="M1259.106,719.246c24.477,0.146,48.953,0.289,73.43,0.431
							c-4.364,18.095-8.78,36.177-13.232,54.251c-25.435-0.168-50.87-0.339-76.305-0.51
							C1248.418,755.375,1253.793,737.32,1259.106,719.246z"/>
					</g>
					<g style="clip-path:url(#SVGID_4_);">
						<path style="fill:none;" d="M1242.748,774.258c51.086,0.348,102.173,0.689,153.259,1.01
							c-7.21,36.811-14.524,73.602-21.787,110.402c-54.928-0.436-109.854-0.881-164.782-1.34
							C1220.49,847.624,1231.676,810.958,1242.748,774.258z"/>
						<path style="fill:#44484F;" d="M1305.708,828.677c-26.414-0.213-52.829-0.427-79.243-0.639
							c5.442-17.923,10.873-35.849,16.283-53.78c25.449,0.173,50.897,0.346,76.347,0.514
							C1314.652,792.745,1310.186,810.712,1305.708,828.677z"/>
						<path style="fill:#FFFFFF;" d="M1385.203,830.148c-26.568-0.211-53.138-0.416-79.706-0.63
							c4.48-17.965,8.948-35.933,13.391-53.907c25.651,0.175,51.302,0.338,76.953,0.5
							C1392.312,794.127,1388.76,812.139,1385.203,830.148z"/>
						<path style="fill:#44484F;" d="M1305.286,830.366c26.583,0.21,53.166,0.421,79.749,0.63
							c-3.606,18.225-7.218,36.448-10.815,54.674c-27.509-0.221-55.018-0.44-82.526-0.666
							C1296.212,866.788,1300.747,848.577,1305.286,830.366z"/>
						<path style="fill:#FFFFFF;" d="M1226.209,828.881c26.43,0.211,52.858,0.425,79.288,0.638
							c-4.536,18.206-9.073,36.411-13.589,54.622c-27.403-0.221-54.807-0.45-82.21-0.676
							C1215.177,865.263,1220.687,847.07,1226.209,828.881z"/>
					</g>
					<g style="clip-path:url(#SVGID_4_);">
						<path style="fill:none;" d="M1209.438,884.33c54.928,0.459,109.854,0.904,164.782,1.34
							c-7.454,37.789-14.844,75.591-22.048,113.43c-58.745,0.026-117.49,0.052-176.235,0.078
							C1186.735,960.787,1197.985,922.53,1209.438,884.33z"/>
						<path style="fill:#44484F;" d="M1277.854,941.398c-28.402-0.166-56.804-0.325-85.206-0.486
							c5.518-18.884,11.13-37.74,16.79-56.582c27.419,0.226,54.837,0.448,82.256,0.674
							C1287.046,903.794,1282.428,922.591,1277.854,941.398z"/>
						<path style="fill:#FFFFFF;" d="M1363.016,942.772c-28.461-0.159-56.921-0.317-85.382-0.474
							c4.578-18.819,9.194-37.63,13.844-56.432c27.523,0.229,55.048,0.443,82.571,0.666
							C1370.351,905.275,1366.669,924.021,1363.016,942.772z"/>
						<path style="fill:#44484F;" d="M1277.416,943.199c28.475,0.156,56.948,0.314,85.423,0.469
							c-3.586,18.472-7.151,36.946-10.667,55.432c-29.371,0.013-58.743,0.025-88.114,0.039
							C1268.44,980.476,1272.914,961.834,1277.416,943.199z"/>
						<path style="fill:#FFFFFF;" d="M1192.383,941.818c28.417,0.159,56.834,0.317,85.251,0.48
							c-4.539,18.776-9.041,37.562-13.465,56.366c-29.365,0.012-58.731,0.022-88.098,0.034
							C1181.405,979.709,1186.865,960.756,1192.383,941.818z"/>
					</g>
					<g style="clip-path:url(#SVGID_4_);">
						<path style="fill:none;" d="M1131.057,673.208c47.015,0.331,94.029,0.671,141.043,0.992
							c-9.543,33.424-19.357,66.764-29.352,100.056c-50.634-0.346-101.269-0.703-151.902-1.049
							C1104.562,739.996,1118.004,706.686,1131.057,673.208z"/>
						<path style="fill:#44484F;" d="M1186.398,717.95c-24.269-0.144-48.537-0.298-72.806-0.444
							c5.885-14.742,11.698-29.51,17.464-44.298c23.478,0.166,46.956,0.336,70.434,0.498
							C1196.507,688.471,1191.482,703.22,1186.398,717.95z"/>
						<path style="fill:#FFFFFF;" d="M1259.106,719.246c-24.335-0.146-48.669-0.295-73.004-0.439
							c5.134-14.87,10.207-29.759,15.24-44.663c23.544,0.166,47.088,0.328,70.633,0.493
							C1267.729,689.52,1263.438,704.388,1259.106,719.246z"/>
						<path style="fill:#44484F;" d="M1185.805,719.662c24.35,0.145,48.7,0.292,73.05,0.442
							c-5.315,18.066-10.69,36.114-16.106,54.151c-25.337-0.174-50.675-0.347-76.012-0.521
							C1173.15,755.73,1179.511,737.709,1185.805,719.662z"/>
						<path style="fill:#FFFFFF;" d="M1113.248,718.359c24.285,0.15,48.569,0.297,72.854,0.447
							c-6.288,18.055-12.653,36.08-19.067,54.09c-25.281-0.177-50.562-0.35-75.843-0.526
							C1098.632,754.402,1106.004,736.406,1113.248,718.359z"/>
					</g>
					<g style="clip-path:url(#SVGID_4_);">
						<path style="fill:none;" d="M1090.846,773.209c50.634,0.354,101.269,0.704,151.902,1.049
							c-11.072,36.7-22.258,73.366-33.311,110.072c-54.706-0.449-109.412-0.91-164.118-1.355
							C1060.351,846.326,1075.674,809.799,1090.846,773.209z"/>
						<path style="fill:#44484F;" d="M1147.476,827.391c-26.3-0.211-52.601-0.432-78.9-0.646
							c7.434-17.841,14.868-35.682,22.271-53.535c25.297,0.179,50.594,0.351,75.891,0.527
							C1160.336,791.628,1153.908,809.51,1147.476,827.391z"/>
						<path style="fill:#FFFFFF;" d="M1226.209,828.881c-26.346-0.219-52.691-0.43-79.037-0.647
							c6.433-17.883,12.863-35.767,19.265-53.661c25.353,0.179,50.705,0.352,76.058,0.525
							C1237.083,793.03,1231.647,810.956,1226.209,828.881z"/>
						<path style="fill:#44484F;" d="M1146.869,829.078c26.361,0.215,52.722,0.431,79.083,0.647
							c-5.522,18.196-11.033,36.396-16.515,54.604c-27.362-0.221-54.726-0.455-82.088-0.676
							C1133.817,865.448,1140.333,847.26,1146.869,829.078z"/>
						<path style="fill:#FFFFFF;" d="M1068.225,827.584c26.315,0.215,52.632,0.433,78.947,0.649
							c-6.534,18.174-13.047,36.356-19.516,54.554c-27.328-0.226-54.655-0.456-81.983-0.682
							C1053.125,863.905,1060.663,845.739,1068.225,827.584z"/>
					</g>
					<g style="clip-path:url(#SVGID_4_);">
						<path style="fill:none;" d="M1045.319,882.975c54.706,0.445,109.412,0.906,164.118,1.355
							c-11.452,38.2-22.702,76.457-33.501,114.848c-58.751,0.026-117.502,0.053-176.254,0.08
							C1014.252,960.243,1029.588,921.533,1045.319,882.975z"/>
						<path style="fill:#44484F;" d="M1107.522,940.427c-28.366-0.161-56.731-0.322-85.098-0.488
							c7.525-19.031,15.144-38.023,22.895-56.964c27.344,0.221,54.687,0.449,82.03,0.68
							C1120.652,902.548,1114.046,921.473,1107.522,940.427z"/>
						<path style="fill:#FFFFFF;" d="M1192.383,941.818c-28.392-0.161-56.782-0.32-85.174-0.479
							c6.526-18.97,13.128-37.912,19.831-56.819c27.38,0.226,54.759,0.45,82.139,0.678
							C1203.51,904.05,1197.904,922.922,1192.383,941.818z"/>
						<path style="fill:#44484F;" d="M1106.897,942.252c28.406,0.156,56.813,0.313,85.22,0.475
							c-5.469,18.796-10.885,37.606-16.181,56.451c-29.375,0.014-58.75,0.027-88.125,0.04
							C1094.045,980.186,1100.429,961.205,1106.897,942.252z"/>
						<path style="fill:#FFFFFF;" d="M1022.066,940.857c28.381,0.161,56.762,0.318,85.143,0.481
							c-6.519,19.097-12.969,38.215-19.238,57.395c-29.368,0.011-58.736,0.022-88.104,0.034
							C1007.099,979.398,1014.525,960.107,1022.066,940.857z"/>
					</g>
					<g style="clip-path:url(#SVGID_4_);">
						<path style="fill:none;" d="M989.432,672.231c47.209,0.312,94.417,0.637,141.625,0.977
							c-13.053,33.478-26.494,66.788-40.211,99.999c-50.766-0.355-101.531-0.696-152.297-1.037
							C955.921,739.06,972.943,705.791,989.432,672.231z"/>
						<path style="fill:#44484F;" d="M1040.659,717.063c-24.444-0.145-48.889-0.29-73.333-0.432
							c7.455-14.759,14.812-29.562,22.105-44.4c23.683,0.157,47.364,0.317,71.047,0.482
							C1053.938,687.527,1047.342,702.313,1040.659,717.063z"/>
						<path style="fill:#FFFFFF;" d="M1113.248,718.359c-24.326-0.15-48.652-0.3-72.979-0.439
							c6.75-14.889,13.413-29.812,20.015-44.768c23.534,0.166,47.067,0.328,70.602,0.494
							C1125.067,688.575,1119.194,703.481,1113.248,718.359z"/>
						<path style="fill:#44484F;" d="M1039.881,718.773c24.341,0.148,48.683,0.295,73.023,0.441
							c-7.273,18.03-14.637,36.022-22.059,53.992c-25.329-0.175-50.659-0.345-75.988-0.523
							C1023.293,754.758,1031.658,736.799,1039.881,718.773z"/>
						<path style="fill:#FFFFFF;" d="M966.891,717.486c24.46,0.142,48.919,0.283,73.379,0.434
							c-8.217,18.033-16.582,35.999-25.02,53.93c-25.422-0.169-50.843-0.346-76.265-0.512
							C948.398,753.444,957.7,735.495,966.891,717.486z"/>
					</g>
					<g style="clip-path:url(#SVGID_4_);">
						<path style="fill:none;" d="M938.548,772.174c50.766,0.329,101.532,0.68,152.297,1.035
							c-15.172,36.59-30.495,73.117-45.526,109.766c-54.771-0.467-109.542-0.906-164.312-1.354
							C899.95,845.013,919.333,808.638,938.548,772.174z"/>
						<path style="fill:#44484F;" d="M989.602,826.098c-26.404-0.211-52.809-0.43-79.213-0.637
							c9.39-17.761,18.801-35.51,28.16-53.287c25.437,0.166,50.874,0.339,76.31,0.512
							C1006.465,790.502,998.025,808.296,989.602,826.098z"/>
						<path style="fill:#FFFFFF;" d="M1068.225,827.584c-26.34-0.215-52.68-0.432-79.02-0.648
							c8.428-17.801,16.867-35.597,25.258-53.415c25.346,0.173,50.691,0.35,76.037,0.524
							C1083.096,791.9,1075.659,809.742,1068.225,827.584z"/>
						<path style="fill:#44484F;" d="M988.808,827.777c26.355,0.215,52.711,0.434,79.066,0.648
							c-7.565,18.163-15.106,36.337-22.555,54.549c-27.359-0.23-54.72-0.454-82.079-0.68
							C971.697,864.092,980.214,845.917,988.808,827.777z"/>
						<path style="fill:#FFFFFF;" d="M909.945,826.294c26.42,0.215,52.84,0.431,79.26,0.642
							c-8.576,18.138-17.107,36.296-25.562,54.491c-27.396-0.229-54.792-0.45-82.189-0.676
							C890.872,862.557,900.384,844.413,909.945,826.294z"/>
					</g>
					<g style="clip-path:url(#SVGID_4_);">
						<path style="fill:none;" d="M881.007,881.62c54.771,0.448,109.542,0.888,164.312,1.354
							c-15.731,38.559-31.067,77.269-45.637,116.283c-58.749,0.026-117.498,0.053-176.247,0.079
							C841.664,959.627,861.043,920.482,881.007,881.62z"/>
						<path style="fill:#44484F;" d="M937.305,939.455c-28.398-0.166-56.797-0.323-85.196-0.484
							c9.473-19.199,19.115-38.307,28.897-57.351c27.411,0.226,54.822,0.449,82.233,0.675
							C954.471,901.293,945.816,920.34,937.305,939.455z"/>
						<path style="fill:#FFFFFF;" d="M1022.066,940.857c-28.39-0.161-56.78-0.319-85.17-0.482
							c8.513-19.133,17.169-38.196,25.942-57.211c27.375,0.221,54.75,0.445,82.125,0.678
							C1037.212,902.8,1029.586,921.807,1022.066,940.857z"/>
						<path style="fill:#44484F;" d="M936.488,941.299c28.406,0.159,56.811,0.32,85.216,0.477
							c-7.479,19.108-14.841,38.26-22.021,57.482c-29.375,0.013-58.75,0.026-88.125,0.039
							C919.664,979.876,928.01,960.561,936.488,941.299z"/>
						<path style="fill:#FFFFFF;" d="M851.655,939.899c28.414,0.151,56.828,0.319,85.242,0.476
							c-8.543,19.404-16.964,38.859-25.132,58.426c-29.366,0.012-58.732,0.023-88.098,0.034
							C832.746,979.07,842.122,959.449,851.655,939.899z"/>
					</g>
					<g style="clip-path:url(#SVGID_4_);">
						<path style="fill:none;" d="M844.653,671.345c48.259,0.271,96.519,0.571,144.777,0.887
							c-16.49,33.56-33.512,66.828-50.883,99.939c-51.484-0.345-102.968-0.674-154.453-0.978
							C804.79,738.208,825.046,704.989,844.653,671.345z"/>
						<path style="fill:#44484F;" d="M893.312,716.222c-24.99-0.133-49.979-0.264-74.969-0.387
							c8.879-14.768,17.634-29.603,26.311-44.49c24.314,0.134,48.628,0.28,72.943,0.427
							C909.582,686.634,901.505,701.457,893.312,716.222z"/>
						<path style="fill:#FFFFFF;" d="M966.89,717.487c-24.686-0.145-49.371-0.284-74.057-0.411
							c8.277-14.9,16.438-29.859,24.525-44.863c23.952,0.152,47.904,0.305,71.856,0.459
							C981.852,687.65,974.421,702.593,966.89,717.487z"/>
						<path style="fill:#44484F;" d="M892.357,717.93c24.7,0.133,49.399,0.273,74.099,0.412
							c-9.196,17.999-18.494,35.943-27.909,53.829c-25.616-0.171-51.232-0.337-76.848-0.499
							C872.021,753.814,882.255,735.912,892.357,717.93z"/>
						<path style="fill:#FFFFFF;" d="M817.824,716.688c25.003,0.123,50.006,0.249,75.009,0.388
							c-10.094,17.993-20.333,35.901-30.653,53.766c-25.855-0.165-51.71-0.324-77.565-0.476
							C795.798,752.543,806.889,734.666,817.824,716.688z"/>
					</g>
					<g style="clip-path:url(#SVGID_4_);">
						<path style="fill:none;" d="M784.093,771.197c51.485,0.304,102.969,0.642,154.454,0.975
							c-19.217,36.464-38.595,72.842-57.542,109.447c-55.12-0.447-110.239-0.891-165.359-1.321
							C738.124,843.719,761.203,807.52,784.093,771.197z"/>
						<path style="fill:#44484F;" d="M830.771,824.832c-26.727-0.21-53.454-0.412-80.181-0.612
							c11.167-17.675,22.358-35.334,33.503-53.022c25.869,0.151,51.738,0.312,77.607,0.477
							C851.412,789.405,841.083,807.113,830.771,824.832z"/>
						<path style="fill:#FFFFFF;" d="M909.944,826.295c-26.553-0.21-53.106-0.418-79.659-0.631
							c10.313-17.72,20.645-35.428,30.934-53.161c25.63,0.164,51.26,0.33,76.89,0.501
							C928.75,790.783,919.338,808.534,909.944,826.295z"/>
						<path style="fill:#44484F;" d="M829.8,826.505c26.567,0.204,53.135,0.418,79.702,0.63
							c-9.566,18.127-19.08,36.28-28.497,54.484c-27.498-0.224-54.997-0.444-82.495-0.665
							C808.84,862.746,819.291,844.609,829.8,826.505z"/>
						<path style="fill:#FFFFFF;" d="M750.063,825.052c26.741,0.2,53.481,0.408,80.222,0.612
							c-10.502,18.098-20.951,36.225-31.283,54.42c-27.608-0.227-55.217-0.439-82.825-0.657
							C727.366,861.234,738.679,843.122,750.063,825.052z"/>
					</g>
					<g style="clip-path:url(#SVGID_4_);">
						<path style="fill:none;" d="M715.646,880.298c55.12,0.431,110.24,0.874,165.359,1.321
							c-19.961,38.864-39.334,78.012-57.572,117.718c-58.739,0.026-117.478,0.053-176.217,0.078
							C668.779,958.991,691.815,919.422,715.646,880.298z"/>
						<path style="fill:#44484F;" d="M766.788,938.49c-28.499-0.159-56.999-0.319-85.498-0.476
							c11.24-19.368,22.703-38.594,34.355-57.717c27.622,0.216,55.243,0.435,82.865,0.656
							C787.762,900.04,777.175,919.206,766.788,938.49z"/>
						<path style="fill:#FFFFFF;" d="M851.653,939.898c-28.455-0.164-56.91-0.318-85.364-0.475
							c10.389-19.306,20.975-38.494,31.729-57.6c27.513,0.221,55.026,0.439,82.539,0.665
							C870.771,901.552,861.126,920.679,851.653,939.898z"/>
						<path style="fill:#44484F;" d="M765.789,940.357c28.47,0.158,56.94,0.311,85.41,0.47
							c-9.456,19.409-18.757,38.889-27.767,58.51c-29.371,0.013-58.742,0.026-88.113,0.039
							C745.19,979.554,755.403,959.914,765.789,940.357z"/>
						<path style="fill:#FFFFFF;" d="M680.75,938.952c28.513,0.156,57.026,0.312,85.539,0.472
							c-10.475,19.695-20.765,39.48-30.716,59.445c-29.361,0.012-58.722,0.022-88.083,0.033
							C658.253,978.736,669.398,958.791,680.75,938.952z"/>
					</g>
					<g style="clip-path:url(#SVGID_4_);">
						<path style="fill:none;" d="M694.156,670.616c50.166,0.208,100.332,0.445,150.497,0.729
							c-19.607,33.645-39.863,66.863-60.559,99.849c-52.788-0.311-105.577-0.604-158.365-0.867
							C649.137,737.482,672.024,704.334,694.156,670.616z"/>
						<path style="fill:#44484F;" d="M742.138,715.485c-25.904-0.108-51.808-0.216-77.712-0.309
							c10.041-14.769,19.929-29.632,29.73-44.561c25.375,0.103,50.749,0.217,76.123,0.34
							C760.999,685.864,751.64,700.716,742.138,715.485z"/>
						<path style="fill:#FFFFFF;" d="M817.824,716.688c-25.413-0.125-50.826-0.244-76.239-0.349
							c9.597-14.904,19.052-29.892,28.418-44.941c24.797,0.121,49.595,0.251,74.392,0.389
							C835.638,686.814,826.794,701.786,817.824,716.688z"/>
						<path style="fill:#44484F;" d="M741.032,717.193c25.425,0.108,50.85,0.229,76.275,0.35
							c-10.939,17.966-22.03,35.835-33.213,53.65c-26.194-0.157-52.389-0.31-78.583-0.449
							C717.471,752.972,729.333,735.139,741.032,717.193z"/>
						<path style="fill:#FFFFFF;" d="M663.842,716.03c25.915,0.093,51.829,0.195,77.743,0.31
							c-11.695,17.957-23.558,35.797-35.518,53.578c-26.583-0.143-53.167-0.283-79.75-0.416
							C638.956,751.768,651.49,733.966,663.842,716.03z"/>
					</g>
					<g style="clip-path:url(#SVGID_4_);">
						<path style="fill:none;" d="M625.729,770.328c52.789,0.264,105.577,0.543,158.365,0.869
							c-22.89,36.322-45.969,72.521-68.448,109.101c-55.754-0.436-111.508-0.86-167.262-1.27
							C573.742,842.492,599.84,806.488,625.729,770.328z"/>
						<path style="fill:#44484F;" d="M669.678,823.627c-27.269-0.189-54.538-0.382-81.807-0.565
							c12.615-17.581,25.26-35.14,37.858-52.733c26.594,0.131,53.187,0.272,79.781,0.418
							C693.587,788.388,681.621,805.999,669.678,823.627z"/>
						<path style="fill:#FFFFFF;" d="M750.063,825.052c-26.983-0.2-53.965-0.4-80.948-0.593
							c11.942-17.633,23.913-35.246,35.838-52.89c26.206,0.147,52.413,0.295,78.619,0.454
							C772.423,789.713,761.233,807.376,750.063,825.052z"/>
						<path style="fill:#44484F;" d="M668.552,825.294c26.995,0.196,53.99,0.392,80.985,0.596
							c-11.389,18.08-22.707,36.201-33.892,54.408c-27.78-0.217-55.561-0.435-83.341-0.644
							C644.263,861.45,656.364,843.346,668.552,825.294z"/>
						<path style="fill:#FFFFFF;" d="M587.276,823.892c27.28,0.184,54.559,0.375,81.839,0.567
							c-12.182,18.042-24.283,36.133-36.241,54.323c-27.963-0.213-55.927-0.417-83.891-0.628
							C561.615,859.971,574.4,841.902,587.276,823.892z"/>
					</g>
					<g style="clip-path:url(#SVGID_4_);">
						<path style="fill:none;" d="M548.383,879.028c55.754,0.409,111.508,0.834,167.262,1.27
							c-23.83,39.124-46.866,78.693-68.43,119.117c-58.722,0.027-117.443,0.052-176.165,0.077
							C495.308,958.359,521.344,918.378,548.383,879.028z"/>
						<path style="fill:#44484F;" d="M595.564,937.546c-28.668-0.152-57.336-0.312-86.004-0.462
							c12.686-19.528,25.635-38.863,38.823-58.056c27.974,0.199,55.948,0.409,83.921,0.626
							C619.836,898.815,607.578,918.096,595.564,937.546z"/>
						<path style="fill:#FFFFFF;" d="M680.75,938.952c-28.587-0.159-57.175-0.307-85.763-0.465
							c12.016-19.474,24.275-38.778,36.747-57.963c27.793,0.214,55.585,0.425,83.378,0.645
							C703.455,900.312,691.992,919.562,680.75,938.952z"/>
						<path style="fill:#44484F;" d="M594.408,939.436c28.6,0.147,57.201,0.31,85.801,0.457
							c-11.258,19.699-22.312,39.504-32.993,59.522c-29.364,0.014-58.728,0.026-88.091,0.039
							C570.53,979.235,582.356,959.273,594.408,939.436z"/>
						<path style="fill:#FFFFFF;" d="M508.95,938.031c28.679,0.154,57.358,0.304,86.037,0.456
							c-12.161,19.973-24.072,40.085-35.569,60.448c-29.352,0.011-58.705,0.021-88.057,0.033
							C483.497,978.41,496.085,958.14,508.95,938.031z"/>
					</g>
					<g style="clip-path:url(#SVGID_4_);">
						<path style="fill:none;" d="M535.365,670.123c52.931,0.122,105.861,0.28,158.791,0.493
							c-22.131,33.718-45.019,66.866-68.427,99.71c-54.678-0.266-109.357-0.509-164.036-0.707
							C486.931,736.933,511.576,703.879,535.365,670.123z"/>
						<path style="fill:#44484F;" d="M584.924,714.919c-27.188-0.078-54.376-0.146-81.564-0.199
							c10.817-14.763,21.461-29.638,32.004-44.597c26.864,0.06,53.729,0.133,80.593,0.212
							C605.73,685.28,595.41,700.152,584.924,714.919z"/>
						<path style="fill:#FFFFFF;" d="M663.842,716.03c-26.509-0.095-53.018-0.18-79.526-0.26
							c10.591-14.899,21.015-29.905,31.338-44.992c26.071,0.085,52.141,0.178,78.211,0.281
							C683.974,686.131,673.984,701.127,663.842,716.03z"/>
						<path style="fill:#44484F;" d="M583.706,716.624c26.517,0.078,53.034,0.164,79.551,0.259
							c-12.356,17.924-24.888,35.719-37.528,53.443c-27.066-0.129-54.133-0.258-81.2-0.377
							C557.727,752.273,570.809,734.521,583.706,716.624z"/>
						<path style="fill:#FFFFFF;" d="M502.732,715.571c27.194,0.056,54.389,0.123,81.583,0.199
							c-12.89,17.911-25.972,35.674-39.17,53.358c-27.606-0.121-55.212-0.221-82.818-0.33
							C475.943,751.165,489.439,733.449,502.732,715.571z"/>
					</g>
					<g style="clip-path:url(#SVGID_4_);">
						<path style="fill:none;" d="M461.693,769.621c54.679,0.198,109.357,0.441,164.035,0.707
							c-25.888,36.16-51.986,72.164-77.345,108.7c-56.672-0.42-113.345-0.812-170.018-1.194
							C405.637,841.373,433.773,805.585,461.693,769.621z"/>
						<path style="fill:#44484F;" d="M505.004,822.526c-28.029-0.176-56.059-0.344-84.088-0.502
							c13.583-17.476,27.207-34.919,40.777-52.403c27.612,0.105,55.224,0.211,82.836,0.332
							C531.376,787.493,518.172,804.996,505.004,822.526z"/>
						<path style="fill:#FFFFFF;" d="M587.276,823.892c-27.631-0.186-55.262-0.366-82.893-0.54
							c13.169-17.533,26.377-35.037,39.531-52.581c27.075,0.119,54.15,0.249,81.225,0.38
							C612.542,788.748,599.891,806.307,587.276,823.892z"/>
						<path style="fill:#44484F;" d="M503.763,824.183c27.64,0.174,55.279,0.355,82.918,0.541
							c-12.883,18.021-25.671,36.104-38.298,54.305c-28.204-0.206-56.408-0.412-84.612-0.607
							C476.951,860.229,490.306,842.171,503.763,824.183z"/>
						<path style="fill:#FFFFFF;" d="M420.275,822.847c28.036,0.165,56.072,0.329,84.108,0.505
							c-13.451,17.978-26.802,36.021-39.985,54.196c-28.462-0.199-56.924-0.396-85.386-0.586
							C392.611,858.802,406.389,840.786,420.275,822.847z"/>
					</g>
					<g style="clip-path:url(#SVGID_4_);">
						<path style="fill:none;" d="M378.365,877.834c56.673,0.383,113.346,0.774,170.018,1.194
							c-27.039,39.35-53.076,79.331-77.333,120.464c-58.695,0.025-117.391,0.051-176.086,0.075
							C321.028,957.793,349.091,917.411,378.365,877.834z"/>
						<path style="fill:#44484F;" d="M423.226,936.633c-28.906-0.152-57.812-0.294-86.719-0.443
							c13.648-19.677,27.61-39.109,41.858-58.355c28.469,0.192,56.937,0.386,85.406,0.587
							C449.938,897.605,436.45,917.024,423.226,936.633z"/>
						<path style="fill:#FFFFFF;" d="M508.95,938.031c-28.788-0.15-57.576-0.296-86.363-0.447
							c13.231-19.634,26.717-39.082,40.555-58.294c28.213,0.204,56.426,0.397,84.639,0.61
							C534.589,899.117,521.637,918.477,508.95,938.031z"/>
						<path style="fill:#44484F;" d="M421.949,938.541c28.796,0.147,57.593,0.291,86.389,0.441
							c-12.758,19.971-25.246,40.099-37.287,60.51c-29.352,0.013-58.703,0.025-88.055,0.038
							C395.565,978.932,408.606,958.646,421.949,938.541z"/>
						<path style="fill:#FFFFFF;" d="M335.849,937.15c28.913,0.138,57.826,0.291,86.738,0.434
							c-13.45,20.245-26.6,40.671-39.267,61.417c-29.34,0.01-58.681,0.021-88.021,0.031
							C308.358,978.102,321.943,957.526,335.849,937.15z"/>
					</g>
					<g style="clip-path:url(#SVGID_4_);">
						<path style="fill:none;" d="M365.712,669.934c56.551,0.005,113.102,0.067,169.653,0.189
							c-23.789,33.756-48.434,66.81-73.671,99.496c-57.154-0.211-114.309-0.38-171.463-0.499
							C316.151,736.605,341.403,703.672,365.712,669.934z"/>
						<path style="fill:#44484F;" d="M419.454,714.587c-28.841-0.04-57.683-0.053-86.524-0.062
							c11.094-14.747,21.994-29.621,32.782-44.592c28.782,0.005,57.563,0.017,86.345,0.053
							C441.322,684.955,430.479,699.831,419.454,714.587z"/>
						<path style="fill:#FFFFFF;" d="M502.732,715.571c-27.973-0.054-55.946-0.102-83.919-0.136
							c11.139-14.886,22.091-29.895,32.925-45.004c27.771,0.028,55.542,0.08,83.314,0.136
							C524.411,685.667,513.658,700.676,502.732,715.571z"/>
						<path style="fill:#44484F;" d="M418.172,716.288c27.977,0.029,55.954,0.08,83.93,0.134
							c-13.299,17.865-26.795,35.572-40.409,53.197c-28.231-0.104-56.463-0.197-84.694-0.279
							C390.878,751.772,404.629,734.115,418.172,716.288z"/>
						<path style="fill:#FFFFFF;" d="M332.286,715.375c28.842,0.005,57.685,0.027,86.527,0.061
							c-13.536,17.844-27.286,35.513-41.167,53.089c-28.922-0.081-57.843-0.152-86.765-0.219
							C304.847,750.787,318.677,733.174,332.286,715.375z"/>
					</g>
					<g style="clip-path:url(#SVGID_4_);">
						<path style="fill:none;" d="M290.229,769.12c57.155,0.127,114.31,0.29,171.464,0.501
							c-27.92,35.964-56.057,71.752-83.328,108.213c-57.877-0.374-115.754-0.75-173.631-1.091
							C232.67,840.419,261.57,804.871,290.229,769.12z"/>
						<path style="fill:#44484F;" d="M335.439,821.561c-29.009-0.148-58.019-0.286-87.028-0.421
							c13.93-17.348,27.904-34.659,41.818-52.02c28.923,0.07,57.847,0.138,86.771,0.222
							C363.168,786.766,349.282,804.146,335.439,821.561z"/>
						<path style="fill:#FFFFFF;" d="M420.275,822.847c-28.496-0.157-56.993-0.312-85.489-0.466
							c13.844-17.417,27.734-34.798,41.567-52.224c28.235,0.082,56.47,0.181,84.706,0.278
							C447.489,787.925,433.86,805.368,420.275,822.847z"/>
						<path style="fill:#44484F;" d="M334.132,823.208c28.5,0.146,57.001,0.305,85.502,0.467
							c-13.893,17.952-27.672,35.981-41.269,54.159c-28.771-0.189-57.541-0.383-86.312-0.557
							C305.908,859.117,319.961,841.121,334.132,823.208z"/>
						<path style="fill:#FFFFFF;" d="M247.754,821.959c29.011,0.135,58.021,0.273,87.032,0.422
							c-14.165,17.9-28.214,35.883-42.072,54.022c-29.105-0.188-58.21-0.363-87.315-0.53
							C219.342,857.761,233.487,839.816,247.754,821.959z"/>
					</g>
					<g style="clip-path:url(#SVGID_4_);">
						<path style="fill:none;" d="M204.734,876.743c57.877,0.341,115.754,0.717,173.631,1.091
							c-29.274,39.577-57.337,79.959-83.401,121.733c-58.662,0.024-117.323,0.044-175.984,0.072
							C145.619,957.312,174.492,916.561,204.734,876.743z"/>
						<path style="fill:#44484F;" d="M249.357,935.762c-29.212-0.141-58.423-0.278-87.635-0.416
							c13.996-19.793,28.343-39.303,43.012-58.603c29.106,0.172,58.213,0.349,87.32,0.534
							C277.505,896.549,263.263,916.021,249.357,935.762z"/>
						<path style="fill:#FFFFFF;" d="M335.849,937.15c-29.055-0.15-58.109-0.29-87.164-0.426
							c13.909-19.772,28.155-39.274,42.708-58.577c28.774,0.184,57.548,0.373,86.322,0.561
							C363.462,897.983,349.496,917.441,335.849,937.15z"/>
						<path style="fill:#44484F;" d="M248.012,937.688c29.059,0.14,58.119,0.276,87.178,0.422
							c-13.793,20.238-27.262,40.676-40.225,61.457c-29.335,0.012-58.67,0.024-88.005,0.036
							C220.168,978.646,233.921,958.062,248.012,937.688z"/>
						<path style="fill:#FFFFFF;" d="M161.045,936.312c29.213,0.138,58.426,0.273,87.64,0.412
							c-14.209,20.51-28.072,41.234-41.384,62.339c-29.325,0.01-58.651,0.021-87.976,0.031
							C132.725,977.826,146.703,956.955,161.045,936.312z"/>
					</g>
				</g>
			</g>
		</g>
	</g>
	<polygon style="clip-path:url(#SVGID_2_);fill:#E6E600;" points="1059,28.219 1109,-12 1109,390 1059,442.287 	"/>
	<g style="clip-path:url(#SVGID_2_);">
		<polygon style="fill:#72BFD6;stroke:#72BFD6;stroke-width:4;stroke-miterlimit:10;" points="1286,212 1117,212 1278,398 1286,385 
					"/>
		<rect x="1109" y="225" style="fill:#E8F8FF;stroke:#9CE2FF;stroke-width:4;stroke-miterlimit:10;" width="169" height="173"/>
		<g>
			<path style="fill:#D2F4FF;" d="M1292,211.5c0,4.125-4.5,7.5-10,7.5h-166c-5.5,0-10-3.375-10-7.5s4.5-7.5,10-7.5h166
				C1287.5,204,1292,207.375,1292,211.5z"/>
			<path style="fill:none;stroke:#9CE2FF;stroke-width:4;stroke-miterlimit:10;" d="M1292,211.5c0,4.125-4.5,7.5-10,7.5h-166
				c-5.5,0-10-3.375-10-7.5s4.5-7.5,10-7.5h166C1287.5,204,1292,207.375,1292,211.5z"/>
		</g>
		<g>
			<path style="fill:#72BFD6;stroke:#72BFD6;stroke-width:4;stroke-miterlimit:10;" d="M1198.06,130.219
				c-47.378,0-85.781,38.781-85.781,85.781h19.343c0-37,29.745-66.438,66.438-66.438c36.694,0,66.438,29.438,66.438,66.438l21.502,7
				C1286,176,1245.437,130.219,1198.06,130.219z"/>
			<path style="fill:#9EE3FF;stroke:#9CE2FF;stroke-width:4;stroke-miterlimit:10;" d="M1194.06,139.219
				c-47.378,0-85.781,38.781-85.781,85.781h19.343c0-37,29.745-66.438,66.438-66.438c36.694,0,66.438,29.438,66.438,66.438h19.343
				C1279.841,178,1241.437,139.219,1194.06,139.219z"/>
			<path style="fill:#F9F900;stroke:#C2C200;stroke-width:3;stroke-miterlimit:10;" d="M1194.06,182.377
				c23.816,0,43.122,18.123,43.122,43.123h23.316c0-37-29.744-66.438-66.438-66.438c-36.693,0-66.438,29.438-66.438,66.438h23.316
				C1150.938,200.5,1170.243,182.377,1194.06,182.377z"/>
			<path style="fill:#FFABB9;stroke:#FF8297;stroke-width:4;stroke-miterlimit:10;" d="M1194.06,181.878
				c-23.816,0-43.122,19.122-43.122,43.122h86.244C1237.182,201,1217.876,181.878,1194.06,181.878z"/>
		</g>
		<rect x="1127.5" y="234.5" style="fill:#F9F900;stroke:#DEDE47;stroke-width:3;stroke-miterlimit:10;" width="132" height="135"/>
		<rect x="1150" y="235" style="fill:#FFABB9;stroke:#FF8297;stroke-width:4;stroke-miterlimit:10;" width="87" height="107"/>
		<g style="opacity:0.2;">
			<circle style="fill:#FFFFFF;" cx="1167.31" cy="253.643" r="4.31"/>
			<circle style="fill:#FFFFFF;" cx="1167.31" cy="265.266" r="4.31"/>
			<circle style="fill:#FFFFFF;" cx="1167.31" cy="276.889" r="4.31"/>
			<circle style="fill:#FFFFFF;" cx="1167.31" cy="288.511" r="4.31"/>
			<circle style="fill:#FFFFFF;" cx="1167.31" cy="300.134" r="4.31"/>
			<circle style="fill:#FFFFFF;" cx="1167.31" cy="311.757" r="4.31"/>
			<circle style="fill:#FFFFFF;" cx="1167.31" cy="323.38" r="4.31"/>
		</g>
		<g style="opacity:0.2;">
			<circle style="fill:#FFFFFF;" cx="1193.31" cy="253.643" r="4.31"/>
			<circle style="fill:#FFFFFF;" cx="1193.31" cy="265.266" r="4.31"/>
			<circle style="fill:#FFFFFF;" cx="1193.31" cy="276.889" r="4.31"/>
			<circle style="fill:#FFFFFF;" cx="1193.31" cy="288.511" r="4.31"/>
			<circle style="fill:#FFFFFF;" cx="1193.31" cy="300.134" r="4.31"/>
			<circle style="fill:#FFFFFF;" cx="1193.31" cy="311.757" r="4.31"/>
			<circle style="fill:#FFFFFF;" cx="1193.31" cy="323.38" r="4.31"/>
		</g>
		<g style="opacity:0.2;">
			<circle style="fill:#FFFFFF;" cx="1217.31" cy="253.643" r="4.31"/>
			<circle style="fill:#FFFFFF;" cx="1217.31" cy="265.266" r="4.31"/>
			<circle style="fill:#FFFFFF;" cx="1217.31" cy="276.889" r="4.31"/>
			<circle style="fill:#FFFFFF;" cx="1217.31" cy="288.511" r="4.31"/>
			<circle style="fill:#FFFFFF;" cx="1217.31" cy="300.134" r="4.31"/>
			<circle style="fill:#FFFFFF;" cx="1217.31" cy="311.757" r="4.31"/>
			<circle style="fill:#FFFFFF;" cx="1217.31" cy="323.38" r="4.31"/>
		</g>
		<path style="opacity:0.1;" d="M1280,225l-87.475,0.491L1108,225v21c0,0,33.187-4.738,82.009-4.988
			c0.103,0.195,0.194,0.178,0.276,0c0.752-0.004,1.51-0.006,2.269-0.008c0.398,0.002,0.795,0.004,1.192,0.006
			c0.063,0.18,0.144,0.198,0.246,0.001C1243.021,241.26,1280,246,1280,246V225z"/>
		<g>
			<path style="fill:#D2F4FF;" d="M1286,225.5c0,4.125-4.5,7.5-10,7.5h-166c-5.5,0-10-3.375-10-7.5s4.5-7.5,10-7.5h166
				C1281.5,218,1286,221.375,1286,225.5z"/>
			<path style="fill:none;stroke:#9CE2FF;stroke-width:4;stroke-miterlimit:10;" d="M1286,225.5c0,4.125-4.5,7.5-10,7.5h-166
				c-5.5,0-10-3.375-10-7.5s4.5-7.5,10-7.5h166C1281.5,218,1286,221.375,1286,225.5z"/>
		</g>
	</g>
	<g style="clip-path:url(#SVGID_2_);">
		<g>
			<path style="fill:#9EE3FF;" d="M1917,575c0,5.522-4.478,10-10,10h-639c-5.522,0-10-4.478-10-10V384c0-5.522,4.478-10,10-10h639
				c5.522,0,10,4.478,10,10V575z"/>
			<path style="fill:none;stroke:#9CE2FF;stroke-width:4;stroke-miterlimit:10;" d="M1917,575c0,5.522-4.478,10-10,10h-639
				c-5.522,0-10-4.478-10-10V384c0-5.522,4.478-10,10-10h639c5.522,0,10,4.478,10,10V575z"/>
		</g>
	</g>
	<g style="clip-path:url(#SVGID_2_);">
		<path style="fill:#C4EEFF;" d="M1922,372c0,3.85-4.5,7-10,7h-645c-5.5,0-6.71-3.07-2.689-6.823l0.379-0.354
			C1268.71,368.07,1276.5,365,1282,365h630C1917.5,365,1922,368.15,1922,372z"/>
		<path style="fill:none;stroke:#9CE2FF;stroke-width:4;stroke-miterlimit:10;" d="M1922,372c0,3.85-4.5,7-10,7h-645
			c-5.5,0-6.71-3.07-2.689-6.823l0.379-0.354C1268.71,368.07,1276.5,365,1282,365h630C1917.5,365,1922,368.15,1922,372z"/>
	</g>
	<g style="clip-path:url(#SVGID_2_);">
		<path style="fill:#44484F;" d="M1850,627.066c0,9.604-7.721,16.934-14.809,16.934h-260.965h-263.081
			c-7.091,0-12.146-7.33-12.146-16.934v-17.389c0-9.604,5.055-16.678,12.146-16.678h524.046c7.088,0,14.809,7.074,14.809,16.678
			V627.066z"/>
		<path style="opacity:0.8;fill:#2E3135;" d="M1299.254,582l-1.242,42.029c0,0,115.863-4.861,276.616-4.861
			c169.439,0,275.372,5.893,275.372,5.893V582H1299.254z"/>
		<g>
			<path style="fill:#FF94A6;" d="M1899,595c0,5.522-4.478,10-10,10h-614c-5.522,0-10-4.478-10-10v-23c0-5.522,4.478-10,10-10h614
				c5.522,0,10,4.478,10,10V595z"/>
			<path style="fill:none;stroke:#FF8095;stroke-width:4;stroke-miterlimit:10;" d="M1899,595c0,5.522-4.478,10-10,10h-614
				c-5.522,0-10-4.478-10-10v-23c0-5.522,4.478-10,10-10h614c5.522,0,10,4.478,10,10V595z"/>
		</g>
		<g>
			<path style="fill:#FFB8C4;" d="M1490,416.107c0,5.5-4.086,9.893-9.586,9.893h-161.231c-5.5,0-7.479-3.674-4.397-8.229l3.014-4.47
				c3.081-4.557,10.103-8.301,15.603-8.301h147.013c5.5,0,9.586,4.588,9.586,10.088V416.107z"/>
			<path style="fill:none;stroke:#FFABB9;stroke-width:4;stroke-miterlimit:10;" d="M1490,416.107c0,5.5-4.086,9.893-9.586,9.893
				h-161.231c-5.5,0-7.479-3.674-4.397-8.229l3.014-4.47c3.081-4.557,10.103-8.301,15.603-8.301h147.013
				c5.5,0,9.586,4.588,9.586,10.088V416.107z"/>
		</g>
		<g>
			<path style="fill:#FFB8C4;" d="M1671,416c0,5.522-4.478,10-10,10h-161c-5.522,0-10-4.478-10-10v-1c0-5.522,4.478-10,10-10h161
				c5.522,0,10,4.478,10,10V416z"/>
			<path style="fill:none;stroke:#FFABB9;stroke-width:4;stroke-miterlimit:10;" d="M1671,416c0,5.522-4.478,10-10,10h-161
				c-5.522,0-10-4.478-10-10v-1c0-5.522,4.478-10,10-10h161c5.522,0,10,4.478,10,10V416z"/>
		</g>
		<g>
			<path style="fill:#FFB8C4;" d="M1848.463,416.941c2.428,4.936-0.086,9.059-5.586,9.059h-161.231c-5.5,0-9.646-4.671-9.646-10.171
				v-1.02c0-5.5,4.146-9.81,9.646-9.81h150.893c5.5,0,11.986,3.985,14.414,8.921L1848.463,416.941z"/>
			<path style="fill:none;stroke:#FFABB9;stroke-width:4;stroke-miterlimit:10;" d="M1848.463,416.941
				c2.428,4.936-0.086,9.059-5.586,9.059h-161.231c-5.5,0-9.646-4.671-9.646-10.171v-1.02c0-5.5,4.146-9.81,9.646-9.81h150.893
				c5.5,0,11.986,3.985,14.414,8.921L1848.463,416.941z"/>
		</g>
		<g>
			<path style="fill:#FF94A6;" d="M1490,498c0,5.522-4.478,10-10,10h-161c-5.522,0-10-4.478-10-10v-70c0-5.522,4.478-10,10-10h161
				c5.522,0,10,4.478,10,10V498z"/>
			<path style="fill:none;stroke:#FF8095;stroke-width:4;stroke-miterlimit:10;" d="M1490,498c0,5.522-4.478,10-10,10h-161
				c-5.522,0-10-4.478-10-10v-70c0-5.522,4.478-10,10-10h161c5.522,0,10,4.478,10,10V498z"/>
		</g>
		<g>
			<path style="fill:#FF94A6;" d="M1671,498c0,5.522-4.478,10-10,10h-161c-5.522,0-10-4.478-10-10v-70c0-5.522,4.478-10,10-10h161
				c5.522,0,10,4.478,10,10V498z"/>
			<path style="fill:none;stroke:#FF8095;stroke-width:4;stroke-miterlimit:10;" d="M1671,498c0,5.522-4.478,10-10,10h-161
				c-5.522,0-10-4.478-10-10v-70c0-5.522,4.478-10,10-10h161c5.522,0,10,4.478,10,10V498z"/>
		</g>
		<g>
			<path style="fill:#FF94A6;" d="M1853,496c0,5.522-4.478,10-10,10h-161c-5.522,0-10-4.478-10-10v-70c0-5.522,4.478-10,10-10h161
				c5.522,0,10,4.478,10,10V496z"/>
			<path style="fill:none;stroke:#FF8095;stroke-width:4;stroke-miterlimit:10;" d="M1853,496c0,5.522-4.478,10-10,10h-161
				c-5.522,0-10-4.478-10-10v-70c0-5.522,4.478-10,10-10h161c5.522,0,10,4.478,10,10V496z"/>
		</g>
		<path style="fill:#FFA1B0;stroke:#FFABB9;stroke-width:4;stroke-miterlimit:10;" d="M1893.699,557.709
			c-5.604-7.83-33.07-45.804-33.07-45.804c-5.943-8.302-13.121-7.905-28.183-7.905c-12.442,0-182.161,0-240.803,0
			c0,0-7.427,0-19.769,0c-58.674,0-228.546,0-240.991,0c-15.062,0-22.238-0.429-28.182,7.873c0,0-27.467,38.147-33.071,45.979
			c-7.363,10.285-7.62,10.148,8.536,10.148c13.619,0,227.007,0,293.708,0c12.429,0,19.769,0,19.769,0c66.673,0,279.9,0,293.52,0
			C1901.319,568,1901.062,567.994,1893.699,557.709z"/>
		
			<use xlink:href="#New_Symbol"  width="20" height="10.707" x="-10" y="-5.354" transform="matrix(0.647 0 0 -0.4762 1352.4863 525.2402)" style="overflow:visible;"/>
		
			<use xlink:href="#New_Symbol"  width="20" height="10.707" x="-10" y="-5.354" transform="matrix(0.647 0 0 -0.4762 1426.2451 525.2402)" style="overflow:visible;"/>
		
			<use xlink:href="#New_Symbol"  width="20" height="10.707" x="-10" y="-5.354" transform="matrix(0.647 0 0 -0.4762 1344.7217 541.9082)" style="overflow:visible;"/>
		
			<use xlink:href="#New_Symbol"  width="20" height="10.707" x="-10" y="-5.354" transform="matrix(0.647 0 0 -0.4762 1422.3633 541.9082)" style="overflow:visible;"/>
		
			<use xlink:href="#New_Symbol"  width="20" height="10.707" x="-10" y="-5.354" transform="matrix(-0.6616 0 0 -0.4869 1819.3047 525.0527)" style="overflow:visible;"/>
		
			<use xlink:href="#New_Symbol"  width="20" height="10.707" x="-10" y="-5.354" transform="matrix(-0.6616 0 0 -0.4869 1743.8877 525.0527)" style="overflow:visible;"/>
		
			<use xlink:href="#New_Symbol"  width="20" height="10.707" x="-10" y="-5.354" transform="matrix(-0.6616 0 0 -0.4869 1827.2432 542.0957)" style="overflow:visible;"/>
		
			<use xlink:href="#New_Symbol"  width="20" height="10.707" x="-10" y="-5.354" transform="matrix(-0.6616 0 0 -0.4869 1747.8564 542.0957)" style="overflow:visible;"/>
		
			<use xlink:href="#New_Symbol"  width="20" height="10.707" x="-10" y="-5.354" transform="matrix(0.6744 0 0 -0.4964 1549.8486 524.8877)" style="overflow:visible;"/>
		
			<use xlink:href="#New_Symbol"  width="20" height="10.707" x="-10" y="-5.354" transform="matrix(0.6744 0 0 -0.4964 1548.5 542.2617)" style="overflow:visible;"/>
		
			<use xlink:href="#New_Symbol"  width="20" height="10.707" x="-10" y="-5.354" transform="matrix(-0.6744 0 0 -0.4964 1619.3174 524.8877)" style="overflow:visible;"/>
		
			<use xlink:href="#New_Symbol"  width="20" height="10.707" x="-10" y="-5.354" transform="matrix(-0.6744 0 0 -0.4964 1620.666 542.2617)" style="overflow:visible;"/>
		
			<line style="fill:none;stroke:#FFABB9;stroke-width:4;stroke-miterlimit:10;" x1="1489.976" y1="503.971" x2="1473.031" y2="567.87"/>
		
			<line style="fill:none;stroke:#FFABB9;stroke-width:4;stroke-miterlimit:10;" x1="1672.602" y1="502.971" x2="1690.487" y2="568.008"/>
		<g style="opacity:0.2;">
			
				<image style="overflow:visible;" width="240" height="151" xlink:href="DE683761D209DD31.png"  transform="matrix(1 0 0 1 1279 386)">
			</image>
		</g>
		<g style="opacity:0.2;">
			
				<image style="overflow:visible;" width="240" height="151" xlink:href="DE683761D209DD32.png"  transform="matrix(1 0 0 1 1461 386)">
			</image>
		</g>
		<g style="opacity:0.2;">
			
				<image style="overflow:visible;" width="240" height="151" xlink:href="DE683761D209DD33.png"  transform="matrix(1 0 0 1 1643 385)">
			</image>
		</g>
		<g style="opacity:0.1;">
			
				<image style="overflow:visible;" width="240" height="151" xlink:href="DE683761D209DD10.png"  transform="matrix(1 0 0 1 1643 385)">
			</image>
		</g>
		<g style="opacity:0.1;">
			
				<image style="overflow:visible;" width="240" height="151" xlink:href="DE683761D209DD11.png"  transform="matrix(1 0 0 1 1461 385)">
			</image>
		</g>
		<g style="opacity:0.1;">
			
				<image style="overflow:visible;" width="240" height="151" xlink:href="DE683761D209DD12.png"  transform="matrix(1 0 0 1 1279 386)">
			</image>
		</g>
		<g style="opacity:0.2;">
			
				<image style="overflow:visible;" width="685" height="97" xlink:href="DE683761D209DD13.png"  transform="matrix(1 0 0 1 1234 540)">
			</image>
		</g>
	</g>
	<g style="clip-path:url(#SVGID_2_);">
		<g>
			<path style="fill:#C4EEFF;" d="M916.9,367.441c-4.895,2.507-8.9,9.059-8.9,14.559v190c0,5.5,3.037,6.68,6.749,2.621
				l41.335-45.012c3.712-4.059,6.916-11.879,6.916-17.379V354c0-5.5-4.172-7.948-9.067-5.441L916.9,367.441z"/>
			<path style="fill:none;stroke:#9CE2FF;stroke-width:4;stroke-miterlimit:10;" d="M916.9,367.441
				c-4.895,2.507-8.9,9.059-8.9,14.559v190c0,5.5,3.037,6.68,6.749,2.621l41.335-45.012c3.712-4.059,6.916-11.879,6.916-17.379V354
				c0-5.5-4.172-7.948-9.067-5.441L916.9,367.441z"/>
		</g>
		<g>
			<g>
				<path style="fill:#9EE3FF;" d="M919,568c0,5.522-4.477,10-10,10H-1c-5.523,0-10-4.478-10-10V384c0-5.522,4.477-10,10-10h910
					c5.523,0,10,4.478,10,10V568z"/>
				<path style="fill:none;stroke:#9CE2FF;stroke-width:4;stroke-miterlimit:10;" d="M919,568c0,5.522-4.477,10-10,10H-1
					c-5.523,0-10-4.478-10-10V384c0-5.522,4.477-10,10-10h910c5.523,0,10,4.478,10,10V568z"/>
			</g>
		</g>
		<g>
			<path style="fill:#E8F8FF;" d="M931.824,368.662C927.521,372.088,919.5,375,914,375H-11c-5.5,0-7.537-3.875-4.526-8.479
				l9.841-15.098c3.011-4.604,9.974-8.392,15.474-8.386l942.877,0.965c5.5,0.006,6.479,2.861,2.176,6.287L931.824,368.662z"/>
			<path style="fill:none;stroke:#9CE2FF;stroke-width:4;stroke-miterlimit:10;" d="M931.824,368.662
				C927.521,372.088,919.5,375,914,375H-11c-5.5,0-7.537-3.875-4.526-8.479l9.841-15.098c3.011-4.604,9.974-8.392,15.474-8.386
				l942.877,0.965c5.5,0.006,6.479,2.861,2.176,6.287L931.824,368.662z"/>
		</g>
		<g>
			
				<image style="overflow:visible;" width="504" height="98" xlink:href="DE683761D209DD14.png"  transform="matrix(1 0 0 1 490 308)">
			</image>
		</g>
		<rect x="-11" y="419" style="fill:#E0F8FF;" width="932" height="39"/>
		<rect x="-11" y="419" style="opacity:0.6;fill:#DAE3E6;" width="932" height="9"/>
		<polygon style="fill:#FFFFFF;" points="921,419 921,458 961,424.248 961.5,389 		"/>
		<polygon style="opacity:0.6;fill:#DAE3E6;" points="921,419 921,428 962.666,398 962.5,389 		"/>
	</g>
	<g style="clip-path:url(#SVGID_2_);">
		<g>
			<path style="fill:#C4EEFF;" d="M1055.405-78.062C1050.288-76.049,1046-69.9,1046-64.4v165.378c0,5.5,3.546,7.105,7.757,3.567
				l47.536-39.896c4.211-3.538,7.707-10.933,7.707-16.433V-89.117c0-5.5-4.238-8.352-9.355-6.338L1055.405-78.062z"/>
			<path style="fill:none;stroke:#9CE2FF;stroke-width:4;stroke-miterlimit:10;" d="M1055.405-78.062
				C1050.288-76.049,1046-69.9,1046-64.4v165.378c0,5.5,3.546,7.105,7.757,3.567l47.536-39.896
				c4.211-3.538,7.707-10.933,7.707-16.433V-89.117c0-5.5-4.238-8.352-9.355-6.338L1055.405-78.062z"/>
		</g>
		<g>
			<g>
				<path style="fill:#E0F8FF;" d="M1060,97c0,5.522-4.478,10-10,10H1c-5.523,0-10-4.478-10-10V-63c0-5.522,4.477-10,10-10h1049
					c5.522,0,10,4.478,10,10V97z"/>
			</g>
		</g>
		<g>
			<path style="fill:#E8F8FF;" d="M1073.112-77.191c-4.691,2.87-13.03,5.191-18.53,5.191H-11c-5.5,0-7.083-3.399-3.518-7.587
				L-3.6-92.399c3.565-4.188,10.982-7.604,16.482-7.6L1099-99.129c5.5,0.004,6.161,2.345,1.47,5.215L1073.112-77.191z"/>
			<path style="fill:none;stroke:#9CE2FF;stroke-width:4;stroke-miterlimit:10;" d="M1073.112-77.191
				c-4.691,2.87-13.03,5.191-18.53,5.191H-11c-5.5,0-7.083-3.399-3.518-7.587L-3.6-92.399c3.565-4.188,10.982-7.604,16.482-7.6
				L1099-99.129c5.5,0.004,6.161,2.345,1.47,5.215L1073.112-77.191z"/>
		</g>
		<g>
			
				<image style="overflow:visible;" width="569" height="96" xlink:href="251001235B6CF798.png"  transform="matrix(1 0 0 1 571 -136)">
			</image>
		</g>
	</g>
	<g style="clip-path:url(#SVGID_2_);">
		<path style="fill:#5E6A80;" d="M1781,683.58V562.225l-5,0.271l-5-0.271V683.58c0,0-0.658,4.381,5,4.381
			C1781.657,687.961,1781,683.58,1781,683.58z"/>
		
			<ellipse transform="matrix(1 0.0083 -0.0083 1 4.7769 -14.7714)" style="fill:#5DC4F0;stroke:#70B8D6;stroke-width:4;stroke-miterlimit:10;" cx="1776.752" cy="566.423" rx="88.157" ry="27.591"/>
		
			<ellipse transform="matrix(1 0.0083 -0.0083 1 4.6816 -14.7726)" style="fill:#E8F8FF;stroke:#9CE2FF;stroke-width:4;stroke-miterlimit:10;" cx="1776.847" cy="554.987" rx="88.157" ry="27.591"/>
		
			<ellipse transform="matrix(1 0.0083 -0.0083 1 5.847 -14.7594)" style="opacity:0.1;" cx="1775.847" cy="694.987" rx="88.157" ry="27.591"/>
		<path style="fill:#FFFFFF;" d="M1792.536,536.896c0,0,61.692,1.756,57.038,17.034c-4.654,14.405-43.069,18.771-61.403,17.897
			c-6.984-2.619,18.249-14.503-33.177-24.517C1706.305,537.831,1792.536,536.896,1792.536,536.896z"/>
		<path style="fill:#282D36;" d="M1812.389,690.075c0,0-29.611-12.004-32.07-13.339c-0.003-0.441-1.798,1.957-4.355,2.233
			c-2.557-0.276-4.365-2.675-4.366-2.233c-2.459,1.335-32.056,13.339-32.056,13.339c-4.149,13.083,19.46,18.126,36.407,18.126
			C1794.96,708.201,1816.538,703.158,1812.389,690.075z"/>
		<path style="fill:#3C4452;" d="M1742.771,690.259c0,0,24.883-10.607,26.629-10.607c0,0.873-8.309,10.913-0.443,19.644
			C1768.964,700.168,1745.391,699.994,1742.771,690.259z"/>
	</g>
	<g style="clip-path:url(#SVGID_2_);">
		<path style="fill:#5E6A80;" d="M1586,683.58V562.225l-5,0.271l-5-0.271V683.58c0,0-0.658,4.381,5,4.381
			C1586.657,687.961,1586,683.58,1586,683.58z"/>
		
			<ellipse transform="matrix(1 0.0083 -0.0083 1 4.7701 -13.1481)" style="fill:#5DC4F0;stroke:#70B8D6;stroke-width:4;stroke-miterlimit:10;" cx="1581.752" cy="566.423" rx="88.157" ry="27.591"/>
		
			<ellipse transform="matrix(1 0.0083 -0.0083 1 4.6749 -13.1492)" style="fill:#E8F8FF;stroke:#9CE2FF;stroke-width:4;stroke-miterlimit:10;" cx="1581.847" cy="554.987" rx="88.157" ry="27.591"/>
		
			<ellipse transform="matrix(1 0.0083 -0.0083 1 5.8402 -13.1361)" style="opacity:0.1;" cx="1580.847" cy="694.987" rx="88.157" ry="27.591"/>
		<path style="fill:#FFFFFF;" d="M1597.536,536.896c0,0,61.692,1.756,57.038,17.034c-4.654,14.405-43.069,18.771-61.403,17.897
			c-6.984-2.619,18.249-14.503-33.177-24.517C1511.305,537.831,1597.536,536.896,1597.536,536.896z"/>
		<path style="fill:#282D36;" d="M1617.389,690.075c0,0-29.611-12.004-32.07-13.339c-0.003-0.441-1.798,1.957-4.355,2.233
			c-2.557-0.276-4.365-2.675-4.366-2.233c-2.459,1.335-32.056,13.339-32.056,13.339c-4.149,13.083,19.46,18.126,36.407,18.126
			C1599.96,708.201,1621.538,703.158,1617.389,690.075z"/>
		<path style="fill:#3C4452;" d="M1547.771,690.259c0,0,24.883-10.607,26.629-10.607c0,0.873-8.309,10.913-0.443,19.644
			C1573.964,700.168,1550.391,699.994,1547.771,690.259z"/>
	</g>
	<g style="clip-path:url(#SVGID_2_);">
		<path style="fill:#5E6A80;" d="M1382,683.58V562.225l-5,0.271l-5-0.271V683.58c0,0-0.658,4.381,5,4.381
			C1382.657,687.961,1382,683.58,1382,683.58z"/>
		
			<ellipse transform="matrix(1 0.0083 -0.0083 1 4.7631 -11.4498)" style="fill:#5DC4F0;stroke:#70B8D6;stroke-width:4;stroke-miterlimit:10;" cx="1377.752" cy="566.423" rx="88.157" ry="27.591"/>
		
			<ellipse transform="matrix(1 0.0083 -0.0083 1 4.6678 -11.451)" style="fill:#E8F8FF;stroke:#9CE2FF;stroke-width:4;stroke-miterlimit:10;" cx="1377.847" cy="554.987" rx="88.157" ry="27.591"/>
		
			<ellipse transform="matrix(1 0.0083 -0.0083 1 5.8333 -11.4379)" style="opacity:0.1;" cx="1376.847" cy="694.987" rx="88.157" ry="27.591"/>
		<path style="fill:#FFFFFF;" d="M1389.171,571.828c-6.984-2.619,18.249-14.503-33.177-24.517
			c-48.689-9.48,37.542-10.415,37.542-10.415s61.692,1.756,57.038,17.034C1445.92,568.336,1407.505,572.701,1389.171,571.828"/>
		<path style="fill:#282D36;" d="M1413.389,690.075c0,0-29.611-12.004-32.07-13.339c-0.003-0.441-1.798,1.957-4.355,2.233
			c-2.557-0.276-4.365-2.675-4.366-2.233c-2.459,1.335-32.056,13.339-32.056,13.339c-4.149,13.083,19.46,18.126,36.407,18.126
			C1395.96,708.201,1417.538,703.158,1413.389,690.075z"/>
		<path style="fill:#3C4452;" d="M1343.771,690.259c0,0,24.883-10.607,26.629-10.607c0,0.873-8.309,10.913-0.443,19.644
			C1369.964,700.168,1346.391,699.994,1343.771,690.259z"/>
	</g>
	<g style="clip-path:url(#SVGID_2_);">
		
			<use xlink:href="#New_Symbol_1"  width="149" height="236.489" x="-75" y="-118.489" transform="matrix(1 0 0 -1 112 507)" style="overflow:visible;"/>
	</g>
	<g style="clip-path:url(#SVGID_2_);">
		
			<use xlink:href="#New_Symbol_1"  width="149" height="236.489" id="XMLID_1_" x="-75" y="-118.489" transform="matrix(1 0 0 -1 284 507)" style="overflow:visible;"/>
	</g>
	<g style="clip-path:url(#SVGID_2_);">
		
			<use xlink:href="#New_Symbol_1"  width="149" height="236.489" id="XMLID_5_" x="-75" y="-118.489" transform="matrix(1 0 0 -1 455 507)" style="overflow:visible;"/>
	</g>
	<g style="clip-path:url(#SVGID_2_);">
		
			<use xlink:href="#New_Symbol_1"  width="149" height="236.489" x="-75" y="-118.489" transform="matrix(1 0 0 -1 1776 862)" style="overflow:visible;"/>
	</g>
	<g style="clip-path:url(#SVGID_2_);">
		
			<use xlink:href="#New_Symbol_1"  width="149" height="236.489" x="-75" y="-118.489" transform="matrix(1 0 0 -1 1584 876)" style="overflow:visible;"/>
	</g>
	<g style="clip-path:url(#SVGID_2_);">
		
			<use xlink:href="#New_Symbol_4"  width="104" height="104" x="-52" y="-52" transform="matrix(1 0 0 -1 958 115)" style="overflow:visible;"/>
	</g>
	<g style="clip-path:url(#SVGID_2_);">
		
			<use xlink:href="#New_Symbol_4"  width="104" height="104" id="XMLID_4_" x="-52" y="-52" transform="matrix(1 0 0 -1 853 187)" style="overflow:visible;"/>
	</g>
	<g style="clip-path:url(#SVGID_2_);">
		
			<use xlink:href="#New_Symbol_4"  width="104" height="104" x="-52" y="-52" transform="matrix(1 0 0 -1 963 244)" style="overflow:visible;"/>
	</g>
	<g style="clip-path:url(#SVGID_2_);">
		<path style="fill:#282D36;" d="M1677,952.58V804.225l-5,0.271l-5-0.271V952.58c0,0-0.658,4.381,5,4.381
			C1677.657,956.961,1677,952.58,1677,952.58z"/>
		
			<ellipse transform="matrix(1 0.0083 -0.0083 1 6.5964 -13.898)" style="fill:#5DC4F0;stroke:#70B8D6;stroke-width:4;stroke-miterlimit:10;" cx="1672.752" cy="785.423" rx="88.157" ry="27.591"/>
		
			<ellipse transform="matrix(1 0.0083 -0.0083 1 6.5012 -13.8992)" style="fill:#E8F8FF;stroke:#9CE2FF;stroke-width:4;stroke-miterlimit:10;" cx="1672.847" cy="773.987" rx="88.157" ry="27.591"/>
		
			<ellipse transform="matrix(1 0.0083 -0.0083 1 8.0828 -13.8843)" style="opacity:0.1;" cx="1671.847" cy="963.987" rx="88.157" ry="27.591"/>
		<path style="fill:#FFFFFF;" d="M1688.536,755.896c0,0,61.692,1.756,57.038,17.034c-4.654,14.405-43.069,18.771-61.403,17.897
			c-6.984-2.619,18.249-14.503-33.177-24.517C1602.305,756.831,1688.536,755.896,1688.536,755.896z"/>
		<path style="fill:#282D36;" d="M1708.389,959.075c0,0-29.611-12.004-32.07-13.339c-0.003-0.441-1.798,1.957-4.355,2.233
			c-2.557-0.276-4.365-2.675-4.366-2.233c-2.459,1.335-32.056,13.339-32.056,13.339c-4.149,13.083,19.46,18.126,36.407,18.126
			C1690.96,977.201,1712.538,972.158,1708.389,959.075z"/>
		<path style="fill:#3C4452;" d="M1638.771,959.259c0,0,24.883-10.607,26.629-10.607c0,0.873-8.309,10.913-0.443,19.644
			C1664.964,969.168,1641.391,968.994,1638.771,959.259z"/>
	</g>
	<g style="clip-path:url(#SVGID_2_);">
		
			<use xlink:href="#New_Symbol_1"  width="149" height="236.489" x="-75" y="-118.489" transform="matrix(1 0 0 -1 1677 914)" style="overflow:visible;"/>
	</g>
	<g style="clip-path:url(#SVGID_2_);">
		<path style="fill:#9EE3FF;stroke:#9CE2FF;stroke-width:4;stroke-miterlimit:10;" d="M90.746,316.014
			c0.352-18.271-7.73-22.916-8.433-27.484c-1.054-7.73,0-13.529,0-13.529h-8.726h-0.761h-8.726c0,0,1.054,5.799,0,13.529
			c-0.703,4.568-8.785,9.333-8.433,27.604c0.351,18.271-1.78,36.465-0.012,36.114c0,0,1.397,5.216,17.551,4.268
			c16.153,0.948,17.551-4.312,17.551-4.312C92.526,352.556,90.395,334.285,90.746,316.014z"/>
		<path style="fill:#FA758C;" d="M63.397,270H74v7.681c-10,0.786-12.505-1.909-12.505-1.909L63.397,270z"/>
		<path style="fill:#FA758C;" d="M83.777,270H73v7.681c10,0.786,12.592-1.909,12.592-1.909L83.777,270z"/>
		<ellipse style="fill:#FFA9BC;" cx="73.559" cy="270.478" rx="10.191" ry="1.932"/>
		<path style="fill:#72C2E3;" d="M68,310.358v29.515c0,0,11.5,3.162,24.188-1.404c-0.29-0.339-0.694-30.57-0.694-30.57
			S85,313.169,68,310.358z"/>
	</g>
	<g style="clip-path:url(#SVGID_2_);">
		<path style="fill:#FFA9BC;" d="M117.746,321.014c0.352-18.271-7.73-22.916-8.433-27.484c-1.054-7.73,0-13.529,0-13.529h-8.726
			h-0.761h-8.726c0,0,1.054,5.799,0,13.529c-0.703,4.568-8.785,9.333-8.433,27.604c0.351,18.271-1.78,36.465-0.012,36.114
			c0,0,1.397,5.216,17.551,4.268c16.153,0.948,17.551-4.312,17.551-4.312C119.526,357.556,117.395,339.285,117.746,321.014z"/>
		<path style="fill:#FA758C;" d="M90.397,275H101v7.681c-10,0.786-12.505-1.909-12.505-1.909L90.397,275z"/>
		<path style="fill:#FA758C;" d="M110.777,275H100v7.681c10,0.786,12.592-1.909,12.592-1.909L110.777,275z"/>
		<ellipse style="fill:#FFA9BC;" cx="100.559" cy="275.478" rx="10.191" ry="1.932"/>
		<path style="fill:#FA758C;" d="M95,315.358v29.515c0,0,10.5,3.162,23.188-1.404c-0.29-0.339-0.694-30.57-0.694-30.57
			S112,318.169,95,315.358z"/>
	</g>
	<g style="clip-path:url(#SVGID_2_);">
		<polygon style="fill:#D2F4FF;" points="244,166.766 274.829,150.617 280.702,185.483 		"/>
		<polygon style="fill:#FFFFFF;" points="341.271,55.706 374.058,67.379 352.444,95.361 		"/>
		<polygon style="fill:#CCF3FF;" points="447.274,205.108 461.094,189.133 472.164,207.518 		"/>
		<polygon style="fill:#CCF3FF;" points="127.274,205.108 141.094,189.133 152.164,207.518 		"/>
		<polygon style="fill:#FFABB9;" points="329.83,157.396 343.649,141.421 354.719,159.806 		"/>
		<polygon style="fill:#FF879B;" points="441.456,86.344 455.275,70.368 466.345,88.754 		"/>
		<polygon style="fill:#FFFFFF;" points="425.858,168.873 414.403,151.126 435.156,145.66 		"/>
	</g>
	<g style="clip-path:url(#SVGID_2_);">
		<path style="opacity:0.6;fill:#DAE3E6;" d="M262.504,142h-9.546l2.179-0.802c15.116-3.244,24.741-18.297,21.496-33.415
			l-1.909-8.978c-3.245-15.117-18.13-24.783-33.247-21.539L91.619,109.411c-15.117,3.244-24.741,18.118-21.496,33.235l1.909,8.891
			c3.245,15.117,18.13,24.739,33.247,21.495l79.847-17.14c-2.88,4.666-4.545,10.387-4.545,16.273
			c0,16.904,13.704,30.834,30.609,30.834h51.315c16.905,0,30.609-13.595,30.609-30.5C293.113,155.596,279.41,142,262.504,142z"/>
		<g>
			<path style="fill:#FFFFFF;stroke:#56C1ED;stroke-width:5;stroke-miterlimit:10;" d="M320.5,160.5c0,18.777-15.222,34-34,34h-57
				c-18.778,0-34-15.223-34-34l0,0c0-18.777,15.222-34,34-34h57C305.278,126.5,320.5,141.723,320.5,160.5L320.5,160.5z"/>
			<g>
				<path style="fill:#56C1ED;" d="M225.727,179.375c-1.568,0-2.948-0.223-4.141-0.666c-1.193-0.444-2.171-1.058-2.934-1.842
					c-0.763-0.784-1.384-1.762-1.862-2.935c-0.479-1.172-0.815-2.424-1.009-3.756s-0.292-2.837-0.292-4.516v-10.634
					c0-1.679,0.097-3.184,0.292-4.516s0.531-2.584,1.009-3.756c0.479-1.173,1.099-2.146,1.862-2.924
					c0.763-0.777,1.741-1.388,2.934-1.831c1.193-0.444,2.573-0.666,4.141-0.666c1.734,0,3.232,0.257,4.495,0.77
					c1.262,0.514,2.271,1.27,3.028,2.269c0.756,0.999,1.325,2.157,1.706,3.475c0.382,1.318,0.607,2.858,0.677,4.62
					c0.014,0.264,0.021,0.673,0.021,1.228h-5.327v-1.186c-0.014-0.735-0.042-1.363-0.083-1.884
					c-0.042-0.521-0.118-1.058-0.229-1.612c-0.111-0.555-0.274-1.017-0.489-1.384c-0.215-0.368-0.486-0.708-0.812-1.02
					c-0.326-0.312-0.739-0.542-1.238-0.688s-1.082-0.218-1.748-0.218c-0.86,0-1.599,0.139-2.216,0.416
					c-0.618,0.277-1.1,0.635-1.446,1.071c-0.347,0.438-0.614,1.023-0.801,1.759c-0.188,0.735-0.309,1.453-0.364,2.153
					c-0.056,0.701-0.083,1.564-0.083,2.591v13.318c0,0.888,0.038,1.692,0.114,2.414c0.076,0.722,0.225,1.439,0.447,2.153
					c0.222,0.715,0.51,1.314,0.864,1.801c0.354,0.485,0.825,0.877,1.415,1.176c0.589,0.298,1.28,0.447,2.07,0.447
					c0.791,0,1.471-0.152,2.04-0.458c0.569-0.305,1.016-0.693,1.342-1.165c0.326-0.472,0.583-1.075,0.77-1.811
					c0.187-0.735,0.309-1.45,0.364-2.144c0.055-0.693,0.083-1.498,0.083-2.414v-1.332h5.327v1.332c0,1.929-0.17,3.621-0.51,5.077
					c-0.34,1.457-0.888,2.744-1.644,3.86c-0.756,1.117-1.783,1.967-3.08,2.55C229.122,179.083,227.558,179.375,225.727,179.375z"/>
				<path style="fill:#56C1ED;" d="M236.86,179l7.991-37.291h5.327L258.169,179h-5.327l-1.998-9.322h-6.659L242.187,179H236.86z
					 M244.851,165.682h5.327l-2.664-15.981L244.851,165.682z"/>
				<path style="fill:#56C1ED;" d="M270.884,179.375c-3.357,0-5.92-0.985-7.689-2.955c-1.769-1.97-2.757-4.662-2.965-8.074
					l5.328-1.332c0.263,5.327,2.039,7.991,5.327,7.991c2.664,0,3.995-1.332,3.995-3.996c0-0.79-0.107-1.522-0.322-2.195
					c-0.215-0.673-0.545-1.29-0.989-1.852c-0.444-0.562-0.846-1.013-1.207-1.353c-0.361-0.34-0.854-0.76-1.478-1.26l-6.659-5.327
					c-1.221-0.957-2.195-2.174-2.924-3.651s-1.092-3.16-1.092-5.047c0-2.747,0.853-4.932,2.56-6.555
					c1.706-1.623,3.967-2.435,6.784-2.435c3.024,0,5.428,0.738,7.21,2.216s2.882,3.569,3.298,6.274
					c0.042,0.291,0.09,0.693,0.146,1.207l-5.328,1.331c-0.014-0.235-0.049-0.589-0.104-1.061c-0.236-1.692-0.767-3.049-1.592-4.068
					c-0.826-1.02-2.036-1.529-3.631-1.529c-1.276,0-2.261,0.357-2.955,1.071c-0.694,0.715-1.04,1.71-1.04,2.986
					c0,2.095,0.887,3.85,2.664,5.265l6.659,5.327c3.551,2.872,5.328,6.306,5.328,10.301c0,2.733-0.843,4.869-2.529,6.409
					C275.992,178.604,273.728,179.375,270.884,179.375z"/>
				<path style="fill:#56C1ED;" d="M288.072,179v-32.546h-6.659v-4.745h18.646v4.745h-6.659V179H288.072z"/>
			</g>
		</g>
		<path style="fill:#82225A;stroke:#FF80CA;stroke-width:4;stroke-linecap:round;stroke-linejoin:round;stroke-miterlimit:10;" d="
			M302.194,89.05c3.604,16.792-7.086,33.327-23.877,36.931l-166.461,35.729c-16.791,3.604-33.326-7.087-36.93-23.879l-2.121-9.881
			c-3.604-16.793,7.086-33.326,23.877-36.93l166.461-35.729c16.792-3.604,33.325,7.087,36.93,23.879L302.194,89.05z"/>
		<g>
			<g>
				<g>
					
						<image style="overflow:visible;opacity:0.75;" width="72" height="74" xlink:href="251001235B6CF795.png"  transform="matrix(1 0 0 1 87 87)">
					</image>
					<g>
						<path style="fill:none;stroke:#FF6EC9;stroke-width:4;stroke-linecap:round;stroke-linejoin:round;stroke-miterlimit:10;" d="
							M109.791,146.32l-8.029-34.914c0,0-0.22-5.396,4.849-1.115c2.056,1.848,10.948,11.429,12.074,12.541
							c2.757,3.109,6.24,1.968,7.187-1.313c0.579-2.06,4.056-14.851,4.601-17.735c0.2-2.089,5.063-3.888,5.78,0.713
							c1.216,3.805,7.955,34.59,7.955,34.59"/>
					</g>
				</g>
				<g>
					
						<image style="overflow:visible;opacity:0.75;" width="70" height="70" xlink:href="251001235B6CF796.png"  transform="matrix(1 0 0 1 131 80)">
					</image>
					<g>
						<path style="fill:none;stroke:#FF6EC9;stroke-width:4;stroke-linecap:round;stroke-linejoin:round;stroke-miterlimit:10;" d="
							M176.955,97.691c4.448,2.783,7.834,7.264,9.103,12.782c2.537,11.031-4.349,22.031-15.381,24.567
							c-11.032,2.537-22.031-4.35-24.567-15.381c-2.537-11.031,4.349-22.031,15.38-24.568c3.675-0.845,7.345-0.645,10.701,0.406"/>
					</g>
				</g>
				<g>
					
						<image style="overflow:visible;opacity:0.75;" width="70" height="70" xlink:href="251001235B6CF797.png"  transform="matrix(1 0 0 1 177 70)">
					</image>
					<g>
						<path style="fill:none;stroke:#FF6EC9;stroke-width:4;stroke-linecap:round;stroke-linejoin:round;stroke-miterlimit:10;" d="
							M222.537,87.209c4.448,2.783,7.834,7.265,9.103,12.782c2.537,11.032-4.349,22.031-15.381,24.568s-22.031-4.351-24.567-15.381
							c-2.537-11.032,4.349-22.032,15.38-24.568c3.675-0.845,7.346-0.645,10.701,0.405"/>
					</g>
				</g>
				<g>
					
						<image style="overflow:visible;opacity:0.75;" width="62" height="69" xlink:href="251001235B6CF788.png"  transform="matrix(1 0 0 1 222 61)">
					</image>
					<g>
						<path style="fill:none;stroke:#FF6EC9;stroke-width:4;stroke-linecap:round;stroke-linejoin:round;stroke-miterlimit:10;" d="
							M236.011,77.98l8.698,37.824c0,0,29.336-3.428,24.277-25.423c-3.304-14.557-19.837-15.423-26.406-13.912"/>
					</g>
				</g>
			</g>
		</g>
	</g>
	<g style="clip-path:url(#SVGID_2_);">
		<polygon style="fill:#D2F4FF;" points="524,179.766 554.829,163.617 560.702,198.483 		"/>
		<polygon style="fill:#FFFFFF;" points="568.271,55.706 601.058,67.379 579.444,95.361 		"/>
		<polygon style="fill:#CCF3FF;" points="727.274,218.108 741.094,202.133 752.164,220.518 		"/>
		<polygon style="fill:#FFABB9;" points="605.83,146.396 619.649,130.421 630.719,148.806 		"/>
		<polygon style="fill:#FF879B;" points="707.456,115.344 721.275,99.368 732.345,117.754 		"/>
		<polygon style="fill:#FFFFFF;" points="705.858,181.873 694.403,164.126 715.156,158.66 		"/>
	</g>
</g>
</svg>
