<?xml version="1.0" encoding="iso-8859-1"?>
<!-- Generator: Adobe Illustrator 16.0.0, SVG Export Plug-In . SVG Version: 6.00 Build 0)  -->
<!DOCTYPE svg PUBLIC "-//W3C//DTD SVG 1.1//EN" "http://www.w3.org/Graphics/SVG/1.1/DTD/svg11.dtd">
<svg version="1.1" xmlns="http://www.w3.org/2000/svg" xmlns:xlink="http://www.w3.org/1999/xlink" x="0px" y="0px" width="258px"
	 height="346.166px" viewBox="0 0 258 346.166" style="enable-background:new 0 0 258 346.166;" xml:space="preserve">
<g id="catWomanMaskH">
	<rect x="-0.333" y="0.666" style="fill:none;" width="99" height="146"/>
	<path style="fill:#30304F;stroke:#1B2536;stroke-width:4;stroke-linecap:round;stroke-linejoin:round;stroke-miterlimit:10;" d="
		M69.708,58.339c-0.019,0.002-8.248-5.481-17.008-5.481c-9.096,0-17.31,5.483-17.327,5.481c-15-2.332-26.466-14.449-25.143-8.415
		c1.321,6.032,11.08,21.5,10.846,26.725c-1.54,13.062,8.991,33.527,8.991,33.527c-2.653-21.669,21.795-11.955,21.795-11.955
		s25.417-9.714,22.134,12.895c0,0,11.316-21.405,9.776-34.467c-0.235-5.225,9.5-20.693,10.821-26.725
		C95.917,43.89,84.707,56.007,69.708,58.339z M29.976,92.096c0,0-4.779-17.571,11.368-24.49c0,0,1.607,8.816,9.992,19.195
		C51.335,86.801,36.281,89.554,29.976,92.096z M74.728,92.096c-6.303-2.542-21.359-5.295-21.359-5.295
		c8.384-10.378,9.993-19.195,9.993-19.195C79.942,74.656,74.728,92.096,74.728,92.096z"/>
</g>
<g id="Layer_1">
</g>
</svg>
