<?xml version="1.0" encoding="iso-8859-1"?>
<!-- Generator: Adobe Illustrator 16.0.0, SVG Export Plug-In . SVG Version: 6.00 Build 0)  -->
<!DOCTYPE svg PUBLIC "-//W3C//DTD SVG 1.1//EN" "http://www.w3.org/Graphics/SVG/1.1/DTD/svg11.dtd">
<svg version="1.1" id="Layer_1" xmlns="http://www.w3.org/2000/svg" xmlns:xlink="http://www.w3.org/1999/xlink" x="0px" y="0px"
	 width="258px" height="346.166px" viewBox="0 0 258 346.166" style="enable-background:new 0 0 258 346.166;" xml:space="preserve"
	>
<g id="catWomanBodyH">
	<rect x="-0.333" y="-0.334" style="fill:none;" width="258" height="347"/>
	<g>
		<path style="fill:#30304F;stroke:#1B2536;stroke-width:4;stroke-linecap:round;stroke-linejoin:round;stroke-miterlimit:10;" d="
			M150.669,250.338c-7.599-7.139-10.659-18.157-12.999-26.58c-4.408-15.864-6.312-17.224-11.928-15.754
			c-3.139,0.821-6.349-1.058-7.17-4.194c-0.821-3.139,1.059-6.351,4.196-7.17c10.226-2.677,16.112,1.954,19.244,6.312
			c3.372,4.687,5.123,10.987,6.979,17.661c4.49,16.169,8.281,25.933,23.025,25.201c9.51-0.472,11.017-5.42,11.582-23.44
			c0.422-13.478,0.949-30.249,14.659-39.681c15.173-10.435,28.587-14.019,38.795-10.362c7.912,2.83,13.458,9.584,16.486,20.073
			c0.897,3.115-0.897,6.371-4.017,7.271c-3.117,0.897-6.373-0.896-7.271-4.014c-1.922-6.656-5.001-10.785-9.158-12.271
			c-6.409-2.296-16.417,0.896-28.178,8.983c-8.812,6.062-9.185,17.867-9.576,30.368c-0.251,8.019-0.489,15.592-3.096,21.9
			c-3.341,8.082-9.95,12.426-19.647,12.904C162.609,258.041,155.66,255.026,150.669,250.338z"/>
		<path style="fill:#30304F;stroke:#1B2536;stroke-width:4;stroke-linecap:round;stroke-linejoin:round;stroke-miterlimit:10;" d="
			M185.236,143.775c-4.166-6.947-31.826-45.559-46.336-45.824c-16.288,0.266-14.852-7.471-14.241-8.033
			c8.833-8.14,11.998-21.311,11.998-32.959c0-16.477-11.536-29.828-27.96-29.854c-16.424,0.026-27.968,13.394-27.968,29.871
			c0,11.647,2.352,24.803,11.186,32.942c0.655,0.604-0.285,6.633-16.069,9.062c-19.032,2.932-43.059,44.09-42.481,52.172
			c0.431,8.984,16.127,11.745,17.881,0.863c0.067-0.522,25.604-21.843,25.604-21.843c0,10.556,11.959,34.833,5.263,45.242
			c-9.196,14.298-13.933,39.575-10.333,58.194c3.271,16.924,5.408,80.291,5.408,80.341c0,6.069,2.229,10.782,8.299,10.782
			c6.069,0,8.3-5.023,8.3-11.092c0-0.472,7.458-71.103,12.706-93.238c0.336-1.412,3.937-1.451,4.271-0.037
			c5.249,22.136,14.625,92.707,14.625,93.176c0,6.07,4.921,10.988,10.99,10.988c6.071,0,7.403-4.529,7.403-10.598
			c0-0.052,2.442-61.371,1.694-80.322s0.058-48.351-11.332-57.631c-6.997-5.7,3.844-29.215,5.363-46.256
			c8.694,9.182,29.182,22.418,31.585,25.055C178.779,162.678,190.045,151.38,185.236,143.775z"/>
		<path style="fill:#242438;stroke:#1B2536;stroke-width:4;stroke-linecap:round;stroke-linejoin:round;stroke-miterlimit:10;" d="
			M81.733,167.617c0,0,31.311,13.539,53.113-1.981c0.246-1.016,7.127,17.813,8.743,28.379c-0.629,0.17-34.894,11.064-34.894,11.064
			l-34.691-11.064C74.005,194.015,75.688,180.205,81.733,167.617z"/>
		<path style="fill:#242438;stroke:#1B2536;stroke-width:4;stroke-linecap:round;stroke-linejoin:round;stroke-miterlimit:10;" d="
			M206.854,178.498l-0.006,0.006c0,0-25.979-15.407-32.649-21.586c-12.772-9.647,4.278-22.446,12.749-17.353
			c11.623,6.989,31.311,25.395,31.311,25.395l0.01,0.013c0.885,1.052,1.941,2.554,2.432,4.235c1.337,4.588-1.502,9.348-6.09,10.682
			C211.916,180.674,209.033,180.133,206.854,178.498z"/>
		
			<polygon style="fill:#242438;stroke:#1B2536;stroke-width:4;stroke-linecap:round;stroke-linejoin:round;stroke-miterlimit:10;" points="
			148.428,140.153 157.854,125.275 172.879,122.922 194.259,148.217 184,160.404 		"/>
		<path style="fill:#242438;stroke:#1B2536;stroke-width:4;stroke-linecap:round;stroke-linejoin:round;stroke-miterlimit:10;" d="
			M97.178,339.715c6.726-8.748,1.422-21.758,0.932-25.88c-2.585-21.727,3.836-71.738,3.836-71.738s-4.617,0.661-16.103,0.661
			c-10.181,0-13.092-0.937-13.092-0.937c0.634,30.572,7.754,67.085-1.41,76.216c-5.408,7.653-5.444,16.68-1.598,21.678
			c0,0,5.645,2.132,10.22,2.123C84.497,341.828,97.178,339.715,97.178,339.715z"/>
		<path style="fill:#242438;stroke:#1B2536;stroke-width:4;stroke-linecap:round;stroke-linejoin:round;stroke-miterlimit:10;" d="
			M122.178,339.715c-6.727-8.748-1.422-21.758-0.932-25.88c2.585-21.727-5.754-71.738-5.754-71.738s4.617,0.661,16.104,0.661
			c10.18,0,13.092-0.937,13.092-0.937c-0.635,30.572-5.836,67.085,3.328,76.216c5.407,7.653,5.443,16.68,1.598,21.678
			c0,0-5.646,2.132-10.221,2.123C134.857,341.828,122.178,339.715,122.178,339.715z"/>
		<path style="fill:#242438;stroke:#1B2536;stroke-width:4;stroke-linecap:round;stroke-linejoin:round;stroke-miterlimit:10;" d="
			M15.403,124.34l-0.009,0.004c0,0,9.906,23.356,14.636,31.124c6.918,14.434,22.309,3.678,19.001-5.638
			c-4.54-12.783-17.625-33.863-17.625-33.863l0.008,0.018c-2.291-0.777-2.256-2.273-3.808-3.092
			c-4.229-2.217-9.634-0.521-11.854,3.709C14.449,119.085,14.264,121.9,15.403,124.34z"/>
		
			<polygon style="fill:#242438;stroke:#1B2536;stroke-width:4;stroke-linecap:round;stroke-linejoin:round;stroke-miterlimit:10;" points="
			70.763,137.609 58.781,124.645 43.579,125.07 34.333,146.333 41.667,161.508 		"/>
		<path style="fill:#242438;" d="M121.92,91.146c-0.561,0.562-7.115,3.489-12.33,2.987c0.002-0.088,0.003-0.146,0.004-0.146
			c-0.159,0.035-0.323,0.062-0.493,0.087c-0.169-0.024-0.333-0.052-0.491-0.087c0,0,0.001,0.059,0.003,0.146
			c-5.216,0.502-14.46-2.426-15.021-2.987c0.299,3.889-2.925,5.684-2.925,5.684c10.479-0.633,17.133,12.194,17.133,24.456
			c0,19.541-3.174,48.38-3.174,48.38h4.292h4.658c0,0-3.173-28.839-3.173-48.38c0-12.262,3.962-25.419,14.441-24.788
			C124.845,96.499,121.62,95.035,121.92,91.146z"/>
		<path style="fill:#242438;stroke:#1B2536;stroke-width:4;stroke-linecap:round;stroke-linejoin:round;stroke-miterlimit:10;" d="
			M202.139,171.059c0,0,2.161,6.276,6.986,8.547c3.898,1.838,6.99,1.135,8.482,2.27c0.014,0.768,0.457,5.604,1.86,8.02
			c0.425,1.897,5.034,1.881,3.685-1.893c0,0,5.604,2.619,3.379-2.947c0.219-0.303,4.941,2.144,3.143-3.356
			c0,0,4.363,1.836,2.494-3.23c0,0-1.961-8.012-4.064-9.52c-1.205-0.867-3.818-2.48-5.183-3.842
			c-2.669-2.664-7.78-1.604-10.751-4.585C210.766,159.105,202.139,171.059,202.139,171.059z"/>
		<path style="fill:#242438;stroke:#1B2536;stroke-width:4;stroke-linecap:round;stroke-linejoin:round;stroke-miterlimit:10;" d="
			M30.582,116.093c0,0,5.159-6.038,4.133-9.233c-1.027-3.195-2.209-4.408-5.604-3.276c0.028,0.03,1.185-11.112,1.373-14.446
			c0.261-3.105-5.728-6.002-5.833,0.561c0,0-0.751,5.125-1.221,7.542c-0.65,3.3-2.257,3.647-3.341,0.275
			c-0.323-1.911-1.603-6.622-1.74-8.399c-0.37-4.771-6.504-3.199-6.021,1.321c0.647,2.372,3.282,10.728,3.282,10.728
			s-2.106-2.848-4.812-0.3c-1.484,1.651-2.452,3.473-3.899,5.952c-1.346,2.279,3.223,9.541,9.382,14.948
			C16.532,121.85,28.617,123.705,30.582,116.093z"/>
		<path style="fill:#242438;stroke:#1B2536;stroke-width:4;stroke-linecap:round;stroke-linejoin:round;stroke-miterlimit:10;" d="
			M33.789,110.859c-1.153,2.015-3.44,6.437-7.97,3.678c-1.388-1.783-0.729-6.951,3.291-10.954
			C30.644,102.057,37.714,103.997,33.789,110.859z"/>
		<path style="fill:#242438;stroke:#1B2536;stroke-width:4;stroke-linecap:round;stroke-linejoin:round;stroke-miterlimit:10;" d="
			M14.046,97.668c1.722,0.959,5.492,2.854,3.289,6.875c-1.462,1.258-5.819,0.803-9.284-2.614
			C6.731,100.627,8.185,94.402,14.046,97.668z"/>
		<path style="fill:#242438;stroke:#1B2536;stroke-width:4;stroke-linecap:round;stroke-linejoin:round;stroke-miterlimit:10;" d="
			M10.22,103.428c1.722,0.958,5.491,2.853,3.288,6.875c-1.461,1.256-5.818,0.805-9.283-2.614
			C2.905,106.387,4.357,100.162,10.22,103.428z"/>
		<path style="fill:#FF4553;" d="M126.543,114.148c-1.501-2.422-4.851-3.043-6.467-1.352c-2.854,3.779,1.732,7.146,4.239,11.309
			c0.624,1.035,2.206,4.328,2.206,4.328s1.541-3.293,2.165-4.328c2.507-4.162,7.188-7.529,4.335-11.307
			C131.404,111.105,128.391,111.315,126.543,114.148"/>
	</g>
</g>
<g id="Layer_1_1_">
</g>
</svg>
