<?xml version="1.0" encoding="iso-8859-1"?>
<!-- Generator: Adobe Illustrator 16.0.0, SVG Export Plug-In . SVG Version: 6.00 Build 0)  -->
<!DOCTYPE svg PUBLIC "-//W3C//DTD SVG 1.1//EN" "http://www.w3.org/Graphics/SVG/1.1/DTD/svg11.dtd">
<svg version="1.1" xmlns="http://www.w3.org/2000/svg" xmlns:xlink="http://www.w3.org/1999/xlink" x="0px" y="0px" width="258px"
	 height="346.166px" viewBox="0 0 258 346.166" style="enable-background:new 0 0 258 346.166;" xml:space="preserve">
<g id="catWomanMask">
	<rect x="-0.333" y="0.666" style="fill:none;" width="99" height="146"/>
	<path style="fill:#30304F;stroke:#1B2536;stroke-width:4;stroke-linecap:round;stroke-linejoin:round;stroke-miterlimit:10;" d="
		M69.126,56.761c-0.019,0.002-7.998-5.314-16.489-5.314c-8.819,0-16.781,5.316-16.799,5.314C21.297,54.5,7.318,54.527,8.6,60.375
		c1.282,5.848,13.605,9.072,13.379,14.137c-1.493,12.663,7.742,32.503,7.742,32.503c-2.573-14.534,22.916-17.213,22.916-17.213
		s23.104,3.675,21.618,18.125c0,0,9.997-20.751,8.505-33.414c-0.228-5.065,13.18-11.745,14.461-17.592
		C98.503,51.07,83.667,54.5,69.126,56.761z M30.608,89.487c0,0-4.633-17.035,11.02-23.742c0,0,1.558,8.547,9.687,18.609
		C51.314,84.354,36.719,87.022,30.608,89.487z M73.994,89.487c-6.111-2.465-20.707-5.133-20.707-5.133
		c8.129-10.062,9.687-18.609,9.687-18.609C79.046,72.579,73.994,89.487,73.994,89.487z"/>
</g>
<g id="Layer_1">
</g>
</svg>
