<?xml version="1.0" encoding="utf-8"?>
<!-- Generator: Adobe Illustrator 16.0.0, SVG Export Plug-In . SVG Version: 6.00 Build 0)  -->
<!DOCTYPE svg PUBLIC "-//W3C//DTD SVG 1.1//EN" "http://www.w3.org/Graphics/SVG/1.1/DTD/svg11.dtd">
<svg version="1.1" id="Layer_1" xmlns="http://www.w3.org/2000/svg" xmlns:xlink="http://www.w3.org/1999/xlink" x="0px" y="0px"
	 width="83px" height="89px" viewBox="0 0 83 89" enable-background="new 0 0 83 89" xml:space="preserve">
<g>
	<g>
		<g>
			<path opacity="0.6" fill="#F9F900" d="M68.924,36C67.055,6.568,41.448,10.714,39.926,10.986
				C38.403,10.714,12.797,6.568,10.928,36C9.666,61.667,25.333,66.892,25.333,66.892L30.667,84h9.185H40h10.185l4.334-17.108
				C54.519,66.892,70.186,61.667,68.924,36z"/>
			<path fill="none" stroke="#44484F" stroke-width="4" stroke-linecap="round" stroke-linejoin="round" stroke-miterlimit="10" d="
				M68.924,36C67.055,6.568,41.448,10.714,39.926,10.986C38.403,10.714,12.797,6.568,10.928,36
				C9.666,61.667,25.333,66.892,25.333,66.892L30.667,84h9.185H40h10.185l4.334-17.108C54.519,66.892,70.186,61.667,68.924,36z"/>
		</g>
	</g>
</g>
<path fill="#ED1C24" stroke="#44484F" stroke-width="4" stroke-miterlimit="10" d="M72,32c0,0-0.334-26.667-21.334-30
	C50.666,1.667,40,2,40,2S29.334,1.667,29.334,2C8.334,5.333,8,32,8,32l-6,3v16.667L8,55l12,21h8l-1.652-9.462l-10.355-18.95
	l5.342-7.921l-3.967-12l10.633-7L33,28h7h7l5-7.333l10.633,7l-3.967,12l5.342,7.921l-10.355,18.95L52,76h8l12-21l6-3.333V35L72,32z"
	/>
</svg>
