<?xml version="1.0" encoding="iso-8859-1"?>
<!-- Generator: Adobe Illustrator 16.0.0, SVG Export Plug-In . SVG Version: 6.00 Build 0)  -->
<!DOCTYPE svg PUBLIC "-//W3C//DTD SVG 1.1//EN" "http://www.w3.org/Graphics/SVG/1.1/DTD/svg11.dtd">
<svg version="1.1" id="Layer_1" xmlns="http://www.w3.org/2000/svg" xmlns:xlink="http://www.w3.org/1999/xlink" x="0px" y="0px"
	 width="258px" height="346.166px" viewBox="0 0 258 346.166" style="enable-background:new 0 0 258 346.166;" xml:space="preserve"
	>
<g id="ironmanBodyH">
	<rect x="-0.333" y="-0.334" style="fill:none;" width="258" height="347"/>
	<path style="fill:#ED1C24;stroke:#1B2536;stroke-width:4;stroke-miterlimit:10;" d="M186.498,153.136
		c-4.09-6.816-21.334-32.662-25.055-38.227c-0.984-8.304-8.045-14.742-16.611-14.742c-1.951,0-3.816,0.351-5.559,0.965
		c-7.813-3.185-14.57-7.329-13.975-7.88c8.667-7.988,11.771-20.911,11.771-32.338c0-16.167-11.317-29.266-27.433-29.293
		c-16.114,0.027-27.44,13.142-27.44,29.309c0,11.429,2.307,24.334,10.974,32.322c0.643,0.592-7.137,5.631-15.767,8.891
		c-4.687-1.339-9.913-0.636-14.214,2.379c-7.014,4.92-9.098,14.245-5.137,21.609c0.151,6.69,0.871,37.754,1.437,45.684
		c0.422,8.816,15.822,11.525,17.544,0.847c0.066-0.512,0.2-1.071,0.383-2.365c0.392,3.59,0.736,6.368,0.997,9.368h-0.947
		c0,0-3.317,36.33-4.052,54.927c-0.732,18.591,3.788,77.657,3.788,77.706c0,5.955,4.828,10.491,10.784,10.491
		c5.955,0,10.784-4.974,10.784-10.927c0-0.463,3.554-68.844,8.704-90.564c0.329-1.385,3.861-1.434,4.189-0.046
		c5.15,21.718,8.704,90.015,8.704,90.474c0,5.957,4.829,10.78,10.784,10.78c5.955,0,10.783-4.448,10.783-10.401
		c0-0.051,4.521-58.92,3.787-77.513c-0.733-18.595-4.053-54.927-4.053-54.927h-0.945c0.957-9,3.022-27.661,4.515-44.381
		c8.53,9.008,25.02,26.238,27.38,28.823C180.16,171.861,191.214,160.597,186.498,153.136z"/>
	<path style="fill:#ED1C24;stroke:#1B2536;stroke-width:4;stroke-linecap:round;stroke-linejoin:round;stroke-miterlimit:10;" d="
		M153.509,184.644l-8.952-13.9c0,0-1.621,1.201-3.592,2.619c-0.674,0.485-0.51-0.756-3.104,0.021
		c-5.271,1.574-2.666,3.908-3.254,4.312c-1.004,0.683,0.527-0.293,0,0c-2.17,1.189-4.325,3.357-3.086,5.966
		c1.304,2.118,4.015,0.491,4.015,0.491s-3.951,2.324-2.093,5.113c0.931,1.24,5.502-0.774,5.502-0.774s-3.092,2.184-1.854,4.041
		c1.311,2.004,5.715-0.015,5.715-0.015s-2.287,0.86-0.065,2.713c1.911,0.924,10.465-2.885,9.426-5.396
		c-1.204-2.905-2.995-0.354-2.995-0.354L153.509,184.644z"/>
	<path style="fill:#ED1C24;stroke:#1B2536;stroke-width:4;stroke-miterlimit:10;" d="M144.164,170.749l-0.004-0.006
		c0,0,19.166-15.691,26.816-20.284c12.592-9.385,20.938,7.128,13.817,13.71c-9.772,9.034-30.839,21.498-30.839,21.498h-0.002
		c-1.336,0-2.934,0.854-4.651,0.854c-4.688,0-8.485-4.071-8.485-8.758C140.816,175.01,142.133,172.297,144.164,170.749z"/>
	<path style="fill:#ED1C24;stroke:#1B2536;stroke-width:4;stroke-linecap:round;stroke-linejoin:round;stroke-miterlimit:10;" d="
		M62.965,208.323l16.441-1.749c0,0,0.083,2.016,0.215,4.438c0.044,0.828,0.908-0.078,1.932,2.43
		c2.078,5.092-1.372,4.527-1.315,5.238c0.098,1.211-0.106-0.592,0,0c0.435,2.438,0.098,5.478-2.71,6.146
		c-2.467,0.316-2.9-2.816-2.9-2.816s0.668,4.534-2.67,4.838c-1.549,0.055-2.848-4.771-2.848-4.771s0.24,3.778-1.985,3.978
		c-2.381,0.237-3.576-4.457-3.576-4.457s0.767,2.319-2.07,1.754c-1.918-0.91-4.319-9.959-1.712-10.726
		c3.02-0.887,2.155,2.108,2.155,2.108L62.965,208.323z"/>
	<path style="fill:#ED1C24;stroke:#1B2536;stroke-width:4;stroke-miterlimit:10;" d="M79.631,206.666h0.007
		c0,0,0.201-24.663-1.024-33.501c-0.593-15.693-18.792-11.901-19.451-2.228c-0.902,13.28,2.503,37.479,2.503,37.479v-0.021
		c2,1.596,1.289,2.93,2.368,4.27c2.939,3.648,8.539,4.001,12.189,1.061C78.367,211.998,79.705,209.666,79.631,206.666z"/>
	<polygon style="fill:#F9F900;stroke:#1B2536;stroke-width:4;stroke-miterlimit:10;" points="142.113,136.079 153.509,122.666 
		168.43,122.666 185.314,150.85 165.35,159.341 	"/>
	<polygon style="fill:#F9F900;stroke:#1B2536;stroke-width:4;stroke-miterlimit:10;" points="83.868,132.83 67.008,128.854 
		54.875,137.541 58.218,169.988 78.312,166.499 	"/>
	<circle style="fill:#C2CFCF;" cx="110.504" cy="130.12" r="11.315"/>
	<circle style="fill:#FFFFFF;" cx="110.503" cy="130.12" r="7.363"/>
	<polygon style="fill:#F9F900;stroke:#1B2536;stroke-width:4;stroke-miterlimit:10;" points="88.905,212.885 84.875,236.146 
		73.34,239.878 73.442,246.337 83.868,248.681 89.535,263.351 101.38,268.631 105.998,228.979 99.189,213.188 	"/>
	<polygon style="fill:#F9F900;stroke:#1B2536;stroke-width:4;stroke-miterlimit:10;" points="131.562,212.91 135.057,236.258 
		146.503,240.252 146.252,246.708 135.775,248.812 129.771,263.349 117.809,268.354 114.104,228.606 121.273,212.979 	"/>
	
		<polygon style="fill:#ED1C24;stroke:#1B2536;stroke-width:4;stroke-linecap:round;stroke-linejoin:round;stroke-miterlimit:10;" points="
		74.219,311.319 66.667,307.362 66.667,294.159 74.001,290.261 	"/>
	<path style="fill:#ED1C24;stroke:#1B2536;stroke-width:4;stroke-linecap:round;stroke-linejoin:round;stroke-miterlimit:10;" d="
		M108.071,335.289c2.271-6.358-2.978-17.565-3.896-21.851c-1.319-6.162,0-31.772,0-31.772H73.368c0,0,1.491,26.241-1.26,36.215
		c-5.712,8.082-6.253,14.062-4.468,17.765c-0.502,0.721-0.801,1.613-0.801,2.56c0,2.46,1.996,4.312,4.456,4.312
		c1.838,0,3.414-0.85,4.095-2.85h0.612c0.682,2,2.257,2.859,4.096,2.859c1.737,0,3.227-0.928,3.961-2.379
		c0.735,1.451,2.224,2.355,3.961,2.355c1.851,0,3.437-0.837,4.11-2.837h0.581c0.674,2,2.261,2.876,4.111,2.876
		c1.738,0,3.227-0.934,3.961-2.387c0.736,1.453,2.225,2.49,3.961,2.49c2.462,0,4.456-1.979,4.456-4.438
		C109.199,337.078,108.765,336.075,108.071,335.289z"/>
	
		<polygon style="fill:#ED1C24;stroke:#1B2536;stroke-width:4;stroke-linecap:round;stroke-linejoin:round;stroke-miterlimit:10;" points="
		146.186,290.261 153.666,294.218 153.666,307.42 146.367,311.319 	"/>
	<path style="fill:#ED1C24;stroke:#1B2536;stroke-width:4;stroke-linecap:round;stroke-linejoin:round;stroke-miterlimit:10;" d="
		M112.753,335.289c-2.271-6.358,2.977-17.565,3.895-21.851c1.321-6.162,0-31.772,0-31.772h30.808c0,0-1.49,26.241,1.261,36.215
		c5.713,8.082,6.252,14.062,4.467,17.765c0.504,0.721,0.803,1.613,0.803,2.56c0,2.46-1.996,4.312-4.457,4.312
		c-1.838,0-3.412-0.85-4.094-2.85h-0.613c-0.682,2-2.258,2.859-4.094,2.859c-1.74,0-3.228-0.928-3.963-2.379
		c-0.734,1.451-2.225,2.355-3.959,2.355c-1.854,0-3.438-0.837-4.112-2.837h-0.58c-0.674,2-2.261,2.876-4.111,2.876
		c-1.737,0-3.227-0.934-3.96-2.387c-0.736,1.453-2.226,2.49-3.961,2.49c-2.462,0-4.457-1.979-4.457-4.438
		C111.624,337.078,112.059,336.075,112.753,335.289z"/>
</g>
<g id="Layer_1_1_">
</g>
</svg>
