<?xml version="1.0" encoding="utf-8"?>
<!-- Generator: Adobe Illustrator 16.0.0, SVG Export Plug-In . SVG Version: 6.00 Build 0)  -->
<!DOCTYPE svg PUBLIC "-//W3C//DTD SVG 1.1//EN" "http://www.w3.org/Graphics/SVG/1.1/DTD/svg11.dtd">
<svg version="1.1" id="Layer_1" xmlns="http://www.w3.org/2000/svg" xmlns:xlink="http://www.w3.org/1999/xlink" x="0px" y="0px"
	 width="154.965px" height="363.881px" viewBox="0 0 154.965 363.881" enable-background="new 0 0 154.965 363.881"
	 xml:space="preserve">
<path fill="#ED1C24" stroke="#44484F" stroke-width="4" stroke-miterlimit="10" d="M150.491,142.665
	c-4.646-7.744-24.237-37.108-28.463-43.43c-1.119-9.434-9.14-16.749-18.874-16.749c-2.217,0-4.335,0.398-6.313,1.097
	c-8.879-3.616-16.556-8.325-15.876-8.952c9.847-9.074,13.374-23.756,13.374-36.739c0-18.367-12.859-33.249-31.167-33.279
	c-18.308,0.03-31.176,14.93-31.176,33.297c0,12.983,2.621,27.647,12.469,36.722c0.73,0.674-8.108,6.398-17.913,10.102
	c-5.324-1.521-11.262-0.723-16.148,2.704c-7.97,5.589-10.337,16.184-5.837,24.55c0.171,7.601,0.989,42.893,1.632,51.9
	c0.48,10.017,17.977,13.094,19.933,0.963c0.075-0.582,0.228-1.68,0.436-3.149c0.445,4.079,0.058,10.181,0.058,10.181
	s-3.77,41.738-4.604,62.863c-0.832,21.124,4.304,88.46,4.304,88.515c0,6.766,5.485,12.036,12.251,12.036s12.252-5.594,12.252-12.359
	c0-0.523,4.037-78.183,9.889-102.859c0.374-1.574,4.387-1.614,4.76-0.039c5.852,24.675,9.89,102.272,9.89,102.796
	c0,6.767,5.485,12.249,12.251,12.249c6.767,0,12.252-5.05,12.252-11.814c0-0.056,5.136-67.399,4.303-88.523
	c-0.834-21.125-4.604-62.863-4.604-62.863s2.358-30.963,4.054-49.959c9.691,10.235,28.425,30.038,31.105,32.976
	C143.292,163.707,155.85,151.142,150.491,142.665z"/>
<circle fill="#C2CFCF" cx="64.154" cy="116.516" r="12.855"/>
<circle fill="#FFFFFF" cx="64.154" cy="116.516" r="8.365"/>
<polygon fill="#F9F900" stroke="#44484F" stroke-width="4" stroke-miterlimit="10" points="39.615,210.545 35.037,236.973 
	21.932,241.211 22.049,248.551 33.893,251.212 40.332,267.879 53.789,273.879 59.035,228.828 51.299,210.892 "/>
<polygon fill="#F9F900" stroke="#44484F" stroke-width="4" stroke-miterlimit="10" points="88.078,210.573 92.049,237.099 
	104.054,241.637 103.768,248.973 92.866,251.36 86.046,267.876 72.454,273.565 68.244,228.406 76.39,210.651 "/>
<path fill="#ED1C24" stroke="#44484F" stroke-width="4" stroke-linecap="round" stroke-linejoin="round" stroke-miterlimit="10" d="
	M113.013,178.458l-10.172-15.791c0,0-1.842,1.363-4.079,2.974c-0.766,0.552-0.579-0.858-3.528,0.024
	c-5.985,1.789-3.027,4.44-3.696,4.897c-1.14,0.776,0.601-0.33,0,0c-2.465,1.352-4.913,3.816-3.505,6.778
	c1.48,2.407,4.561,0.559,4.561,0.559s-4.489,2.641-2.377,5.81c1.057,1.408,6.25-0.881,6.25-0.881s-3.513,2.48-2.104,4.592
	c1.488,2.274,6.493-0.015,6.493-0.015s-2.6,0.976-0.076,3.081c2.172,1.049,11.89-3.279,10.709-6.132
	c-1.368-3.303-3.403-0.402-3.403-0.402L113.013,178.458z"/>
<path fill="#ED1C24" stroke="#44484F" stroke-width="4" stroke-miterlimit="10" d="M102.396,162.674l-0.005-0.007
	c0,0,21.775-17.828,30.468-23.044c14.307-10.663,23.788,7.726,15.697,15.204c-11.103,10.264-35.035,24.054-35.035,24.054h-0.002
	c-1.518,1-3.332,1.338-5.284,1.338c-5.326,0-9.641-4.438-9.641-9.763C98.594,167.329,100.089,164.435,102.396,162.674z"/>
<path fill="#ED1C24" stroke="#44484F" stroke-width="4" stroke-linecap="round" stroke-linejoin="round" stroke-miterlimit="10" d="
	M10.146,205.363l18.679-1.988c0,0.001,0.095,2.291,0.244,5.043c0.051,0.942,1.031-0.088,2.195,2.763
	c2.361,5.783-1.559,5.143-1.494,5.951c0.111,1.375-0.12-0.674,0,0c0.494,2.767,0.111,6.22-3.079,6.981
	c-2.803,0.359-3.296-3.199-3.296-3.199s0.76,5.151-3.033,5.494c-1.76,0.062-3.235-5.418-3.235-5.418s0.272,4.292-2.255,4.519
	c-2.705,0.269-4.062-5.063-4.062-5.063s0.871,2.635-2.352,1.992c-2.18-1.034-4.907-11.316-1.945-12.186
	c3.431-1.008,2.448,2.396,2.448,2.396L10.146,205.363z"/>
<path fill="#ED1C24" stroke="#44484F" stroke-width="4" stroke-miterlimit="10" d="M29.08,203.881h0.008
	c0,0,0.229-28.22-1.164-38.261c-0.674-17.83-21.202-13.622-21.95-2.63c-1.025,15.086,2.991,42.478,2.991,42.478v-0.023
	c2,1.812,1.316,3.328,2.543,4.85c3.34,4.146,9.628,4.747,13.774,1.406C27.717,209.738,29.164,206.881,29.08,203.881z"/>
<polygon fill="#F9F900" stroke="#44484F" stroke-width="4" stroke-miterlimit="10" points="100.066,123.701 113.013,108.881 
	129.965,108.881 149.148,140.483 126.465,150.131 "/>
<polygon fill="#F9F900" stroke="#44484F" stroke-width="4" stroke-miterlimit="10" points="33.893,119.594 14.738,115.079 
	0.954,124.947 4.752,161.811 27.581,157.847 "/>
<g>
	
		<polygon fill="#ED1C24" stroke="#44484F" stroke-width="4" stroke-linecap="round" stroke-linejoin="round" stroke-miterlimit="10" points="
		22.738,322.377 13.965,317.881 13.965,302.881 22.395,298.451 	"/>
	
		<path fill="#ED1C24" stroke="#44484F" stroke-width="4" stroke-linecap="round" stroke-linejoin="round" stroke-miterlimit="10" d="
		M61.391,349.608c2.58-7.224-3.383-19.858-4.426-24.728c-1.5-7,0-36,0-36h-35c0,0,1.693,29.717-1.432,41.046
		c-6.49,9.184-7.104,15.929-5.076,20.133c-0.57,0.819-0.91,1.811-0.91,2.885c0,2.796,2.268,5.034,5.062,5.034
		c2.088,0,3.878-1.098,4.652-3.098h0.695c0.774,2,2.564,3.098,4.652,3.098c1.975,0,3.666-1.127,4.5-2.775
		c0.836,1.648,2.527,2.789,4.5,2.789c2.104,0,3.905-1.111,4.67-3.111h0.66c0.766,2,2.567,3.117,4.67,3.117
		c1.975,0,3.666-1.136,4.5-2.784c0.836,1.648,2.527,2.791,4.5,2.791c2.797,0,5.062-2.266,5.062-5.062
		C62.672,351.659,62.179,350.501,61.391,349.608z"/>
</g>
<g>
	
		<polygon fill="#ED1C24" stroke="#44484F" stroke-width="4" stroke-linecap="round" stroke-linejoin="round" stroke-miterlimit="10" points="
		105.078,298.451 113.965,302.947 113.965,317.947 105.479,322.377 	"/>
	
		<path fill="#ED1C24" stroke="#44484F" stroke-width="4" stroke-linecap="round" stroke-linejoin="round" stroke-miterlimit="10" d="
		M66.709,349.608c-2.58-7.224,3.383-19.858,4.426-24.728c1.5-7,0-36,0-36h35c0,0-1.693,29.717,1.432,41.046
		c6.49,9.184,7.104,15.929,5.076,20.133c0.57,0.819,0.91,1.811,0.91,2.885c0,2.796-2.268,5.034-5.062,5.034
		c-2.088,0-3.878-1.098-4.652-3.098h-0.695c-0.774,2-2.564,3.098-4.652,3.098c-1.975,0-3.666-1.127-4.5-2.775
		c-0.836,1.648-2.527,2.789-4.5,2.789c-2.104,0-3.905-1.111-4.67-3.111h-0.66c-0.766,2-2.567,3.117-4.67,3.117
		c-1.975,0-3.666-1.136-4.5-2.784c-0.836,1.648-2.527,2.791-4.5,2.791c-2.797,0-5.062-2.266-5.062-5.062
		C65.428,351.659,65.921,350.501,66.709,349.608z"/>
</g>
</svg>
