<?xml version="1.0" encoding="utf-8"?>
<!-- Generator: Adobe Illustrator 16.0.0, SVG Export Plug-In . SVG Version: 6.00 Build 0)  -->
<!DOCTYPE svg PUBLIC "-//W3C//DTD SVG 1.1//EN" "http://www.w3.org/Graphics/SVG/1.1/DTD/svg11.dtd">
<svg version="1.1" id="Layer_1" xmlns="http://www.w3.org/2000/svg" xmlns:xlink="http://www.w3.org/1999/xlink" x="0px" y="0px"
	 width="196px" height="381.334px" viewBox="0 0 196 381.334" enable-background="new 0 0 196 381.334" xml:space="preserve">
<path fill="#ED1C24" stroke="#44484F" stroke-width="4" stroke-miterlimit="10" d="M176.659,67.584
	c-7.68,4.751-36.771,24.744-43.034,29.057c-3.692,0.49-7.035,2.047-9.738,4.333c-7.055-3.24-12.462-6.693-11.887-7.224
	c9.847-9.074,13.374-23.756,13.374-36.739c0-18.367-12.859-33.249-31.167-33.279c-18.308,0.03-31.176,14.93-31.176,33.297
	c0,12.983,2.621,27.647,12.469,36.722c0.69,0.638-7.177,5.792-16.326,9.48c-3.069-1.718-6.643-2.62-10.414-2.392
	c-9.717,0.589-17.281,8.376-17.828,17.859c-3.833,6.565-21.616,37.061-25.785,45.071c-4.835,8.786,8.459,20.568,16.478,11.257
	c2.62-3.244,21.752-26.083,30.323-36.309c0.484-0.052,0.957-0.137,1.429-0.225c1.707,19.582,4.221,42.503,5.358,52.507h-1.075
	c0,0-3.77,41.738-4.604,62.863c-0.832,21.124,4.304,88.46,4.304,88.515c0,6.766,5.485,12.036,12.251,12.036
	s12.252-5.594,12.252-12.359c0-0.523,4.037-78.183,9.889-102.859c0.374-1.574,4.387-1.614,4.76-0.039
	c5.852,24.675,9.89,102.272,9.89,102.796c0,6.767,5.485,12.249,12.251,12.249c6.767,0,12.252-5.05,12.252-11.814
	c0-0.056,5.136-67.399,4.303-88.523c-0.834-21.125-4.604-62.863-4.604-62.863s2.929-36.171,4.624-56.551
	c0.394,0.019,0.784,0.049,1.184,0.043c10.2-0.141,18.411-8.29,18.738-18.38c9.562-9.308,30.918-30.08,33.96-32.934
	C197.798,74.492,185.062,62.108,176.659,67.584z"/>
<polygon fill="#F9F900" stroke="#44484F" stroke-width="4" stroke-miterlimit="10" points="159.392,117.265 144.395,104.523 
	144.16,87.572 175.496,67.956 185.455,90.504 "/>
<polygon fill="#F9F900" stroke="#44484F" stroke-width="4" stroke-miterlimit="10" points="51.934,141.535 37.979,127.659 
	21.068,128.85 5.002,162.243 26.526,170.819 "/>
<circle fill="#C2CFCF" cx="95.189" cy="136.635" r="12.855"/>
<circle fill="#FFFFFF" cx="95.189" cy="136.635" r="8.365"/>
<polygon fill="#F9F900" stroke="#44484F" stroke-width="4" stroke-miterlimit="10" points="70.65,230.664 66.072,257.092 
	52.967,261.33 53.084,268.67 64.928,271.331 71.367,287.998 84.824,293.998 90.07,248.947 82.334,231.011 "/>
<polygon fill="#F9F900" stroke="#44484F" stroke-width="4" stroke-miterlimit="10" points="119.113,230.692 123.084,257.218 
	136.089,261.756 135.803,269.092 123.901,271.479 117.081,287.995 103.489,293.685 99.279,248.525 107.425,230.771 "/>
<polygon fill="#ED1C24" stroke="#44484F" stroke-width="4" stroke-linecap="round" stroke-linejoin="round" stroke-miterlimit="10" points="
	53.773,342.496 45,338 45,323 53.43,318.57 "/>
<path fill="#ED1C24" stroke="#44484F" stroke-width="4" stroke-linecap="round" stroke-linejoin="round" stroke-miterlimit="10" d="
	M92.426,369.728c2.58-7.224-3.383-19.858-4.426-24.728c-1.5-7,0-36,0-36H53c0,0,1.693,29.717-1.432,41.046
	c-6.49,9.184-7.104,15.929-5.076,20.133c-0.57,0.819-0.91,1.811-0.91,2.885c0,2.796,2.268,5.034,5.062,5.034
	c2.088,0,3.878-1.098,4.652-3.098h0.695c0.774,2,2.564,3.098,4.652,3.098c1.975,0,3.666-1.127,4.5-2.775
	c0.836,1.648,2.527,2.789,4.5,2.789c2.104,0,3.905-1.111,4.67-3.111h0.66c0.766,2,2.567,3.117,4.67,3.117
	c1.975,0,3.666-1.136,4.5-2.784c0.836,1.648,2.527,2.791,4.5,2.791c2.797,0,5.062-2.266,5.062-5.062
	C93.707,371.778,93.214,370.62,92.426,369.728z"/>
<polygon fill="#ED1C24" stroke="#44484F" stroke-width="4" stroke-linecap="round" stroke-linejoin="round" stroke-miterlimit="10" points="
	136.113,318.57 145,323.066 145,338.066 136.514,342.496 "/>
<path fill="#ED1C24" stroke="#44484F" stroke-width="4" stroke-linecap="round" stroke-linejoin="round" stroke-miterlimit="10" d="
	M97.744,369.728c-2.58-7.224,3.383-19.858,4.426-24.728c1.5-7,0-36,0-36h35c0,0-1.693,29.717,1.432,41.046
	c6.49,9.184,7.104,15.929,5.076,20.133c0.57,0.819,0.91,1.811,0.91,2.885c0,2.796-2.268,5.034-5.062,5.034
	c-2.088,0-3.878-1.098-4.652-3.098h-0.695c-0.774,2-2.564,3.098-4.652,3.098c-1.975,0-3.666-1.127-4.5-2.775
	c-0.836,1.648-2.527,2.789-4.5,2.789c-2.104,0-3.905-1.111-4.67-3.111h-0.66c-0.766,2-2.567,3.117-4.67,3.117
	c-1.975,0-3.666-1.136-4.5-2.784c-0.836,1.648-2.527,2.791-4.5,2.791c-2.797,0-5.062-2.266-5.062-5.062
	C96.463,371.778,96.956,370.62,97.744,369.728z"/>
<path fill="#ED1C24" stroke="#44484F" stroke-width="4" stroke-miterlimit="10" d="M182.398,44.231c0,0,7.589,19.729,9.811,29.622
	c5.631,16.931-14.494,20.138-19.053,10.108c-6.257-13.766-9.491-31.467-9.491-31.467s-2.599-12.996-1.985-14.851
	c1.671-5.059,6.997-7.159,12.193-5.987C179.682,32.971,182.398,44.231,182.398,44.231z"/>
<g>
	<path fill="#ED1C24" stroke="#44484F" stroke-width="4" stroke-miterlimit="10" d="M190.428,16.348
		c-1.226-3.186-7.973,3.402-10.205,1.989c-1.737-1.1,7.027-9.587,2.232-11.837c-2.894-2.062-7.064,9.75-9.188,8.869
		c-2.195-0.311-0.303-7.151-0.139-9.709c-0.455-4.72-7.051-5.039-6.428-0.088c0.231,1.845-0.088,6.924-0.018,8.945
		c-0.4,3.672-2.114,3.652-3.471,0.418c-0.985-2.371-2.827-7.447-2.827-7.447c-1.484-6.682-11.187-2.988-6.937,3.262
		c4.296,6.317,6.322,11.88,5.29,13.856c-6.162-1.059-8.933-4.677-11.556-0.777c-0.524,2.24,3.162,5.727,8.504,7.789
		c1.804,2.229,4.173,4.079,4.173,4.079c3.603,7.363,15.559,2.935,15.8,2.794c7.84-3.101,6.242-14.269,6.442-14.321
		C184.092,23.649,193.5,20.964,190.428,16.348z"/>
	<circle fill="#C2CFCF" cx="169.189" cy="27.635" r="5.087"/>
	<circle fill="#FFFFFF" cx="169.189" cy="27.635" r="3.311"/>
</g>
<path fill="#ED1C24" stroke="#44484F" stroke-width="4" stroke-linecap="round" stroke-linejoin="round" stroke-miterlimit="10" d="
	M45.645,193.594l7.382-17.273c0.001,0.001,2.047,1.036,4.521,2.248c0.847,0.416,0.426-0.943,3.482-0.567
	c6.2,0.762,3.728,3.87,4.465,4.209c1.254,0.574-0.647-0.225,0,0c2.655,0.919,5.483,2.938,4.591,6.095
	c-1.055,2.622-4.401,1.315-4.401,1.315s4.866,1.851,3.314,5.329c-0.805,1.565-6.308,0.18-6.308,0.18s3.88,1.856,2.843,4.173
	c-1.086,2.492-6.401,1.074-6.401,1.074s2.725,0.526,0.591,3.025c-1.967,1.397-12.272-1.24-11.585-4.25
	c0.795-3.487,3.286-0.968,3.286-0.968L45.645,193.594z"/>
<path fill="#ED1C24" stroke="#44484F" stroke-width="4" stroke-miterlimit="10" d="M53.593,176.344l0.004-0.007
	c0,0-24.519-13.973-33.962-17.658c-15.891-8.114-22.238,11.856-13.009,17.875c12.667,8.258,38.534,18.121,38.534,18.121
	s3.527,0.464,5.453,0.137c5.248-0.892,8.843-6.087,7.951-11.337C58.04,180.393,56.252,177.734,53.593,176.344z"/>
</svg>
