<?xml version="1.0" encoding="iso-8859-1"?>
<!-- Generator: Adobe Illustrator 16.0.0, SVG Export Plug-In . SVG Version: 6.00 Build 0)  -->
<!DOCTYPE svg PUBLIC "-//W3C//DTD SVG 1.1//EN" "http://www.w3.org/Graphics/SVG/1.1/DTD/svg11.dtd">
<svg version="1.1" xmlns="http://www.w3.org/2000/svg" xmlns:xlink="http://www.w3.org/1999/xlink" x="0px" y="0px" width="258px"
	 height="346.166px" viewBox="0 0 258 346.166" style="enable-background:new 0 0 258 346.166;" xml:space="preserve">
<g id="ironmanBody">
	<rect x="-0.333" y="-0.334" style="fill:none;" width="258" height="347"/>
	<g>
		<path style="fill:#ED1C24;stroke:#1B2536;stroke-width:4;stroke-miterlimit:10;" d="M181.197,71.514
			c-6.679,4.131-31.976,21.518-37.422,25.267c-3.211,0.426-6.117,1.78-8.469,3.768c-6.134-2.818-10.836-5.82-10.335-6.281
			c8.562-7.892,11.628-20.658,11.628-31.948c0-15.972-11.182-28.912-27.101-28.939c-15.92,0.027-27.11,12.983-27.11,28.955
			c0,11.291,2.28,24.041,10.844,31.932c0.6,0.554-6.241,5.036-14.197,8.244c-2.669-1.493-5.777-2.279-9.057-2.081
			c-8.449,0.513-15.027,7.285-15.502,15.53c-3.333,5.71-18.797,32.228-22.422,39.193c-4.205,7.64,7.355,17.886,14.328,9.788
			c2.279-2.82,18.915-22.681,26.369-31.572c0.421-0.046,0.833,0.298,1.242,0.221c1.485,17.027,3.67,37.075,4.659,46.075h-0.935
			c0,0-3.277,35.877-4.003,54.248c-0.723,18.366,3.743,76.711,3.743,76.76c0,5.883,4.77,10.36,10.653,10.36
			c5.882,0,10.653-4.914,10.653-10.797c0-0.456,3.511-68.013,8.599-89.47c0.325-1.369,3.814-1.418,4.138-0.047
			c5.089,21.456,8.602,88.927,8.602,89.381c0,5.886,4.77,10.647,10.653,10.647s10.653-4.394,10.653-10.275
			c0-0.05,4.465-58.608,3.741-76.978c-0.727-18.369-4.003-54.664-4.003-54.664s2.546-31.454,4.02-49.175
			c0.344,0.017,0.683,0.042,1.03,0.038c8.87-0.123,16.01-7.208,16.294-15.983c8.314-8.094,26.885-26.156,29.531-28.637
			C199.577,77.522,188.503,66.752,181.197,71.514z"/>
		<polygon style="fill:#F9F900;stroke:#1B2536;stroke-width:4;stroke-miterlimit:10;" points="165.312,115.584 152.271,104.505 
			152.067,89.764 179.315,72.707 187.976,92.314 		"/>
		<polygon style="fill:#F9F900;stroke:#1B2536;stroke-width:4;stroke-miterlimit:10;" points="72.739,134.95 60.605,122.883 
			45.899,123.92 31.93,152.957 50.646,160.414 		"/>
		<circle style="fill:#C2CFCF;" cx="110.353" cy="130.688" r="11.179"/>
		<circle style="fill:#FFFFFF;" cx="110.353" cy="130.688" r="7.275"/>
		<polygon style="fill:#F9F900;stroke:#1B2536;stroke-width:4;stroke-miterlimit:10;" points="89.015,212.453 85.034,235.434 
			73.638,239.121 73.739,245.501 84.038,247.816 89.638,262.31 101.34,267.525 105.901,228.352 99.174,212.754 		"/>
		<polygon style="fill:#F9F900;stroke:#1B2536;stroke-width:4;stroke-miterlimit:10;" points="131.157,212.478 134.609,235.544 
			145.917,239.49 145.67,245.868 135.319,247.945 129.39,262.307 117.57,267.254 113.909,227.985 120.993,212.546 		"/>
		
			<polygon style="fill:#ED1C24;stroke:#1B2536;stroke-width:4;stroke-linecap:round;stroke-linejoin:round;stroke-miterlimit:10;" points="
			74.318,309.698 66.667,305.789 66.667,292.746 74.009,288.894 		"/>
		<path style="fill:#ED1C24;stroke:#1B2536;stroke-width:4;stroke-linecap:round;stroke-linejoin:round;stroke-miterlimit:10;" d="
			M107.95,333.378c2.244-6.281-2.942-17.221-3.849-21.455c-1.304-6.086,0-31.257,0-31.257H73.667c0,0,1.472,25.792-1.245,35.646
			c-5.643,7.984-6.178,13.825-4.414,17.483c-0.496,0.711-0.792,1.562-0.792,2.497c0,2.431,1.972,4.224,4.402,4.224
			c1.815,0,3.373-0.85,4.045-2.85h0.605c0.673,2,2.229,2.845,4.045,2.845c1.717,0,3.188-0.909,3.913-2.343
			c0.727,1.434,2.198,2.315,3.914,2.315c1.829,0,3.395-0.817,4.06-2.817h0.574c0.667,2,2.232,2.859,4.061,2.859
			c1.717,0,3.188-0.912,3.914-2.348c0.727,1.436,2.197,2.465,3.913,2.465c2.432,0,4.402-1.952,4.402-4.383
			C109.063,335.144,108.636,334.155,107.95,333.378z"/>
		
			<polygon style="fill:#ED1C24;stroke:#1B2536;stroke-width:4;stroke-linecap:round;stroke-linejoin:round;stroke-miterlimit:10;" points="
			145.938,288.894 153.666,292.803 153.666,305.847 146.288,309.698 		"/>
		<path style="fill:#ED1C24;stroke:#1B2536;stroke-width:4;stroke-linecap:round;stroke-linejoin:round;stroke-miterlimit:10;" d="
			M112.574,333.378c-2.244-6.281,2.942-17.221,3.848-21.455c1.307-6.086,0-31.257,0-31.257h30.437c0,0-1.473,25.792,1.244,35.646
			c5.644,7.984,6.178,13.825,4.414,17.483c0.496,0.711,0.791,1.562,0.791,2.497c0,2.431-1.972,4.224-4.401,4.224
			c-1.816,0-3.372-0.85-4.046-2.85h-0.604c-0.673,2-2.229,2.845-4.045,2.845c-1.718,0-3.188-0.909-3.913-2.343
			c-0.728,1.434-2.198,2.315-3.914,2.315c-1.829,0-3.395-0.817-4.06-2.817h-0.574c-0.667,2-2.232,2.859-4.062,2.859
			c-1.717,0-3.188-0.912-3.913-2.348c-0.727,1.436-2.197,2.465-3.912,2.465c-2.434,0-4.402-1.952-4.402-4.383
			C111.461,335.144,111.889,334.155,112.574,333.378z"/>
		<path style="fill:#ED1C24;stroke:#1B2536;stroke-width:4;stroke-miterlimit:10;" d="M186.187,49.469c0,0,6.6,17.155,8.532,25.759
			c4.895,14.722-12.604,17.51-16.569,8.79c-5.439-11.97-8.253-27.362-8.253-27.362s-2.259-11.301-1.726-12.915
			c1.453-4.398,6.085-6.225,10.604-5.206C183.824,39.676,186.187,49.469,186.187,49.469z"/>
		<path style="fill:#ED1C24;stroke:#1B2536;stroke-width:4;stroke-miterlimit:10;" d="M194.908,24.351
			c-1.065-2.769-6.933,2.96-8.874,1.731c-1.511-0.956,6.111-8.337,1.941-10.292c-2.517-1.794-6.144,8.479-7.989,7.71
			c-1.908-0.27-0.263-6.217-0.121-8.44c-0.395-4.106-6.131-4.383-5.589-0.077c0.201,1.604-0.077,6.021-0.015,7.779
			c-0.35,3.192-1.839,3.175-3.019,0.363c-0.857-2.062-2.459-6.476-2.459-6.476c-1.29-5.81-9.727-2.598-6.031,2.837
			c3.736,5.493,5.498,10.329,4.601,12.048c-5.359-0.92-7.769-4.066-10.049-0.675c-0.456,1.949,2.749,4.979,7.395,6.772
			c1.568,1.938,3.629,3.547,3.629,3.547c3.132,6.402,13.528,2.551,13.739,2.429c6.816-2.695,5.428-12.406,5.602-12.453
			C189.398,30.701,197.58,28.366,194.908,24.351z"/>
		<circle style="fill:#C2CFCF;" cx="176.44" cy="33.297" r="4.424"/>
		<circle style="fill:#FFFFFF;" cx="176.439" cy="33.297" r="2.879"/>
		<path style="fill:#ED1C24;stroke:#1B2536;stroke-width:4;stroke-linecap:round;stroke-linejoin:round;stroke-miterlimit:10;" d="
			M67.271,180.219l6.419-15.021c0,0.001,1.78,0.9,3.931,1.955c0.736,0.361,0.371-0.821,3.028-0.494
			c5.392,0.663,3.24,3.366,3.882,3.66c1.091,0.499-0.562-0.195,0,0c2.31,0.8,4.768,2.555,3.993,5.3
			c-0.917,2.28-3.828,1.145-3.828,1.145s4.232,1.609,2.883,4.634c-0.7,1.36-5.485,0.155-5.485,0.155s3.374,1.613,2.472,3.629
			c-0.944,2.168-5.567,0.936-5.567,0.936s2.37,0.455,0.514,2.629c-1.71,1.215-10.671-1.078-10.074-3.695
			c0.691-3.031,2.857-0.842,2.857-0.842L67.271,180.219z"/>
		<path style="fill:#ED1C24;stroke:#1B2536;stroke-width:4;stroke-miterlimit:10;" d="M74.183,165.217l0.003-0.005
			c0,0-21.32-12.15-29.532-15.354c-13.818-7.056-19.337,10.311-11.312,15.544c11.015,7.179,33.508,15.756,33.508,15.756
			s3.067,0.403,4.742,0.119c4.563-0.775,7.69-5.293,6.915-9.859C78.049,168.739,76.494,166.428,74.183,165.217z"/>
	</g>
</g>
<g id="Layer_1">
</g>
</svg>
