<?xml version="1.0" encoding="iso-8859-1"?>
<!-- Generator: Adobe Illustrator 16.0.0, SVG Export Plug-In . SVG Version: 6.00 Build 0)  -->
<!DOCTYPE svg PUBLIC "-//W3C//DTD SVG 1.1//EN" "http://www.w3.org/Graphics/SVG/1.1/DTD/svg11.dtd">
<svg version="1.1" xmlns="http://www.w3.org/2000/svg" xmlns:xlink="http://www.w3.org/1999/xlink" x="0px" y="0px" width="258px"
	 height="346.166px" viewBox="0 0 258 346.166" style="enable-background:new 0 0 258 346.166;" xml:space="preserve">
<g id="nahkhiirmeesBody">
	<rect x="-0.333" y="-0.334" style="fill:none;" width="258" height="347"/>
	<path style="fill:#7D7DB5;stroke:#1B2536;stroke-width:4;stroke-miterlimit:10;" d="M139.744,175.666h-0.943
		c1.895-15,8.139-73.699,5.623-74.402c-10.191-2.848-21.754-9.334-20.98-10.046c8.629-7.95,11.719-20.687,11.719-32.064
		c0-16.096-11.268-29.073-27.311-29.098c-16.042,0.025-27.318,13.113-27.318,29.208c0,11.377,2.297,24.245,10.926,32.195
		c0.754,0.695-10.122,7.539-20.315,10.387c-2.515,0.703,3.731,58.194,5.625,74.841c0,0-4.246,36.578-4.977,55.089
		c-0.729,18.511,3.771,77.518,3.771,77.567c0,5.927,4.807,10.546,10.736,10.546c5.929,0,10.736-4.901,10.736-10.831
		c0-0.457,3.538-68.51,8.665-90.133c0.328-1.379,3.845-1.415,4.172-0.035c5.127,21.623,8.666,89.619,8.666,90.078
		c0,5.931,4.806,10.734,10.735,10.734c5.929,0,10.736-4.426,10.736-10.353c0-0.049,4.5-59.575,3.77-78.085
		C143.046,212.754,139.744,175.666,139.744,175.666z"/>
	<path style="fill:#F9F900;stroke:#1B2536;stroke-width:4;stroke-linecap:round;stroke-linejoin:round;stroke-miterlimit:10;" d="
		M79.485,167.886c0,0,38.44,12.77,59.005-1.87c0.232-0.958,2.578,7.465,2.578,17.116c-3.011,0.802-3.119,2.26-32.25,11.761
		l-30.969-9.499C77.849,185.395,73.783,179.76,79.485,167.886z"/>
	<path style="fill:#7D7DB5;stroke:#1B2536;stroke-width:4;stroke-miterlimit:10;" d="M84.818,106.771
		c-5.284-7.533-15.673-9.358-23.207-4.075c-6.983,4.897-9.058,14.181-5.115,21.513c0.149,6.659,0.867,37.584,1.43,45.478
		c0.422,8.779,15.753,11.475,17.467,0.844c0.466-3.625,4.271-29.453,5.978-41.02C88.372,124.102,89.949,114.089,84.818,106.771z"/>
	<path style="fill:#2171E4;stroke:#1B2536;stroke-width:4;stroke-miterlimit:10;" d="M57.359,200.002l0.006,0.006
		c0,0,14.19-20.254,18.174-28.194c8.375-13.204-8.532-20.368-14.535-12.806c-8.237,10.377-18.952,32.143-18.952,32.143l0.012-0.016
		c-3.766,7.466,4.014,12.975,8.668,12.623C53.464,203.553,55.928,202.209,57.359,200.002z"/>
	<path style="fill:#2171E4;stroke:#1B2536;stroke-width:4;stroke-miterlimit:10;" d="M62.561,191.347l-17.099-9.288
		c0,0-3.091,6.439-5.005,8.104c-2.632,2.754-0.341,4.012-0.263,3.844c-0.227,0.914-0.152,2.568-0.152,2.568l7.053,14.188
		c15.352-4.069,12.837-12.865,12.837-12.865L62.561,191.347z"/>
	<path style="fill:#2171E4;stroke:#1B2536;stroke-width:4;stroke-miterlimit:10;" d="M45.534,184.61
		c-3.526-2.791-13.322-1.047-10.971,8.749c0.534,1.451,2.994,3.318,4.631-1.279c1.638-4.6,4.332-1.711,6.185-0.739
		c1.853,0.974,5.363,2.335,7.33,0.739"/>
	<polygon style="fill:#7D7DB5;stroke:#1B2536;stroke-width:4;stroke-miterlimit:10;" points="82.194,130.875 65.411,126.919 
		53.331,135.566 56.659,167.869 76.664,164.395 	"/>
	<polygon style="fill:#2171E4;stroke:#1B2536;stroke-width:4;stroke-miterlimit:10;" points="72.387,308.568 64.667,304.63 
		64.667,291.485 72.07,287.604 	"/>
	<path style="fill:#2171E4;stroke:#1B2536;stroke-width:4;stroke-miterlimit:10;" d="M106.291,332.431
		c2.261-6.328-2.964-17.228-3.878-21.494c-1.313-6.134,0-46.271,0-46.271H71.743c0,0,1.484,40.765-1.254,50.691
		c-5.688,8.047-6.226,13.873-4.449,17.555c-0.5,0.719-0.798,1.544-0.798,2.484c0,2.451,1.987,4.199,4.437,4.199
		c1.83,0,3.398-0.93,4.077-2.93h0.609c0.678,2,2.247,2.907,4.076,2.907c1.731,0,3.212-0.89,3.943-2.335
		c0.733,1.445,2.214,2.3,3.943,2.3c1.843,0,3.422-0.872,4.092-2.872h0.578c0.672,2,2.25,2.925,4.093,2.925
		c1.73,0,3.212-0.897,3.943-2.343c0.732,1.445,2.214,2.494,3.943,2.494c2.451,0,4.437-1.964,4.437-4.412
		C107.414,334.205,106.981,333.215,106.291,332.431z"/>
	<polygon style="fill:#2171E4;stroke:#1B2536;stroke-width:4;stroke-miterlimit:10;" points="144.228,287.604 151.666,291.544 
		151.666,304.688 144.404,308.568 	"/>
	<path style="fill:#2171E4;stroke:#1B2536;stroke-width:4;stroke-miterlimit:10;" d="M110.951,332.431
		c-2.261-6.328,2.965-17.228,3.879-21.494c1.313-6.134,0-46.271,0-46.271h30.668c0,0-1.482,40.765,1.255,50.691
		c5.688,8.047,6.227,13.873,4.449,17.555c0.499,0.719,0.798,1.544,0.798,2.484c0,2.451-1.987,4.199-4.438,4.199
		c-1.829,0-3.396-0.93-4.076-2.93h-0.609c-0.678,2-2.247,2.907-4.076,2.907c-1.731,0-3.213-0.89-3.943-2.335
		c-0.733,1.445-2.215,2.3-3.943,2.3c-1.844,0-3.423-0.872-4.093-2.872h-0.578c-0.671,2-2.25,2.925-4.093,2.925
		c-1.729,0-3.212-0.897-3.943-2.343c-0.731,1.445-2.214,2.494-3.942,2.494c-2.451,0-4.437-1.964-4.437-4.412
		C109.828,334.205,110.26,333.215,110.951,332.431z"/>
	<path style="fill:#2171E4;stroke:#1B2536;stroke-width:4;stroke-miterlimit:10;" d="M33.255,202.125
		c1.229,1.191,3.19,1.164,4.382-0.064l-1.726,1.775c-1.192,1.23-1.163,3.191,0.064,4.383c1.228,1.192,3.188,1.164,4.381-0.066
		c-1.192,1.23-1.163,3.192,0.064,4.385c1.229,1.19,3.19,1.162,4.382-0.067l1.726-1.775c-1.192,1.228-1.162,3.188,0.065,4.378
		c1.228,1.193,3.188,1.164,4.38-0.063l6.907-7.111c1.191-1.229,1.163-3.188-0.067-4.381c-1.229-1.196-3.189-1.165-4.379,0.065
		l-1.728,1.775c1.191-1.229,1.165-3.188-0.063-4.379c-1.229-1.191-3.189-1.165-4.382,0.062c1.192-1.228,1.163-3.188-0.064-4.381
		c-1.229-1.193-3.189-1.161-4.38,0.066l1.726-1.779c1.193-1.229,1.164-3.188-0.064-4.379c-1.229-1.196-3.189-1.164-4.38,0.062
		l-6.905,7.115C32,198.973,32.028,200.936,33.255,202.125z"/>
	<path style="fill:#7D7DB5;stroke:#1B2536;stroke-width:4;stroke-miterlimit:10;" d="M132.604,107.647
		c5.282-7.533,15.673-9.357,23.206-4.075c6.982,4.898,9.058,14.183,5.114,21.514c-0.15,6.66-0.867,37.586-1.43,45.479
		c-0.422,8.778-15.753,11.474-17.467,0.844c-0.466-3.626-4.271-29.452-5.979-41.021
		C129.049,124.979,127.471,114.966,132.604,107.647z"/>
	<path style="fill:#2171E4;stroke:#1B2536;stroke-width:4;stroke-miterlimit:10;" d="M160.062,200.88l-0.006,0.003
		c0,0-14.189-20.254-18.175-28.192c-8.374-13.203,8.531-20.37,14.535-12.805c8.237,10.376,18.951,32.141,18.951,32.141l-0.011-0.015
		c3.766,7.465-4.015,12.974-8.668,12.623C163.956,204.431,161.491,203.086,160.062,200.88z"/>
	<path style="fill:#2171E4;stroke:#1B2536;stroke-width:4;stroke-miterlimit:10;" d="M154.86,192.223l17.1-9.287
		c0,0,3.09,6.44,5.005,8.103c2.632,2.755,0.341,4.012,0.263,3.845c0.225,0.913,0.151,2.568,0.151,2.568l-7.053,14.188
		c-15.352-4.068-12.837-12.865-12.837-12.865L154.86,192.223z"/>
	<path style="fill:#2171E4;stroke:#1B2536;stroke-width:4;stroke-miterlimit:10;" d="M171.887,186.463
		c3.526-2.791,13.322-1.048,10.971,8.746c-0.533,1.451-2.993,3.321-4.631-1.279c-1.638-4.598-4.333-1.71-6.186-0.738
		c-1.853,0.973-5.361,2.334-7.329,0.738"/>
	<polygon style="fill:#7D7DB5;stroke:#1B2536;stroke-width:4;stroke-miterlimit:10;" points="135.226,131.751 152.01,127.796 
		164.089,136.442 160.761,168.745 140.757,165.272 	"/>
	<path style="fill:#2171E4;stroke:#1B2536;stroke-width:4;stroke-miterlimit:10;" d="M184.166,203.002
		c-1.23,1.191-3.191,1.164-4.382-0.066l1.726,1.779c1.191,1.228,1.163,3.188-0.064,4.381c-1.229,1.192-3.188,1.162-4.381-0.065
		c1.192,1.228,1.163,3.191-0.065,4.382c-1.228,1.192-3.188,1.162-4.381-0.065l-1.727-1.776c1.191,1.229,1.163,3.188-0.064,4.379
		c-1.229,1.193-3.189,1.166-4.382-0.064l-6.905-7.112c-1.191-1.228-1.163-3.188,0.066-4.38c1.229-1.195,3.188-1.166,4.38,0.066
		l1.727,1.774c-1.19-1.228-1.163-3.187,0.064-4.379c1.229-1.192,3.189-1.165,4.381,0.062c-1.191-1.227-1.162-3.188,0.064-4.379
		c1.23-1.193,3.189-1.162,4.382,0.066l-1.728-1.779c-1.191-1.229-1.162-3.188,0.065-4.381c1.229-1.193,3.188-1.163,4.381,0.062
		l6.905,7.117C185.421,199.85,185.393,201.811,184.166,203.002z"/>
	<path style="fill:#0C0809;stroke:#1B2536;stroke-width:4;stroke-linecap:round;stroke-linejoin:round;stroke-miterlimit:10;" d="
		M143.737,96.173c0,0,30.229,3.502,37.54,57.675c7.336,36.917,7.049,46.879,11.393,55.371c3.026,6.904,0.729,13.533-11.982,11.848
		c-7.773,4.055-14.173-0.042-19.64,3.6c-5.464,3.643-15.073,6.759-20.182,5.853c-1.081,0.602,12.168-112.45-14.194-134.807
		C122.728,92.367,143.737,96.173,143.737,96.173z"/>
	<path style="fill:#0C0809;stroke:#1B2536;stroke-width:4;stroke-linecap:round;stroke-linejoin:round;stroke-miterlimit:10;" d="
		M74.543,94.502c0,0-31.087,5.173-34.622,56.265c-7.474,36.889-13.853,47.424-18.228,55.898c-3.052,6.895,2.836,12.791,15.555,11.15
		c7.757,4.082,17.549,4.094,23,7.756c5.453,3.662,15.05,6.814,20.161,5.929c1.08,0.604-30.94-79.834,14.697-134.756
		C98.411,92.767,74.543,94.502,74.543,94.502z"/>
	<g>
		<g>
			<line style="fill:none;stroke:#3B4452;stroke-miterlimit:10;" x1="176.622" y1="66.099" x2="176.622" y2="66.099"/>
		</g>
	</g>
	<g>
		<path style="fill:#F9F900;" d="M96.335,134.312c0-3.896,6.162-8.739,13.764-8.739s13.764,4.844,13.764,8.739
			c0,3.895-6.162,8.738-13.764,8.738S96.335,138.207,96.335,134.312z"/>
		<polygon style="fill:#0C0809;stroke:#0C0809;stroke-miterlimit:10;" points="113.713,132.096 109.929,134.458 106.145,132.096 
			99.866,134.436 105.766,135.07 109.883,138.043 109.929,137.979 109.976,138.043 114.092,135.07 119.991,134.436 		"/>
	</g>
	<path style="fill:#2171E4;stroke:#1B2536;stroke-width:4;stroke-linecap:round;stroke-linejoin:round;stroke-miterlimit:10;" d="
		M127.29,92.861c-0.627,8.574-13.717,9.209-17.479,9.217c-3.763-0.008-16.854-0.643-17.479-9.217
		c-0.271,1.879-20.066,8.023-9.941,19.825c0,0,18.535-11.997,27.145,8.598c0.074-0.092,0.169-0.924,0.275-2.179
		c0.105,1.255,0.201,2.087,0.276,2.179c8.607-20.595,27.144-8.598,27.144-8.598C147.354,100.884,127.561,94.74,127.29,92.861z"/>
	<g>
		<path style="fill:#F9F900;" d="M96.335,134.312c0-3.896,6.162-8.739,13.764-8.739s13.764,4.844,13.764,8.739
			c0,3.895-6.162,8.738-13.764,8.738S96.335,138.207,96.335,134.312z"/>
		<polygon style="fill:#0C0809;stroke:#0C0809;stroke-miterlimit:10;" points="113.713,132.096 109.929,134.458 106.145,132.096 
			99.866,134.436 105.766,135.07 109.883,138.043 109.929,137.979 109.976,138.043 114.092,135.07 119.991,134.436 		"/>
	</g>
</g>
<g id="Layer_1">
</g>
</svg>
