<?xml version="1.0" encoding="iso-8859-1"?>
<!-- Generator: Adobe Illustrator 16.0.0, SVG Export Plug-In . SVG Version: 6.00 Build 0)  -->
<!DOCTYPE svg PUBLIC "-//W3C//DTD SVG 1.1//EN" "http://www.w3.org/Graphics/SVG/1.1/DTD/svg11.dtd">
<svg version="1.1" xmlns="http://www.w3.org/2000/svg" xmlns:xlink="http://www.w3.org/1999/xlink" x="0px" y="0px" width="258px"
	 height="346.166px" viewBox="0 0 258 346.166" style="enable-background:new 0 0 258 346.166;" xml:space="preserve">
<g id="nahkhiirmeesBodyH">
	<rect x="-0.333" y="-0.334" style="fill:none;" width="258" height="347"/>
	<path style="fill:#0C0809;stroke:#1B2536;stroke-width:4;stroke-linecap:round;stroke-linejoin:round;stroke-miterlimit:10;" d="
		M130.244,95.639c0,0,19.18-17.277,47.979,13.935c23.518,25.929,10.02,94.202,16.477,98.943
		c5.281,4.741-11.139,14.903-19.654,13.932c-9.102-0.975-23.148,9.315-24.34,16.201c-1.779,6.885-22.318,12.208-28.187,12.187
		s-27.724,4.691-42.617-3.533C65.01,239.08,45.016,222.555,39.144,223.3s-17.561-0.622-25.776-8.853
		c-8.215-8.231-9.977-26.292,0-23.717c10.562,1.988,20.909-57.339,26.826-73.418c8.742-23.755,27.106-29.218,48.565-21.126
		C97.285,101.467,124.473,109.176,130.244,95.639z"/>
	<path style="fill:#7D7DB5;stroke:#1B2536;stroke-width:4;stroke-miterlimit:10;" d="M155.966,102.835
		c-4.155-2.912-9.173-3.662-13.734-2.503c-9.597-3.133-19.497-8.984-18.778-9.648c8.668-7.987,11.773-20.91,11.773-32.34
		c0-16.167-11.319-29.268-27.436-29.294c-16.115,0.026-27.442,13.142-27.442,29.31c0,11.428,2.307,24.337,10.976,32.324
		c0.643,0.593-7.138,5.632-15.769,8.892c-4.686-1.339-9.913-0.637-14.214,2.38c-7.016,4.919-9.099,14.245-5.138,21.61
		c0.15,6.689,0.87,37.755,1.437,45.684c0.422,8.818,15.822,11.525,17.545,0.849c0.066-0.514,0.2-1.479,0.383-2.771
		c0.392,3.589,0.736,6.664,0.997,8.96c0,0-4.265,36.74-5,55.336c-0.732,18.594,3.789,77.866,3.789,77.915
		c0,5.955,4.828,10.595,10.784,10.595c5.955,0,10.785-4.925,10.785-10.88c0-0.46,3.554-68.82,8.704-90.542
		c0.33-1.385,3.862-1.421,4.19-0.034c5.151,21.72,8.706,90.023,8.706,90.485c0,5.958,4.827,10.783,10.782,10.783
		c5.957,0,10.786-4.446,10.786-10.4c0-0.048,4.521-59.639,3.786-78.232c-0.732-18.596-4.051-55.646-4.051-55.646h-0.947
		c0.415-3,1.04-8.974,1.737-15.537c0.758,5.207,1.339,9.412,1.503,10.695c1.723,10.678,17.123,8.046,17.546-0.771
		c0.566-7.93,1.286-38.956,1.437-45.646C165.065,117.043,162.981,107.755,155.966,102.835z"/>
	<path style="fill:#F9F900;stroke:#1B2536;stroke-width:4;stroke-linecap:round;stroke-linejoin:round;stroke-miterlimit:10;" d="
		M79.295,167.44c0,0,38.615,12.829,59.272-1.878c0.234-0.962,2.59,7.499,2.59,17.193c-3.021,0.806-3.133,2.271-32.396,11.814
		l-31.109-9.542C77.652,185.028,73.567,179.367,79.295,167.44z"/>
	<path style="fill:#2171E4;stroke:#1B2536;stroke-width:4;stroke-miterlimit:10;" d="M57.069,199.701l0.006,0.006
		c0,0,14.255-20.346,18.258-28.321c8.413-13.264-8.57-20.46-14.601-12.864c-8.275,10.423-19.038,32.288-19.038,32.288l0.013-0.017
		c-3.784,7.5,4.032,13.034,8.707,12.681C53.158,203.269,55.633,201.918,57.069,199.701z"/>
	<path style="fill:#2171E4;stroke:#1B2536;stroke-width:4;stroke-miterlimit:10;" d="M62.294,191.008l-17.176-9.33
		c0,0-3.104,6.469-5.027,8.14c-2.645,2.767-0.343,4.03-0.265,3.862c-0.227,0.918-0.151,2.579-0.151,2.579l7.084,14.251
		c15.422-4.088,12.894-12.923,12.894-12.923L62.294,191.008z"/>
	<path style="fill:#2171E4;stroke:#1B2536;stroke-width:4;stroke-miterlimit:10;" d="M45.191,185.22
		c-3.542-2.804-13.382-1.052-11.02,8.788c0.535,1.457,3.007,3.334,4.651-1.285c1.646-4.62,4.352-1.719,6.212-0.742
		s5.387,2.346,7.363,0.742"/>
	<polygon style="fill:#7D7DB5;stroke:#1B2536;stroke-width:4;stroke-miterlimit:10;" points="82.019,130.262 65.158,126.288 
		53.024,134.975 56.368,167.423 76.462,163.933 	"/>
	<polygon style="fill:#2171E4;stroke:#1B2536;stroke-width:4;stroke-miterlimit:10;" points="71.793,308.761 63.667,304.804 
		63.667,291.6 71.289,287.701 	"/>
	<path style="fill:#2171E4;stroke:#1B2536;stroke-width:4;stroke-miterlimit:10;" d="M106.223,332.73
		c2.271-6.357-2.978-17.803-3.895-22.089c-1.321-6.162,0-46.976,0-46.976H71.519c0,0,1.491,41.444-1.261,51.416
		c-5.713,8.083-6.253,14.184-4.468,17.883c-0.502,0.721-0.802,1.676-0.802,2.619c0,2.463,1.997,4.123,4.457,4.123
		c1.837,0,3.414-1.041,4.094-3.041h0.612c0.683,2,2.257,3.081,4.096,3.081c1.738,0,3.228-0.817,3.962-2.269
		c0.734,1.451,2.224,2.192,3.961,2.192c1.852,0,3.437-1.005,4.11-3.005h0.581c0.673,2,2.26,3.099,4.11,3.099
		c1.739,0,3.227-0.823,3.961-2.276c0.736,1.453,2.225,2.546,3.961,2.546c2.462,0,4.456-1.95,4.456-4.41
		C107.351,334.494,106.917,333.518,106.223,332.73z"/>
	<polygon style="fill:#2171E4;stroke:#1B2536;stroke-width:4;stroke-miterlimit:10;" points="145.263,287.701 153.666,291.658 
		153.666,304.862 145.904,308.761 	"/>
	<path style="fill:#2171E4;stroke:#1B2536;stroke-width:4;stroke-miterlimit:10;" d="M110.905,332.73
		c-2.271-6.357,2.977-17.803,3.896-22.089c1.319-6.162,0-46.976,0-46.976h30.81c0,0-1.493,41.444,1.26,51.416
		c5.712,8.083,6.253,14.184,4.468,17.883c0.502,0.721,0.801,1.676,0.801,2.619c0,2.463-1.996,4.123-4.455,4.123
		c-1.838,0-3.414-1.041-4.097-3.041h-0.611c-0.683,2-2.257,3.081-4.095,3.081c-1.738,0-3.229-0.817-3.963-2.269
		c-0.734,1.451-2.225,2.192-3.961,2.192c-1.851,0-3.437-1.005-4.109-3.005h-0.581c-0.675,2-2.26,3.099-4.11,3.099
		c-1.739,0-3.228-0.823-3.962-2.276c-0.736,1.453-2.225,2.546-3.962,2.546c-2.461,0-4.457-1.95-4.457-4.41
		C109.775,334.494,110.212,333.518,110.905,332.73z"/>
	<path style="fill:#2171E4;stroke:#1B2536;stroke-width:4;stroke-miterlimit:10;" d="M32.857,201.834
		c1.234,1.197,3.204,1.17,4.401-0.063l-1.734,1.783c-1.197,1.235-1.168,3.206,0.064,4.403c1.234,1.196,3.204,1.168,4.402-0.067
		c-1.198,1.235-1.169,3.206,0.064,4.403c1.234,1.197,3.204,1.168,4.401-0.066l1.735-1.784c-1.199,1.233-1.169,3.202,0.064,4.397
		c1.233,1.199,3.203,1.17,4.4-0.063l6.938-7.144c1.196-1.235,1.168-3.203-0.066-4.4c-1.235-1.201-3.205-1.17-4.4,0.064l-1.735,1.785
		c1.196-1.236,1.169-3.203-0.064-4.399c-1.233-1.196-3.204-1.17-4.402,0.062c1.198-1.231,1.168-3.201-0.064-4.398
		c-1.235-1.199-3.204-1.167-4.401,0.066l1.734-1.788c1.198-1.233,1.168-3.202-0.065-4.399c-1.235-1.201-3.203-1.169-4.401,0.064
		l-6.936,7.146C31.596,198.668,31.625,200.639,32.857,201.834z"/>
	<path style="fill:#2171E4;stroke:#1B2536;stroke-width:4;stroke-miterlimit:10;" d="M160.237,200.584l-0.005,0.004
		c0,0-14.253-20.347-18.257-28.321c-8.414-13.262,8.571-20.461,14.601-12.862c8.273,10.423,19.038,32.285,19.038,32.285
		l-0.013-0.015c3.783,7.499-4.033,13.033-8.707,12.681C164.15,204.15,161.675,202.801,160.237,200.584z"/>
	<path style="fill:#2171E4;stroke:#1B2536;stroke-width:4;stroke-miterlimit:10;" d="M155.012,191.888l17.178-9.331
		c0,0,3.104,6.471,5.028,8.141c2.645,2.768,0.342,4.029,0.263,3.861c0.228,0.918,0.153,2.58,0.153,2.58l-7.084,14.253
		c-15.424-4.087-12.896-12.925-12.896-12.925L155.012,191.888z"/>
	<path style="fill:#2171E4;stroke:#1B2536;stroke-width:4;stroke-miterlimit:10;" d="M172.117,186.102
		c3.541-2.805,13.382-1.053,11.02,8.786c-0.535,1.458-3.007,3.335-4.652-1.284c-1.645-4.619-4.351-1.719-6.212-0.742
		c-1.86,0.977-5.386,2.344-7.362,0.742"/>
	<polygon style="fill:#7D7DB5;stroke:#1B2536;stroke-width:4;stroke-miterlimit:10;" points="135.289,131.142 152.15,127.169 
		164.284,135.854 160.941,168.304 140.846,164.815 	"/>
	<path style="fill:#2171E4;stroke:#1B2536;stroke-width:4;stroke-miterlimit:10;" d="M184.451,202.715
		c-1.234,1.197-3.204,1.17-4.402-0.066l1.732,1.787c1.199,1.233,1.171,3.203-0.062,4.4c-1.234,1.198-3.203,1.169-4.401-0.064
		c1.198,1.233,1.169,3.205-0.065,4.402c-1.233,1.196-3.203,1.166-4.4-0.066l-1.735-1.785c1.198,1.234,1.168,3.201-0.063,4.399
		c-1.234,1.199-3.204,1.17-4.401-0.065l-6.938-7.145c-1.195-1.233-1.168-3.202,0.066-4.4c1.235-1.2,3.202-1.17,4.399,0.067
		l1.735,1.782c-1.196-1.233-1.17-3.201,0.064-4.398c1.233-1.197,3.205-1.17,4.401,0.062c-1.196-1.232-1.169-3.202,0.064-4.398
		c1.235-1.199,3.204-1.168,4.4,0.065l-1.733-1.786c-1.198-1.236-1.169-3.203,0.064-4.4c1.234-1.199,3.203-1.17,4.401,0.062
		l6.936,7.148C185.712,199.549,185.683,201.52,184.451,202.715z"/>
	<path style="fill:#2171E4;stroke:#1B2536;stroke-width:4;stroke-linecap:round;stroke-linejoin:round;stroke-miterlimit:10;" d="
		M125.557,92.076c-0.63,8.613-13.779,9.251-17.559,9.258c-3.779-0.007-16.929-0.645-17.558-9.258
		c-0.273,1.888-20.156,8.06-9.986,19.915c0,0,18.62-12.051,27.267,8.637c0.076-0.093,0.171-0.929,0.277-2.189
		c0.106,1.26,0.203,2.096,0.277,2.189c8.648-20.688,27.268-8.637,27.268-8.637C145.713,100.136,125.828,93.964,125.557,92.076z"/>
	<g>
		<g>
			<line style="fill:none;stroke:#3B4452;stroke-miterlimit:10;" x1="176.873" y1="65.193" x2="176.873" y2="65.193"/>
		</g>
	</g>
	<path style="fill:#2171E4;stroke:#1B2536;stroke-width:4;stroke-linecap:round;stroke-linejoin:round;stroke-miterlimit:10;" d="
		M125.557,92.076c-0.63,8.613-13.779,9.251-17.559,9.258c-3.779-0.007-16.929-0.645-17.558-9.258
		c-0.273,1.888-20.156,8.06-9.986,19.915c0,0,18.62-12.051,27.267,8.637c0.076-0.093,0.171-0.929,0.277-2.189
		c0.106,1.26,0.203,2.096,0.277,2.189c8.648-20.688,27.268-8.637,27.268-8.637C145.713,100.136,125.828,93.964,125.557,92.076z"/>
	<g>
		<path style="fill:#F9F900;" d="M94.462,133.715c0-3.914,6.19-8.779,13.827-8.779c7.635,0,13.824,4.865,13.824,8.779
			c0,3.912-6.189,8.777-13.824,8.777C100.652,142.492,94.462,137.626,94.462,133.715z"/>
		<polygon style="fill:#0C0809;stroke:#0C0809;stroke-miterlimit:10;" points="111.919,131.488 108.117,133.861 104.315,131.488 
			98.009,133.839 103.936,134.476 108.07,137.463 108.117,137.398 108.164,137.463 112.3,134.476 118.225,133.839 		"/>
	</g>
</g>
<g id="Layer_1">
</g>
</svg>
