<?xml version="1.0" encoding="iso-8859-1"?>
<!-- Generator: Adobe Illustrator 16.0.0, SVG Export Plug-In . SVG Version: 6.00 Build 0)  -->
<!DOCTYPE svg PUBLIC "-//W3C//DTD SVG 1.1//EN" "http://www.w3.org/Graphics/SVG/1.1/DTD/svg11.dtd">
<svg version="1.1" xmlns="http://www.w3.org/2000/svg" xmlns:xlink="http://www.w3.org/1999/xlink" x="0px" y="0px" width="258px"
	 height="346.166px" viewBox="0 0 258 346.166" style="enable-background:new 0 0 258 346.166;" xml:space="preserve">
<g id="nahkhiirmeesMask">
	<rect x="-0.333" y="0.666" style="fill:none;" width="99" height="146"/>
	<g>
		<path style="fill:#0C0809;stroke:#1B2536;stroke-width:4;stroke-linecap:round;stroke-linejoin:round;stroke-miterlimit:10;" d="
			M82.775,60.148c-2.163-5.869-5.317-31.502-5.317-31.502L64.552,49.339c0,0-5.817-2.755-12.043-2.389
			c-6.226-0.366-12.043,2.389-12.043,2.389L27.561,28.646c0,0-3.155,25.633-5.317,31.502c-8.339,12.973,1.544,34.285,1.544,34.285
			c8.648,4.324,23.783,0.615,24.4-1.236c1.385-3.166,3.195-4.174,4.321-4.49c1.126,0.316,2.937,1.324,4.321,4.49
			c0.617,1.852,15.752,5.561,24.4,1.236C81.231,94.433,91.114,73.121,82.775,60.148z M42.028,87.222l-5.924,1.207
			c-3.271,0.665-6.535-1.799-7.289-5.503c-0.756-3.706,1.285-7.251,4.557-7.917l5.924-1.205c3.271-0.667,6.536,1.797,7.291,5.503
			C47.34,83.013,45.299,86.556,42.028,87.222z M76.889,84.335c-1.501,3.652-5.221,5.578-8.309,4.307l-5.591-2.301
			c-3.087-1.271-4.373-5.258-2.87-8.908c1.501-3.648,5.221-5.576,8.309-4.305l5.591,2.301
			C77.107,76.699,78.391,80.687,76.889,84.335z"/>
	</g>
</g>
<g id="Layer_1">
</g>
</svg>
