<?xml version="1.0" encoding="iso-8859-1"?>
<!-- Generator: Adobe Illustrator 16.0.0, SVG Export Plug-In . SVG Version: 6.00 Build 0)  -->
<!DOCTYPE svg PUBLIC "-//W3C//DTD SVG 1.1//EN" "http://www.w3.org/Graphics/SVG/1.1/DTD/svg11.dtd">
<svg version="1.1" xmlns="http://www.w3.org/2000/svg" xmlns:xlink="http://www.w3.org/1999/xlink" x="0px" y="0px" width="258px"
	 height="346.166px" viewBox="0 0 258 346.166" style="enable-background:new 0 0 258 346.166;" xml:space="preserve">
<g id="robinMaskH">
	<rect x="-0.333" y="0.666" style="fill:none;" width="99" height="146"/>
	<path style="fill:#F9F900;stroke:#1B2536;stroke-width:4;stroke-linecap:round;stroke-linejoin:round;stroke-miterlimit:10;" d="
		M25.176,89.47c0,0-6.86-4.966-6.771-21.122c0.077-14.307,6.201-28.166,29.77-33.128c11.164-1.862,13.023-1.238,16.124-6.201
		c0,0.619,5.632,1.247,4.342,8.682c0.621,0.62,9.085,0.62,9.504-3.101c-0.2,2.48,6.064,10.091,2.564,13.275
		c0.645-0.87,15.104,19.752,2.277,39.349c-1.983-0.388-8.36,1.552-4.842-9.1c1.661-6.932,0.42-18.425-8.883-20.742
		c-4.342-1.076-31.587-2.021-36.57,2.793c-2.502,2.953-7.682,16.763-1.991,23.503C33.29,87.317,29.653,94.996,25.176,89.47z"/>
	<path style="fill:#1B1A3A;" d="M82.614,79.972c-0.01-2.343-0.89-4.458-2.544-6.12c-3.281-3.292-8.749-3.98-12.758-3.98
		l-0.322,0.006c-0.464,0.025-0.948,0.047-1.449,0.07c-3.614,0.162-22.424-0.076-26.433-0.076l-0.322,0.006
		c-0.463,0.025-0.949,0.047-1.45,0.07c-5.03,0.228-15.496,0.699-15.511,10.503c-0.005,3.065,1.022,5.714,2.971,7.664
		c2.639,2.645,6.768,3.931,12.618,3.931c1.384,0,2.855-0.071,4.5-0.212c5.616-0.488,8.77-2.174,10.504-4.365
		c0.185,0.222,0.375,0.44,0.582,0.647c2.64,2.645,6.768,3.931,12.618,3.931c1.385,0,2.856-0.071,4.501-0.212
		C81.448,90.848,82.76,84.99,82.614,79.972z M41.264,84.339c-1.427,0.123-2.686,0.185-3.85,0.185c-4.852,0-6.654-1.081-7.298-1.726
		c-0.331-0.331-0.772-0.935-0.77-2.337c0.003-1.815,1.207-2.678,8.329-2.998c0.495-0.026,0.977-0.047,1.44-0.073
		c4.176,0.002,6.609,0.957,7.424,1.771c0.259,0.261,0.351,0.483,0.35,0.855l0.001,0.131C46.974,82.834,47.005,83.84,41.264,84.339z
		 M68.754,84.339c-1.428,0.123-2.327,0.185-3.493,0.185c-4.852,0-6.476-1.081-7.118-1.726c-0.332-0.331-0.684-0.935-0.682-2.337
		c0.003-1.815,1.25-2.678,8.373-2.998c0.496-0.026,1-0.047,1.461-0.073c4.178,0.002,5.908,0.957,6.723,1.771
		c0.259,0.261-0.352,0.483-0.352,0.855v0.131C74.667,82.834,74.496,83.84,68.754,84.339z"/>
</g>
<g id="Layer_1">
</g>
</svg>
