<?xml version="1.0" encoding="iso-8859-1"?>
<!-- Generator: Adobe Illustrator 16.0.0, SVG Export Plug-In . SVG Version: 6.00 Build 0)  -->
<!DOCTYPE svg PUBLIC "-//W3C//DTD SVG 1.1//EN" "http://www.w3.org/Graphics/SVG/1.1/DTD/svg11.dtd">
<svg version="1.1" xmlns="http://www.w3.org/2000/svg" xmlns:xlink="http://www.w3.org/1999/xlink" x="0px" y="0px" width="258px"
	 height="346.166px" viewBox="0 0 258 346.166" style="enable-background:new 0 0 258 346.166;" xml:space="preserve">
<g id="robinBody">
	<rect x="-0.333" y="-0.334" style="fill:none;" width="258" height="347"/>
	<path style="fill:#1D8700;stroke:#1B2536;stroke-width:4;stroke-miterlimit:10;" d="M157.06,175.545
		c2.218-14.144,5.93-56.21,2.224-61.752c-0.98-8.27-8.014-14.684-16.548-14.684c-1.943,0-3.802,0.35-5.536,0.961
		c-7.784-3.171-14.517-7.3-13.92-7.85c8.634-7.957,11.727-20.828,11.727-32.213c0-16.103-11.274-29.153-27.327-29.179
		c-16.052,0.026-27.335,13.09-27.335,29.195c0,11.384,2.298,24.24,10.932,32.197c0.641,0.591-7.108,5.609-15.705,8.856
		c-4.668-1.334-9.874-0.634-14.159,2.372c-6.987,4.899-9.062,14.189-5.118,21.525c0.151,6.663,0.867,37.607,1.431,45.504
		c0.421,8.783,15.762,11.48,17.476,0.846c0.066-0.511,0.2-0.383,0.383-1.672c0.391,3.576,0.732,7.015,0.993,10.015h-0.943
		c0,0-3.305,35.505-4.036,54.029c-0.729,18.522,3.773,77.016,3.773,77.066c0,5.932,4.809,10.278,10.742,10.278
		c5.932,0,10.742-5.039,10.742-10.973c0-0.459,3.541-68.62,8.67-90.254c0.329-1.381,3.845-1.45,4.174-0.069
		c5.131,21.635,8.671,89.656,8.671,90.112c0,5.933,4.81,10.732,10.741,10.732c5.933,0,10.742-4.433,10.742-10.364
		c0-0.047,4.503-58.007,3.773-76.528c-0.731-18.522-4.037-54.03-4.037-54.03h-0.942c0.953-9,3.01-28.236,4.497-44.893
		c-0.547,14.046-2.258,49.467,0.092,52.043C150.747,194.538,154.384,192.6,157.06,175.545z"/>
	<path style="fill:#ED1C24;stroke:#1B2536;stroke-width:4;stroke-linecap:round;stroke-linejoin:round;stroke-miterlimit:10;" d="
		M75.571,101.077c0,0,2.236,20.532,1.831,39.14c-0.021,0.571-2.023,43.514-2.023,43.514s51.23,13.802,63.61-6.251
		c0.817-2.071-6.917-59.807-1.789-77.41c0,0-1.562-2.235-3.967-1.522c-7.205,2.14-10.799,12.993-25.554,12.701
		c-16.81,1.755-22.517-14.21-27.312-12.191C81.921,98.317,75.571,101.077,75.571,101.077z"/>
	<path style="fill:#F9F900;stroke:#1B2536;stroke-width:4;stroke-linecap:round;stroke-linejoin:round;stroke-miterlimit:10;" d="
		M75.918,177.433c0,0,41.62,13.827,63.887-2.024c0.251-1.035,2.791,8.082,2.791,18.533c-3.26,0.867-3.377,2.445-34.918,12.733
		l-33.533-10.286C74.146,196.389,69.743,190.289,75.918,177.433z"/>
	<polygon style="fill:#1D8700;stroke:#1B2536;stroke-width:4;stroke-miterlimit:10;" points="77.622,133.396 55.757,133.708 
		56.457,168.658 76.473,165.183 	"/>
	<path style="fill:#ED1C24;stroke:#1B2536;stroke-width:4;stroke-linecap:round;stroke-linejoin:round;stroke-miterlimit:10;" d="
		M154.549,206.846l-16.377-1.744c0,0-0.084,2.008-0.215,4.422c-0.044,0.828-0.904-0.078-1.926,2.422
		c-2.07,5.071,1.367,4.51,1.311,5.219c-0.097,1.204,0.106-0.591,0,0c-0.433,2.426-0.097,5.452,2.7,6.121
		c2.458,0.314,2.89-2.805,2.89-2.805s-0.665,4.516,2.66,4.816c1.543,0.054,2.837-4.751,2.837-4.751s-0.239,3.763,1.977,3.962
		c2.371,0.234,3.562-4.439,3.562-4.439s-0.764,2.311,2.062,1.746c1.91-0.906,4.303-9.921,1.705-10.684
		c-3.008-0.883-2.146,2.101-2.146,2.101L154.549,206.846z"/>
	<path style="fill:#ED1C24;stroke:#1B2536;stroke-width:4;stroke-miterlimit:10;" d="M137.947,205.666h-0.008
		c0,0-0.2-24.802,1.021-33.605c0.591-15.633,18.632-11.978,19.286-2.337c0.898,13.226-2.581,37.212-2.581,37.212v-0.02
		c-2,1.588-1.194,2.918-2.271,4.252c-2.93,3.635-8.461,4.222-12.097,1.295C139.162,210.741,137.873,206.666,137.947,205.666z"/>
	<polygon style="fill:#1D8700;stroke:#1B2536;stroke-width:4;stroke-miterlimit:10;" points="136.357,128.134 160.854,129.323 
		158.4,166.028 138.385,166.061 	"/>
	<path style="fill:#242438;stroke:#1B2536;stroke-width:4;stroke-miterlimit:10;" d="M106.117,333.317
		c2.262-6.335-2.966-17.113-3.881-21.383c-1.314-6.138,0-31.269,0-31.269H71.549c0,0,1.485,25.757-1.254,35.691
		c-5.691,8.052-6.229,13.818-4.452,17.504c-0.5,0.717-0.798,1.512-0.798,2.453c0,2.453,1.989,4.242,4.439,4.242
		c1.831,0,3.4-0.891,4.079-2.891h0.609c0.679,2,2.249,2.851,4.08,2.851c1.73,0,3.214-0.919,3.944-2.364
		c0.734,1.445,2.217,2.345,3.946,2.345c1.844,0,3.424-0.831,4.094-2.831h0.579c0.671,2,2.25,2.87,4.094,2.87
		c1.731,0,3.215-0.927,3.946-2.372c0.732,1.445,2.215,2.48,3.946,2.48c2.451,0,4.439-1.969,4.439-4.419
		C107.241,335.098,106.809,334.101,106.117,333.317z"/>
	<path style="fill:#242438;stroke:#1B2536;stroke-width:4;stroke-miterlimit:10;" d="M110.78,333.317
		c-2.262-6.335,2.966-17.113,3.881-21.383c1.315-6.138,0-31.269,0-31.269h30.687c0,0-1.483,25.757,1.257,35.691
		c5.69,8.052,6.228,13.818,4.45,17.504c0.5,0.717,0.797,1.512,0.797,2.453c0,2.453-1.987,4.242-4.438,4.242
		c-1.83,0-3.4-0.891-4.078-2.891h-0.61c-0.68,2-2.248,2.851-4.078,2.851c-1.732,0-3.215-0.919-3.947-2.364
		c-0.733,1.445-2.215,2.345-3.945,2.345c-1.845,0-3.425-0.831-4.095-2.831h-0.577c-0.672,2-2.252,2.87-4.095,2.87
		c-1.732,0-3.215-0.927-3.946-2.372c-0.733,1.445-2.215,2.48-3.945,2.48c-2.453,0-4.439-1.969-4.439-4.419
		C109.656,335.098,110.088,334.101,110.78,333.317z"/>
	<path style="fill:#F9F900;stroke:#1B2536;stroke-width:4;stroke-linecap:round;stroke-linejoin:round;stroke-miterlimit:10;" d="
		M144.537,97.889c0,0,26.029,6.376,40.646,62.446c7.943,39.971,7.632,50.756,12.334,59.952c3.277,7.477,0.789,14.656-12.973,12.828
		c-8.416,4.391-15.346-0.047-21.264,3.897s-16.321,7.317-21.852,6.337c-1.172,0.651,13.174-121.753-15.371-145.96
		C121.789,93.768,144.537,97.889,144.537,97.889z"/>
	<path style="fill:#ED1C24;stroke:#1B2536;stroke-width:4;stroke-miterlimit:10;" d="M88.937,204.248l0.007-0.004
		c0,0-11.082-22.27-16.157-29.564c-7.61-13.67-21.999-2.295-18.217,6.598c5.188,12.197,19.202,31.966,19.202,31.966l-0.012-0.028
		c2.281,0.621,2.334,2.082,3.897,2.786c4.257,1.914,9.458,0.006,11.372-4.251C90.151,209.248,90.201,206.57,88.937,204.248z"/>
	<path style="fill:#F9F900;stroke:#1B2536;stroke-width:4;stroke-linecap:round;stroke-linejoin:round;stroke-miterlimit:10;" d="
		M68.363,96.183c0,0-20.661,2.903-35.487,58.921c-8.091,39.941-14.999,51.345-19.735,60.522
		c-3.304,7.464,3.072,13.849,16.842,12.073c8.399,4.418,19.001,4.432,24.904,8.396s16.294,7.379,21.828,6.42
		c1.169,0.653-33.5-86.438,15.913-145.904C96.206,92.305,68.363,96.183,68.363,96.183z"/>
	<path style="fill:#F9F900;stroke:#1B2536;stroke-width:4;stroke-linecap:round;stroke-linejoin:round;stroke-miterlimit:10;" d="
		M125.861,94.832c-0.613,8.393-13.425,9.015-17.108,9.021c-3.684-0.006-16.496-0.628-17.108-9.021
		c-0.265,1.838-19.641,7.854-9.73,19.404c0,0,18.142-11.742,26.568,8.415c0.072-0.089,0.166-0.903,0.271-2.132
		c0.104,1.229,0.197,2.043,0.271,2.132c8.425-20.157,26.568-8.415,26.568-8.415C145.501,102.686,126.126,96.67,125.861,94.832z"/>
	<path style="fill:#ED1C24;stroke:#1B2536;stroke-width:4;stroke-linecap:round;stroke-linejoin:round;stroke-miterlimit:10;" d="
		M74.618,212.689l13.811-8.973c0.001,0.002,0.985,1.753,2.195,3.845c0.414,0.718,0.771-0.479,2.813,1.288
		c4.143,3.584,0.824,4.639,1.195,5.245c0.634,1.031-0.361-0.479,0,0c1.485,1.968,2.557,4.817,0.365,6.68
		c-2.05,1.396-3.848-1.19-3.848-1.19s2.641,3.725-0.188,5.498c-1.352,0.747-4.681-2.95-4.681-2.95s1.917,3.247,0.032,4.427
		c-2.009,1.287-5.187-2.342-5.187-2.342s1.726,1.711-1.046,2.488c-2.117,0.059-8.33-6.896-6.361-8.751
		c2.281-2.149,2.865,0.899,2.865,0.899L74.618,212.689z"/>
	<g>
		<circle style="fill:#1B1A3A;" cx="121.731" cy="131.048" r="7.706"/>
		<circle style="fill:#FFFFFF;" cx="121.731" cy="131.048" r="3.947"/>
	</g>
</g>
<g id="Layer_1">
</g>
</svg>
