<?xml version="1.0" encoding="iso-8859-1"?>
<!-- Generator: Adobe Illustrator 16.0.0, SVG Export Plug-In . SVG Version: 6.00 Build 0)  -->
<!DOCTYPE svg PUBLIC "-//W3C//DTD SVG 1.1//EN" "http://www.w3.org/Graphics/SVG/1.1/DTD/svg11.dtd">
<svg version="1.1" xmlns="http://www.w3.org/2000/svg" xmlns:xlink="http://www.w3.org/1999/xlink" x="0px" y="0px" width="258px"
	 height="346.166px" viewBox="0 0 258 346.166" style="enable-background:new 0 0 258 346.166;" xml:space="preserve">
<g id="robinBodyH">
	<rect x="-0.333" y="-0.334" style="fill:none;" width="258" height="347"/>
	<g>
		<path style="fill:#F9F900;stroke:#1B2536;stroke-width:4;stroke-linecap:round;stroke-linejoin:round;stroke-miterlimit:10;" d="
			M85.398,99.893c0,0-20.993-13.13-52.517,21.033c-25.743,28.383-10.968,42.411-18.034,47.602
			c-5.782,5.19,12.191,16.314,21.512,15.248c9.963-1.064,25.338,10.197,26.643,17.733c1.948,7.538,24.43,13.366,30.853,13.342
			c6.424-0.022,30.347,5.137,46.647-3.866c16.303-9.003,38.187-27.09,44.614-26.275s19.223-0.68,28.215-9.689
			c8.991-9.009,10.92-28.779,0-25.96c-11.562,2.176-22.114-11.955-35.145-25.445c-13.032-13.489-23.891-31.98-47.379-23.123
			C121.476,106.272,91.715,114.71,85.398,99.893z"/>
		<path style="fill:#1D8700;stroke:#1B2536;stroke-width:4;stroke-miterlimit:10;" d="M176.845,154.52
			c-2.613-6.361-13.354-36.961-17.117-42.59c-0.997-8.399-8.138-14.912-16.805-14.912c-1.975,0-3.86,0.354-5.622,0.977
			c-7.905-3.221-14.741-7.414-14.136-7.972c8.767-8.081,11.908-21.152,11.908-32.714c0-16.353-11.45-29.605-27.751-29.632
			c-16.302,0.027-27.76,13.293-27.76,29.649c0,11.561,2.333,24.617,11.102,32.697c0.651,0.6-7.219,5.696-15.95,8.994
			c-4.74-1.355-10.027-0.644-14.378,2.409c-7.096,4.975-9.204,14.409-5.198,21.859c0.152,6.767-14.535,39.153-13.963,47.174
			c0.428,8.92,16.006,11.66,17.748,0.859c0.067-0.518,17.512-36.231,17.697-37.541c0.397,3.632-1.148,40.889-0.884,43.889h-0.957
			c0,0-3.357,36.638-4.1,55.449c-0.741,18.811,3.832,78.502,3.832,78.553c0,6.023,4.884,10.584,10.908,10.584
			s10.909-5.046,10.909-11.07c0-0.466,3.595-69.648,8.805-91.619c0.333-1.403,3.906-1.455,4.239-0.053
			c5.21,21.971,8.807,91.059,8.807,91.522c0,6.025,4.883,10.903,10.907,10.903s10.909-4.499,10.909-10.522
			c0-0.048,4.573-59.489,3.832-78.298c-0.743-18.811-4.101-55.449-4.101-55.449h-0.958c0.969-9,3.059-28.095,4.569-45.01
			c-0.556,14.265,14.797,32.159,17.184,34.774C168.149,175.274,182.658,168.668,176.845,154.52z"/>
		<path style="fill:#ED1C24;stroke:#1B2536;stroke-width:4;stroke-linecap:round;stroke-linejoin:round;stroke-miterlimit:10;" d="
			M74.714,99.017c0,0-5.34,17.747-5.751,36.641c-0.021,0.583,5.557,47.296,5.557,47.296s52.026,14.018,64.597-6.347
			c0.83-2.104,13.17-50.112-1.816-78.612c0,0-1.587-2.27-4.028-1.545c-7.318,2.173-10.967,13.195-25.952,12.897
			c-17.07,1.782-22.866-14.431-27.737-12.38C81.164,96.214,74.714,99.017,74.714,99.017z"/>
		<g>
			<circle style="fill:#1B1A3A;" cx="128.336" cy="130.418" r="7.826"/>
			<circle style="fill:#FFFFFF;" cx="128.336" cy="130.418" r="4.008"/>
		</g>
		<path style="fill:#F9F900;stroke:#1B2536;stroke-width:4;stroke-linecap:round;stroke-linejoin:round;stroke-miterlimit:10;" d="
			M75.067,176.559c0,0,42.267,14.042,64.88-2.056c0.255-1.052,2.835,8.208,2.835,18.821c-3.31,0.881-3.431,2.483-35.461,12.931
			L73.269,195.81C73.269,195.81,68.797,189.614,75.067,176.559z"/>
		<path style="fill:#ED1C24;stroke:#1B2536;stroke-width:4;stroke-miterlimit:10;" d="M176.659,197.28l-0.006,0.003
			c0,0-12.374-21.549-15.681-29.947c-7.269-14.128,10.646-19.762,16.03-11.559c7.389,11.255,16.396,34.334,16.396,34.334
			l-0.012-0.017c-0.886,2.35,0.351,3.202,0.065,4.919c-0.78,4.678-5.574,7.672-10.249,6.893
			C180.458,201.449,178.014,199.833,176.659,197.28z"/>
		<path style="fill:#242438;stroke:#1B2536;stroke-width:4;stroke-miterlimit:10;" d="M105.736,334.866
			c2.297-6.434-3.013-17.744-3.941-22.082c-1.335-6.232,0-32.118,0-32.118H70.63c0,0,1.508,26.522-1.274,36.61
			c-5.779,8.178-6.326,14.216-4.521,17.96c-0.508,0.727-0.811,1.626-0.811,2.582c0,2.491,2.02,4.045,4.508,4.045
			c1.859,0,3.453-1.197,4.143-3.197h0.619c0.69,2,2.283,3.204,4.143,3.204c1.758,0,3.264-0.78,4.007-2.249
			c0.744,1.469,2.25,2.15,4.006,2.15c1.873,0,3.477-1.105,4.158-3.105h0.588c0.682,2,2.286,3.224,4.158,3.224
			c1.758,0,3.265-0.788,4.007-2.257c0.745,1.469,2.25,2.597,4.006,2.597c2.491,0,4.509-1.962,4.509-4.449
			C106.877,336.635,106.437,335.662,105.736,334.866z"/>
		<path style="fill:#242438;stroke:#1B2536;stroke-width:4;stroke-miterlimit:10;" d="M110.471,334.866
			c-2.297-6.434,3.013-17.744,3.939-22.082c1.337-6.232,0-32.118,0-32.118h31.166c0,0-1.508,26.522,1.274,36.61
			c5.78,8.178,6.326,14.216,4.521,17.96c0.508,0.727,0.81,1.626,0.81,2.582c0,2.491-2.019,4.045-4.508,4.045
			c-1.859,0-3.452-1.197-4.142-3.197h-0.619c-0.689,2-2.284,3.204-4.144,3.204c-1.757,0-3.264-0.78-4.006-2.249
			c-0.745,1.469-2.251,2.15-4.007,2.15c-1.873,0-3.479-1.105-4.158-3.105h-0.589c-0.68,2-2.286,3.224-4.156,3.224
			c-1.76,0-3.266-0.788-4.008-2.257c-0.744,1.469-2.25,2.597-4.007,2.597c-2.49,0-4.508-1.962-4.508-4.449
			C109.33,336.635,109.769,335.662,110.471,334.866z"/>
		<path style="fill:#ED1C24;stroke:#1B2536;stroke-width:4;stroke-miterlimit:10;" d="M42.363,198.32l0.005,0.004
			c0,0,14.359-20.779,18.355-28.872c8.419-13.476-8.757-20.684-14.805-12.96c-8.3,10.601-18.998,32.762-18.998,32.762l0.019-0.024
			c0.568,2.331-0.707,3.098-0.563,4.83c0.388,4.726,4.637,8.411,9.361,8.024C38.511,201.854,40.917,200.584,42.363,198.32z"/>
		<path style="fill:#F9F900;stroke:#1B2536;stroke-width:4;stroke-linecap:round;stroke-linejoin:round;stroke-miterlimit:10;" d="
			M125.787,92.675c-0.623,8.523-13.635,9.155-17.375,9.161c-3.74-0.006-16.752-0.638-17.375-9.161
			c-0.27,1.867-19.944,7.976-9.88,19.705c0,0,18.423-11.924,26.98,8.546c0.074-0.091,0.169-0.917,0.275-2.166
			c0.105,1.249,0.2,2.075,0.274,2.166c8.557-20.47,26.982-8.546,26.982-8.546C145.731,100.65,126.055,94.542,125.787,92.675z"/>
		<path style="fill:#ED1C24;stroke:#1B2536;stroke-width:4;stroke-miterlimit:10;" d="M164.554,208.848
			c1.182,3.07,7.683-3.279,9.833-1.917c1.674,1.06-6.771,9.237-2.15,11.405c2.787,1.986,6.806-9.395,8.852-8.546
			c2.116,0.299,0.292,6.892,0.134,9.354c0.438,4.547,6.794,4.855,6.192,0.086c-0.222-1.778,0.085-6.672,0.018-8.62
			c0.385-3.538,2.037-3.519,3.344-0.401c0.95,2.285,2.724,7.174,2.724,7.174c1.431,6.439,10.778,2.881,6.685-3.141
			c-4.14-6.088-6.092-11.447-5.098-13.352c5.938,1.02,8.606,4.506,11.135,0.748c0.504-2.158-3.047-5.518-8.195-7.504
			c-1.736-2.148-4.021-3.932-4.021-3.932c-3.471-7.094-14.99-2.827-15.223-2.689c-7.555,2.986-6.014,13.746-6.207,13.796
			C170.659,201.812,161.594,204.4,164.554,208.848z"/>
		<path style="fill:#ED1C24;stroke:#1B2536;stroke-width:4;stroke-miterlimit:10;" d="M53.444,205.957
			c-1.181,3.069-7.682-3.277-9.833-1.916c-1.675,1.06,6.771,9.236,2.15,11.404c-2.788,1.986-6.807-9.395-8.853-8.545
			c-2.115,0.299-0.291,6.891-0.133,9.355c-0.438,4.546-6.794,4.854-6.193,0.084c0.223-1.777-0.084-6.672-0.017-8.619
			c-0.386-3.538-2.037-3.52-3.344-0.402c-0.95,2.283-2.724,7.176-2.724,7.176c-1.43,6.436-10.778,2.877-6.683-3.145
			c4.139-6.086,6.092-11.445,5.097-13.35c-5.938,1.02-8.607,4.506-11.135,0.749c-0.504-2.157,3.047-5.519,8.194-7.505
			c1.738-2.148,4.021-3.93,4.021-3.93c3.471-7.096,14.991-2.828,15.223-2.693c7.554,2.988,6.015,13.748,6.208,13.799
			C47.339,198.922,56.404,201.509,53.444,205.957z"/>
	</g>
</g>
<g id="Layer_1">
</g>
</svg>
