<?xml version="1.0" encoding="utf-8"?>
<!-- Generator: Adobe Illustrator 16.0.0, SVG Export Plug-In . SVG Version: 6.00 Build 0)  -->
<!DOCTYPE svg PUBLIC "-//W3C//DTD SVG 1.1//EN" "http://www.w3.org/Graphics/SVG/1.1/DTD/svg11.dtd">
<svg version="1.1" id="Layer_1" xmlns="http://www.w3.org/2000/svg" xmlns:xlink="http://www.w3.org/1999/xlink" x="0px" y="0px"
	 width="68.633px" height="116.993px" viewBox="0 0 68.633 116.993" enable-background="new 0 0 68.633 116.993"
	 xml:space="preserve">
<g id="shark_5_">
	<path fill="#2171E4" stroke="#44484F" stroke-width="4" stroke-miterlimit="10" d="M37.633,44.096c0-0.002,0-0.008,0-0.008
		C2.633,42.981,7.07,77.285,7.07,77.285C14.496,66.051,30.753,65,35.819,64.942C40.888,65,57.446,66.051,64.872,77.285
		C64.872,77.285,67.633,45.111,37.633,44.096z"/>
	<path fill="#F9F900" fill-opacity="0.8" stroke="#44484F" stroke-width="4" stroke-miterlimit="10" d="M58.888,82.842
		c-0.156-1.72-0.957-4.523-6.142-5.866c-9.43-2.443-21.946-4.539-33.005,0c-4.953,2.033-5.977,4.146-6.135,5.866
		c-0.846,9.22,5.289,11.315,9.096,11.105c5.5,0.21,8.673-6.914,9.73-9.847c1.125-3.501,2.98-2.98,3.808-3.009
		c0.831,0.028,2.69-0.492,3.814,3.009c1.058,2.933,4.234,10.057,9.734,9.847C53.597,94.157,59.734,92.062,58.888,82.842z"/>
	<path fill="#F9F900" stroke="#44484F" stroke-width="4" stroke-miterlimit="10" d="M39.865,97.677
		c-1.787,0-2.812,2.034-4.469,2.034s-2.682-2.034-4.469-2.034c-1.192,0-2.302,0.354-3.231,0.957
		c-2.998-2.136-6.91-5.07-10.742-8.379c-5.018-5.487-7.266-39.96-8.205-54.303c0.072-10.494,3.015-25.808,4.368-30.159
		C12.907,5.778,5.814,4.05,5.814,4.05S2.181,26.466,1.792,35.377c-0.572,8.477,5.976,52.798,8.395,57.789
		c3.931,4.888,10.948,9.452,15.307,12.649c0.899,2.093,2.994,3.56,5.435,3.56c1.787,0,2.812-2.032,4.469-2.032
		s2.682,2.032,4.469,2.032c3.261,0,5.905-2.618,5.905-5.849S43.126,97.677,39.865,97.677z"/>
	<path fill="#F9F900" stroke="#44484F" stroke-width="4" stroke-miterlimit="10" d="M4.356,4.357
		C4.653,1.619,6.915,1.66,9.679,1.954c2.764,0.295,4.982,0.729,4.686,3.467c-0.296,2.737-2.777,4.718-5.541,4.424
		S4.061,7.094,4.356,4.357z"/>
	
		<path fill="#3396E4" stroke="#44484F" stroke-width="4" stroke-linecap="round" stroke-linejoin="round" stroke-miterlimit="10" d="
		M29.491,44.062l5.267-19.418l5.878,19.933c0,0-0.611,8.048-5.4,8.048C31.429,52.624,28.753,46.578,29.491,44.062z"/>
</g>
</svg>
