<?xml version="1.0" encoding="iso-8859-1"?>
<!-- Generator: Adobe Illustrator 16.0.0, SVG Export Plug-In . SVG Version: 6.00 Build 0)  -->
<!DOCTYPE svg PUBLIC "-//W3C//DTD SVG 1.1//EN" "http://www.w3.org/Graphics/SVG/1.1/DTD/svg11.dtd">
<svg version="1.1" xmlns="http://www.w3.org/2000/svg" xmlns:xlink="http://www.w3.org/1999/xlink" x="0px" y="0px" width="258px"
	 height="346.166px" viewBox="0 0 258 346.166" style="enable-background:new 0 0 258 346.166;" xml:space="preserve">
<g id="sharkmanBody">
	<rect x="-0.333" y="-0.334" style="fill:none;" width="258" height="347"/>
	<g>
		<g>
			<path style="fill:#3396E4;stroke:#1B2536;stroke-width:4;stroke-linecap:round;stroke-linejoin:round;stroke-miterlimit:10;" d="
				M161.572,118.226c0,0,11.682,3.511,18.277,5.068c3.143,1.555,6.875,4.372,2.162,6.372c-4.712,0-12.881,0-12.881,0
				L161.572,118.226z"/>
			<path style="fill:#3396E4;stroke:#1B2536;stroke-width:4;stroke-linecap:round;stroke-linejoin:round;stroke-miterlimit:10;" d="
				M168.483,127.704c0,0,11.683,3.272,18.278,4.827c3.143,1.558,6.874,4.135,2.162,6.135c-4.713,0-12.882,0-12.882,0
				L168.483,127.704z"/>
			<path style="fill:#3396E4;stroke:#1B2536;stroke-width:4;stroke-linecap:round;stroke-linejoin:round;stroke-miterlimit:10;" d="
				M175.394,137.684c0,0,11.683,3.282,18.279,4.836c3.141,1.556,6.872,5.146,2.161,6.146c-4.711,0-12.88,0-12.88,0L175.394,137.684z
				"/>
			<path style="fill:#3396E4;stroke:#1B2536;stroke-width:4;stroke-linecap:round;stroke-linejoin:round;stroke-miterlimit:10;" d="
				M54.816,118.226c0,0-11.68,3.511-18.277,5.068c-3.143,1.555-6.874,4.372-2.162,6.372c4.712,0,12.88,0,12.88,0L54.816,118.226z"/>
			<path style="fill:#3396E4;stroke:#1B2536;stroke-width:4;stroke-linecap:round;stroke-linejoin:round;stroke-miterlimit:10;" d="
				M47.905,127.704c0,0-11.681,3.272-18.278,4.827c-3.141,1.558-6.873,4.135-2.162,6.135c4.713,0,12.881,0,12.881,0L47.905,127.704z
				"/>
			<path style="fill:#3396E4;stroke:#1B2536;stroke-width:4;stroke-linecap:round;stroke-linejoin:round;stroke-miterlimit:10;" d="
				M40.994,137.684c0,0-11.681,3.282-18.277,4.836c-3.142,1.556-6.873,5.146-2.161,6.146c4.711,0,12.88,0,12.88,0L40.994,137.684z"
				/>
			<path style="fill:#F9F900;stroke:#1B2536;stroke-width:4;stroke-linecap:round;stroke-linejoin:round;stroke-miterlimit:10;" d="
				M104.166,333.924c-0.183-0.359-3.504-4.777-4.133-7.89c-0.534-2.649-1.032-3.354-1.695-5.248
				c0.033-0.346,0.054-0.694,0.054-1.048c0-6.124-5.012-11.09-11.195-11.09c-6.182,0-11.194,4.966-11.194,11.09
				c0,0.261,0.021,0.516,0.039,0.773c-0.351,1.256-1.011,3.793-1.453,6.611c-0.489,2.865-2.178,5.737-3.608,8.293
				c-1.135,0.335-1.968,1.365-1.968,2.599c0,1.503,1.23,2.723,2.749,2.723c1.098,0,2.037-0.642,2.478-1.562
				c0.264,1.849,1.864,3.274,3.805,3.274c1.299,0,2.444-1.264,3.143-2.239c0.697,0.976,1.842,2.239,3.141,2.239
				c1.52,0,2.83-0.875,3.456-2.144c0.625,1.269,1.935,2.144,3.456,2.144c1.861,0,3.416-1.312,3.771-3.054
				c0.803,1.972,2.748,3.364,5.023,3.364c2.993,0,5.419-2.402,5.419-5.368C105.452,336.069,104.968,334.86,104.166,333.924z"/>
			<path style="fill:#F9F900;stroke:#1B2536;stroke-width:4;stroke-linecap:round;stroke-linejoin:round;stroke-miterlimit:10;" d="
				M113.985,333.924c0.183-0.359,3.505-4.777,4.132-7.89c0.536-2.649,1.033-3.354,1.695-5.248c-0.031-0.346-0.053-0.694-0.053-1.048
				c0-6.124,5.011-11.09,11.194-11.09c6.183,0,11.194,4.966,11.194,11.09c0,0.261-0.021,0.516-0.038,0.773
				c0.353,1.256,1.01,3.793,1.453,6.611c0.486,2.865,2.177,5.737,3.608,8.293c1.134,0.335,1.967,1.365,1.967,2.599
				c0,1.503-1.23,2.723-2.749,2.723c-1.096,0-2.036-0.642-2.477-1.562c-0.265,1.849-1.865,3.274-3.806,3.274
				c-1.298,0-2.444-1.264-3.142-2.239c-0.697,0.976-1.843,2.239-3.141,2.239c-1.521,0-2.831-0.875-3.456-2.144
				c-0.626,1.269-1.937,2.144-3.456,2.144c-1.862,0-3.417-1.312-3.772-3.054c-0.802,1.972-2.747,3.364-5.023,3.364
				c-2.993,0-5.42-2.402-5.42-5.368C112.697,336.069,113.184,334.86,113.985,333.924z"/>
			<path style="fill:#2171E4;stroke:#1B2536;stroke-width:4;stroke-miterlimit:10;" d="M187.057,153.623
				c-4.145-6.844-21.627-32.795-25.397-38.383c-0.997-8.338-8.154-14.804-16.839-14.804c-1.964,0-3.846,0.334-5.601,0.942
				c-5.054-2.518-8.346-4.729-16.467-2.123c-2.959,1.393-4.049-1.698-4.141-4.072c1.705-0.68,3.193-1.416,3.979-2.135
				c8.785-8.02,15.254-20.53,15.254-32.004c0-16.233-12.365-29.396-28.7-29.423c-16.336,0.027-28.711,13.19-28.711,29.423
				c0,11.474,6.46,23.985,15.248,32.004c0.768,0.702,2.203,1.42,3.857,2.086c-0.086,2.331-1.174,5.361-4.141,3.966
				c-8.102-2.601-11.397-0.288-16.43,2.289c-1.765-0.616-3.66-0.954-5.638-0.954c-8.685,0-15.839,6.465-16.839,14.804
				c-3.77,5.588-21.251,31.539-25.397,38.383c-4.781,7.492,6.424,18.597,14.068,10.812c2.388-2.595,19.075-20.781,27.729-29.833
				c1.515,16.834,3.625,36.064,4.601,44.064h-0.96c0,0-3.363,37.278-4.108,55.948c-0.744,18.669,3.839,78.378,3.839,78.425
				c0,5.98,4.895,10.732,10.932,10.732c6.038,0,10.933-4.893,10.933-10.873c0-0.463,3.602-69.074,8.823-90.883
				c0.333-1.391,3.915-1.417,4.248-0.023c5.22,21.807,8.824,90.396,8.824,90.859c0,5.979,4.895,10.828,10.931,10.828
				c6.038,0,10.932-4.461,10.932-10.441c0-0.048,4.584-59.956,3.839-78.625c-0.744-18.67-4.107-55.947-4.107-55.947h-0.96
				c0.976-8,3.085-27.223,4.597-44.068c8.653,9.052,25.346,26.884,27.734,29.479C180.633,171.864,191.838,161.115,187.057,153.623z"
				/>
			<g>
				<ellipse style="fill:#78C4FF;" cx="104.118" cy="159.247" rx="4.397" ry="4.355"/>
				<ellipse style="fill:#66B4F2;" cx="117.94" cy="148.045" rx="9.11" ry="9.023"/>
				<ellipse style="fill:#3396E4;" cx="99.719" cy="136.843" rx="9.111" ry="9.023"/>
			</g>
		</g>
		<g>
			<path style="fill:#2171E4;stroke:#1B2536;stroke-width:4;stroke-miterlimit:10;" d="M144.143,171.308l-0.005-0.008
				c0,0,19.429-15.756,27.185-20.367c12.766-9.423,21.226,6.614,14.007,13.224c-9.906,9.07-31.26,21.044-31.26,21.044l-0.002-0.002
				c-1.355,0.882-2.974,1.398-4.716,1.398c-4.752,0-8.603-3.814-8.603-8.521C140.749,175.313,142.083,172.863,144.143,171.308z"/>
			<path style="fill:#3396E4;stroke:#1B2536;stroke-width:4;stroke-linecap:round;stroke-linejoin:round;stroke-miterlimit:10;" d="
				M153.616,185.258L144.54,171.3c-0.001,0-1.645,1.205-3.641,2.629c-0.683,0.487-0.516-0.758-3.147,0.021
				c-5.342,1.581-2.702,3.923-3.299,4.328c-1.016,0.687,0.537-0.292,0,0c-2.2,1.194-4.384,3.375-3.127,5.991
				c1.32,2.128,4.07,0.494,4.07,0.494s-4.007,2.334-2.121,5.135c0.941,1.244,5.576-0.778,5.576-0.778s-3.134,2.19-1.879,4.058
				c1.329,2.009,5.795-0.013,5.795-0.013s-2.32,0.862-0.068,2.723c1.938,0.927,10.608-2.898,9.555-5.42
				c-1.221-2.919-3.036-0.354-3.036-0.354L153.616,185.258z"/>
		</g>
		<g>
			<path style="fill:#2171E4;stroke:#1B2536;stroke-width:4;stroke-miterlimit:10;" d="M74.01,171.308l0.004-0.008
				c0,0-19.429-15.756-27.187-20.367c-12.764-9.423-21.433,6.614-14.213,13.224c9.906,9.07,31.052,21.044,31.052,21.044v-0.002
				c3,0.882,3.182,1.398,4.926,1.398c4.749,0,8.706-3.814,8.706-8.521C77.298,175.313,76.068,172.863,74.01,171.308z"/>
			<path style="fill:#3396E4;stroke:#1B2536;stroke-width:4;stroke-linecap:round;stroke-linejoin:round;stroke-miterlimit:10;" d="
				M64.535,185.258l9.077-13.958c0,0,1.644,1.205,3.64,2.629c0.682,0.487,0.516-0.758,3.147,0.021
				c5.341,1.581,2.701,3.923,3.298,4.328c1.016,0.687-0.536-0.292,0,0c2.2,1.194,4.384,3.375,3.128,5.991
				c-1.321,2.128-4.07,0.494-4.07,0.494s4.006,2.334,2.121,5.135c-0.942,1.244-5.577-0.778-5.577-0.778s3.135,2.19,1.878,4.058
				c-1.328,2.009-5.793-0.013-5.793-0.013s2.319,0.862,0.067,2.723c-1.936,0.927-10.607-2.898-9.553-5.42
				c1.22-2.919,3.035-0.354,3.035-0.354L64.535,185.258z"/>
		</g>
	</g>
</g>
<g id="Layer_1">
</g>
</svg>
