<?xml version="1.0" encoding="utf-8"?>
<!-- Generator: Adobe Illustrator 16.0.0, SVG Export Plug-In . SVG Version: 6.00 Build 0)  -->
<!DOCTYPE svg PUBLIC "-//W3C//DTD SVG 1.1//EN" "http://www.w3.org/Graphics/SVG/1.1/DTD/svg11.dtd">
<svg version="1.1" id="Layer_1" xmlns="http://www.w3.org/2000/svg" xmlns:xlink="http://www.w3.org/1999/xlink" x="0px" y="0px"
	 width="187.965px" height="320.881px" viewBox="0 0 187.965 320.881" enable-background="new 0 0 187.965 320.881"
	 xml:space="preserve">
<g>
	
		<path fill="#3396E4" stroke="#44484F" stroke-width="4" stroke-linecap="round" stroke-linejoin="round" stroke-miterlimit="10" d="
		M147.46,89.187c0,0,11.868,3.603,18.571,5.185c3.192,1.58,6.984,4.51,2.196,6.51c-4.788,0-13.087,0-13.087,0L147.46,89.187z"/>
	
		<path fill="#3396E4" stroke="#44484F" stroke-width="4" stroke-linecap="round" stroke-linejoin="round" stroke-miterlimit="10" d="
		M154.482,99.246c0,0,11.869,3.572,18.571,5.152c3.192,1.582,6.983,4.482,2.196,6.482c-4.789,0-13.088,0-13.088,0L154.482,99.246z"
		/>
	
		<path fill="#3396E4" stroke="#44484F" stroke-width="4" stroke-linecap="round" stroke-linejoin="round" stroke-miterlimit="10" d="
		M161.504,108.805c0,0,11.869,3.293,18.572,4.874c3.191,1.58,6.982,5.202,2.195,6.202c-4.787,0-13.086,0-13.086,0L161.504,108.805z"
		/>
	
		<path fill="#3396E4" stroke="#44484F" stroke-width="4" stroke-linecap="round" stroke-linejoin="round" stroke-miterlimit="10" d="
		M38.99,89.187c0,0-11.867,3.603-18.57,5.185c-3.192,1.58-6.984,4.51-2.196,6.51c4.788,0,13.087,0,13.087,0L38.99,89.187z"/>
	
		<path fill="#3396E4" stroke="#44484F" stroke-width="4" stroke-linecap="round" stroke-linejoin="round" stroke-miterlimit="10" d="
		M31.969,99.246c0,0-11.868,3.572-18.571,5.152c-3.191,1.582-6.983,4.482-2.196,6.482c4.789,0,13.088,0,13.088,0L31.969,99.246z"/>
	
		<path fill="#3396E4" stroke="#44484F" stroke-width="4" stroke-linecap="round" stroke-linejoin="round" stroke-miterlimit="10" d="
		M24.946,108.805c0,0-11.868,3.293-18.57,4.874c-3.192,1.58-6.984,5.202-2.196,6.202c4.787,0,13.086,0,13.086,0L24.946,108.805z"/>
	
		<path fill="#F9F900" stroke="#44484F" stroke-width="4" stroke-linecap="round" stroke-linejoin="round" stroke-miterlimit="10" d="
		M89.133,308.278c-0.186-0.365-3.561-4.854-4.199-8.017c-0.543-2.692-1.049-3.407-1.723-5.333c0.033-0.351,0.055-0.705,0.055-1.063
		c0-6.223-5.093-11.268-11.375-11.268c-6.281,0-11.375,5.045-11.375,11.268c0,0.265,0.022,0.523,0.04,0.785
		c-0.356,1.277-1.026,3.854-1.476,6.719c-0.496,2.91-2.213,5.828-3.666,8.426c-1.153,0.34-2,1.387-2,2.64
		c0,1.527,1.25,2.767,2.793,2.767c1.115,0,2.069-0.652,2.518-1.588c0.269,1.879,1.895,3.326,3.866,3.326
		c1.319,0,2.483-1.282,3.192-2.273c0.708,0.991,1.872,2.273,3.191,2.273c1.545,0,2.876-0.889,3.512-2.177
		c0.635,1.288,1.966,2.177,3.511,2.177c1.892,0,3.471-1.332,3.832-3.102c0.815,2.003,2.792,3.418,5.104,3.418
		c3.041,0,5.506-2.441,5.506-5.454C90.439,310.458,89.947,309.229,89.133,308.278z"/>
	
		<path fill="#F9F900" stroke="#44484F" stroke-width="4" stroke-linecap="round" stroke-linejoin="round" stroke-miterlimit="10" d="
		M99.109,308.278c0.186-0.365,3.561-4.854,4.198-8.017c0.544-2.692,1.05-3.407,1.723-5.333c-0.032-0.351-0.054-0.705-0.054-1.063
		c0-6.223,5.092-11.268,11.374-11.268s11.375,5.045,11.375,11.268c0,0.265-0.022,0.523-0.04,0.785
		c0.357,1.277,1.026,3.854,1.477,6.719c0.494,2.91,2.213,5.828,3.666,8.426c1.152,0.34,1.999,1.387,1.999,2.64
		c0,1.527-1.251,2.767-2.793,2.767c-1.114,0-2.069-0.652-2.517-1.588c-0.27,1.879-1.896,3.326-3.867,3.326
		c-1.318,0-2.484-1.282-3.191-2.273c-0.709,0.991-1.873,2.273-3.191,2.273c-1.545,0-2.877-0.889-3.512-2.177
		c-0.636,1.288-1.967,2.177-3.512,2.177c-1.893,0-3.471-1.332-3.832-3.102c-0.814,2.003-2.791,3.418-5.104,3.418
		c-3.041,0-5.507-2.441-5.507-5.454C97.801,310.458,98.295,309.229,99.109,308.278z"/>
	<path fill="#2171E4" stroke="#44484F" stroke-width="4" stroke-miterlimit="10" d="M173.354,125.083
		c-4.212-6.953-21.975-33.321-25.805-38.999c-1.015-8.472-8.286-15.041-17.11-15.041c-1.995,0-3.907,0.34-5.689,0.957
		c-5.136-2.559-8.479-4.805-16.731-2.156c-3.007,1.415-4.114-1.726-4.207-4.138c1.732-0.69,3.244-1.438,4.043-2.169
		c8.927-8.148,15.499-20.86,15.499-32.519c0-16.493-12.564-29.868-29.161-29.896C77.593,1.15,65.021,14.525,65.021,31.019
		c0,11.658,6.563,24.37,15.492,32.519c0.78,0.713,2.238,1.442,3.919,2.119c-0.088,2.368-1.193,5.447-4.207,4.03
		c-8.231-2.643-11.58-0.292-16.693,2.326c-1.793-0.626-3.719-0.97-5.729-0.97c-8.824,0-16.094,6.569-17.109,15.041
		c-3.83,5.678-21.593,32.046-25.805,38.999c-4.857,7.612,6.527,18.896,14.294,10.985c2.427-2.637,19.382-20.938,28.175-30.136
		c1.539,17.104,3.684,36.948,4.675,44.948h-0.976c0,0-3.417,37.7-4.174,56.67c-0.756,18.969,3.9,79.546,3.9,79.596
		c0,6.075,4.974,10.861,11.107,10.861c6.135,0,11.107-4.994,11.107-11.07c0-0.47,3.66-70.194,8.965-92.354
		c0.339-1.413,3.977-1.444,4.315-0.028c5.305,22.157,8.966,91.844,8.966,92.314c0,6.075,4.973,11.001,11.106,11.001
		s11.106-4.533,11.106-10.608c0-0.05,4.657-60.743,3.901-79.713c-0.757-18.969-4.174-56.669-4.174-56.669h-0.976
		c0.991-8,3.134-27.836,4.672-44.952c8.791,9.197,25.751,27.228,28.179,29.864C166.826,143.704,178.211,132.695,173.354,125.083z"/>
	<g>
		<ellipse fill="#78C4FF" cx="89.084" cy="130.798" rx="4.469" ry="4.426"/>
		<ellipse fill="#66B4F2" cx="103.128" cy="119.416" rx="9.257" ry="9.168"/>
		<ellipse fill="#3396E4" cx="84.614" cy="108.034" rx="9.257" ry="9.168"/>
	</g>
</g>
<g>
	<path fill="#2171E4" stroke="#44484F" stroke-width="4" stroke-miterlimit="10" d="M129.75,143.052l-0.005-0.008
		c0,0,19.741-16.009,27.622-20.693c12.97-9.574,21.565,6.72,14.231,13.437c-10.065,9.216-31.763,21.382-31.763,21.382l-0.002-0.002
		c-1.376,0.896-3.021,1.421-4.791,1.421c-4.828,0-8.74-3.876-8.74-8.658C126.303,147.122,127.658,144.633,129.75,143.052z"/>
	
		<path fill="#3396E4" stroke="#44484F" stroke-width="4" stroke-linecap="round" stroke-linejoin="round" stroke-miterlimit="10" d="
		M139.376,157.226l-9.222-14.182c-0.001,0-1.671,1.225-3.699,2.672c-0.693,0.495-0.523-0.771-3.198,0.021
		c-5.427,1.606-2.745,3.986-3.352,4.397c-1.032,0.697,0.545-0.297,0,0c-2.235,1.214-4.454,3.429-3.177,6.088
		c1.342,2.161,4.135,0.501,4.135,0.501s-4.07,2.371-2.154,5.217c0.957,1.265,5.665-0.79,5.665-0.79s-3.185,2.226-1.908,4.123
		c1.35,2.041,5.887-0.013,5.887-0.013s-2.356,0.876-0.068,2.766c1.969,0.942,10.778-2.945,9.708-5.507
		c-1.24-2.966-3.085-0.36-3.085-0.36L139.376,157.226z"/>
</g>
<g>
	<path fill="#2171E4" stroke="#44484F" stroke-width="4" stroke-miterlimit="10" d="M58.492,143.052l0.004-0.008
		c0,0-19.741-16.009-27.623-20.693c-12.969-9.574-21.785,6.72-14.45,13.437c10.065,9.216,31.542,21.382,31.542,21.382v-0.002
		c2,0.896,3.242,1.421,5.014,1.421c4.826,0,8.851-3.876,8.851-8.658C61.829,147.122,60.583,144.633,58.492,143.052z"/>
	
		<path fill="#3396E4" stroke="#44484F" stroke-width="4" stroke-linecap="round" stroke-linejoin="round" stroke-miterlimit="10" d="
		M48.865,157.226l9.223-14.182c0,0,1.67,1.225,3.698,2.672c0.693,0.495,0.524-0.771,3.198,0.021
		c5.427,1.606,2.744,3.986,3.352,4.397c1.032,0.697-0.545-0.297,0,0c2.234,1.214,4.454,3.429,3.178,6.088
		c-1.342,2.161-4.135,0.501-4.135,0.501s4.069,2.371,2.154,5.217c-0.957,1.265-5.666-0.79-5.666-0.79s3.186,2.226,1.908,4.123
		c-1.35,2.041-5.887-0.013-5.887-0.013s2.356,0.876,0.068,2.766c-1.968,0.942-10.777-2.945-9.707-5.507
		c1.239-2.966,3.084-0.36,3.084-0.36L48.865,157.226z"/>
</g>
</svg>
