<?xml version="1.0" encoding="iso-8859-1"?>
<!-- Generator: Adobe Illustrator 16.0.0, SVG Export Plug-In . SVG Version: 6.00 Build 0)  -->
<!DOCTYPE svg PUBLIC "-//W3C//DTD SVG 1.1//EN" "http://www.w3.org/Graphics/SVG/1.1/DTD/svg11.dtd">
<svg version="1.1" xmlns="http://www.w3.org/2000/svg" xmlns:xlink="http://www.w3.org/1999/xlink" x="0px" y="0px" width="258px"
	 height="346.166px" viewBox="0 0 258 346.166" style="enable-background:new 0 0 258 346.166;" xml:space="preserve">
<g id="sharkmanMaskH">
	<rect x="-0.333" y="0.666" style="fill:none;" width="99" height="146"/>
	<rect x="-0.333" y="0.666" style="fill:none;" width="99" height="146"/>
	<g id="shark_1_">
		<path style="fill:#2171E4;stroke:#1B2536;stroke-width:4;stroke-miterlimit:10;" d="M51.667,47.529c0-0.002,0-0.008,0-0.008
			c-36-1.136-30.387,34.074-30.387,34.074c7.621-11.531,24.799-12.61,30-12.669c5.202,0.06,21.46,1.138,29.082,12.669
			C80.361,81.595,82.667,48.571,51.667,47.529z"/>
		<path style="fill:#F9F900;fill-opacity:0.4;stroke:#1B2536;stroke-width:4;stroke-miterlimit:10;" d="M75.448,87.298
			c-0.16-1.765-0.878-5.144-6.303-6.021c-10.646-1.72-21.937-1.72-33.877,0c-5.44,0.784-6.134,4.256-6.297,6.021
			c-0.868,9.463,5.429,11.614,9.336,11.398c5.645,0.216,8.901-7.097,9.987-10.106c1.155-3.594,3.059-4.085,3.91-4.115
			c0.852,0.029,2.761,0.521,3.914,4.115c1.085,3.01,4.347,10.322,9.992,10.106C70.018,98.912,76.316,96.761,75.448,87.298z"/>
		<path style="fill:#F9F900;stroke:#1B2536;stroke-width:4;stroke-miterlimit:10;" d="M55.922,102.524
			c-1.834,0-2.886,2.088-4.586,2.088c-1.701,0-2.752-2.088-4.588-2.088c-1.223,0-2.361,0.363-3.315,0.982
			c-3.079-2.192-7.092-5.204-11.026-8.6c-5.15-5.632-7.457-41.015-8.422-55.736c0.075-10.771,3.094-26.489,4.484-30.956
			c-0.216-0.015-7.496-1.789-7.496-1.789s-3.729,23.008-4.128,32.155c-0.588,8.7,6.133,54.191,8.616,59.314
			c4.035,5.017,11.237,9.702,15.71,12.983c0.923,2.148,3.072,3.653,5.577,3.653c1.835,0,2.887-2.086,4.588-2.086
			c1.7,0,2.752,2.086,4.586,2.086c3.349,0,6.062-2.687,6.062-6.003S59.271,102.524,55.922,102.524z"/>
		<path style="fill:#F9F900;stroke:#1B2536;stroke-width:4;stroke-miterlimit:10;" d="M19.477,6.741
			c0.305-2.811,2.626-2.768,5.462-2.467c2.837,0.303,5.114,0.749,4.81,3.559c-0.304,2.81-2.852,4.842-5.687,4.541
			C21.225,12.071,19.173,9.55,19.477,6.741z"/>
		<path style="fill:#3396E4;stroke:#1B2536;stroke-width:4;stroke-linecap:round;stroke-linejoin:round;stroke-miterlimit:10;" d="
			M45.275,47.494l5.406-19.931l6.033,20.459c0,0-0.628,8.26-5.544,8.26C47.264,56.282,44.517,50.077,45.275,47.494z"/>
	</g>
	<rect x="-1.333" y="0.666" style="fill:none;" width="101" height="146"/>
</g>
<g id="Layer_1">
</g>
</svg>
