<?xml version="1.0" encoding="iso-8859-1"?>
<!-- Generator: Adobe Illustrator 16.0.0, SVG Export Plug-In . SVG Version: 6.00 Build 0)  -->
<!DOCTYPE svg PUBLIC "-//W3C//DTD SVG 1.1//EN" "http://www.w3.org/Graphics/SVG/1.1/DTD/svg11.dtd">
<svg version="1.1" xmlns="http://www.w3.org/2000/svg" xmlns:xlink="http://www.w3.org/1999/xlink" x="0px" y="0px" width="258px"
	 height="346.166px" viewBox="0 0 258 346.166" style="enable-background:new 0 0 258 346.166;" xml:space="preserve">
<g id="sharkmanBodyH">
	<rect x="-0.333" y="-0.334" style="fill:none;" width="258" height="347"/>
	<g>
		<g>
			<path style="fill:#3396E4;stroke:#1B2536;stroke-width:4;stroke-linecap:round;stroke-linejoin:round;stroke-miterlimit:10;" d="
				M183.441,149.363c0,0,0.316-12.206,0.92-18.958c-0.485-3.473-2.045-7.924-5.4-4.073c-1.486,4.473-4.061,12.226-4.061,12.226
				L183.441,149.363z"/>
			<path style="fill:#3396E4;stroke:#1B2536;stroke-width:4;stroke-linecap:round;stroke-linejoin:round;stroke-miterlimit:10;" d="
				M176.223,139.681c0,0,0.347-12.196,0.95-18.948c-0.487-3.473-2.021-7.916-5.374-4.063c-1.484,4.473-4.062,12.227-4.062,12.227
				L176.223,139.681z"/>
			<path style="fill:#3396E4;stroke:#1B2536;stroke-width:4;stroke-linecap:round;stroke-linejoin:round;stroke-miterlimit:10;" d="
				M169.473,130.155c0,0,0.607-12.109,1.209-18.862c-0.483-3.472-2.691-8.138-5.111-3.976c-1.485,4.472-4.061,12.226-4.061,12.226
				L169.473,130.155z"/>
			<path style="fill:#3396E4;stroke:#1B2536;stroke-width:4;stroke-linecap:round;stroke-linejoin:round;stroke-miterlimit:10;" d="
				M31.459,151.984c0,0-0.065-12.231-0.568-18.992c0.536-3.465,2.233-7.916,5.53-4.014c1.42,4.494,3.881,12.284,3.881,12.284
				L31.459,151.984z"/>
			<path style="fill:#3396E4;stroke:#1B2536;stroke-width:4;stroke-linecap:round;stroke-linejoin:round;stroke-miterlimit:10;" d="
				M38.82,142.41c0,0-0.094-12.223-0.598-18.983c0.538-3.465,2.208-7.907,5.504-4.006c1.419,4.495,3.881,12.284,3.881,12.284
				L38.82,142.41z"/>
			<path style="fill:#3396E4;stroke:#1B2536;stroke-width:4;stroke-linecap:round;stroke-linejoin:round;stroke-miterlimit:10;" d="
				M45.71,132.983c0,0-0.356-12.139-0.86-18.898c0.537-3.466,2.884-8.122,5.242-3.924c1.42,4.494,3.88,12.284,3.88,12.284
				L45.71,132.983z"/>
			<path style="fill:#F9F900;stroke:#1B2536;stroke-width:4;stroke-linecap:round;stroke-linejoin:round;stroke-miterlimit:10;" d="
				M85.408,331.783c-0.183-0.36-3.504-4.779-4.132-7.892c-0.535-2.65-1.033-3.355-1.696-5.25c0.033-0.344,0.053-0.695,0.053-1.046
				c0-6.126-5.013-11.091-11.196-11.091c-6.184,0-11.197,4.965-11.197,11.091c0,0.26,0.022,0.515,0.04,0.773
				c-0.352,1.257-1.011,3.792-1.453,6.613c-0.487,2.865-2.179,5.738-3.608,8.294c-1.136,0.335-1.97,1.365-1.97,2.598
				c0,1.503,1.231,2.725,2.75,2.725c1.097,0,2.037-0.642,2.478-1.563c0.265,1.85,1.866,3.274,3.806,3.274
				c1.299,0,2.445-1.263,3.143-2.239c0.696,0.977,1.843,2.239,3.142,2.239c1.52,0,2.831-0.875,3.456-2.143
				c0.625,1.268,1.936,2.143,3.457,2.143c1.862,0,3.417-1.312,3.772-3.054c0.801,1.972,2.747,3.364,5.025,3.364
				c2.993,0,5.42-2.402,5.42-5.37C86.695,333.928,86.209,332.72,85.408,331.783z"/>
			<path style="fill:#F9F900;stroke:#1B2536;stroke-width:4;stroke-linecap:round;stroke-linejoin:round;stroke-miterlimit:10;" d="
				M113.934,333.752c0.183-0.36,3.505-4.778,4.131-7.891c0.537-2.652,1.035-3.355,1.695-5.251c-0.029-0.344-0.051-0.694-0.051-1.046
				c0-6.126,5.014-11.093,11.196-11.093c6.186,0,11.197,4.967,11.197,11.093c0,0.26-0.022,0.516-0.039,0.772
				c0.353,1.257,1.009,3.793,1.454,6.614c0.486,2.865,2.178,5.737,3.609,8.294c1.133,0.335,1.966,1.365,1.966,2.599
				c0,1.502-1.23,2.724-2.749,2.724c-1.096,0-2.037-0.643-2.477-1.562c-0.266,1.849-1.867,3.273-3.808,3.273
				c-1.298,0-2.444-1.263-3.142-2.238c-0.697,0.976-1.843,2.238-3.142,2.238c-1.52,0-2.831-0.875-3.456-2.145
				c-0.627,1.27-1.937,2.145-3.457,2.145c-1.863,0-3.417-1.311-3.773-3.053c-0.801,1.971-2.745,3.364-5.025,3.364
				c-2.993,0-5.419-2.403-5.419-5.371C112.646,335.897,113.131,334.688,113.934,333.752z"/>
			<path style="fill:#2171E4;stroke:#1B2536;stroke-width:4;stroke-miterlimit:10;" d="M187.019,153.416
				c-4.146-6.845-21.631-32.802-25.401-38.391c-1-8.34-8.158-14.806-16.844-14.806c-1.963,0-3.846,0.334-5.602,0.942
				c-5.055-2.519-8.348-4.73-16.469-2.123c-2.961,1.393-4.052-1.699-4.143-4.073c1.706-0.68,3.193-1.416,3.979-2.135
				c8.787-8.021,15.257-20.534,15.257-32.011c0-16.236-12.369-29.403-28.704-29.43c-16.342,0.027-28.717,13.194-28.717,29.43
				c0,11.477,6.461,23.99,15.25,32.011c0.768,0.702,2.204,1.419,3.857,2.085c-0.085,2.332-1.174,5.362-4.14,3.968
				c-8.104-2.601-11.4-0.288-16.433,2.29c-1.765-0.616-3.662-0.954-5.639-0.954c-8.688,0-15.843,6.466-16.843,14.806
				c-3.771,5.589-21.256,31.546-25.402,38.391c-4.781,7.493,6.425,18.601,14.071,10.814c2.389-2.595,19.079-20.611,27.734-29.666
				c1.516,16.837,3.642,44.247,3.642,44.247s-3.363,37.112-4.108,55.785c-0.745,18.674-13.88,78.305-13.88,78.354
				c0,5.979,4.896,10.691,10.933,10.691c6.04,0,10.934-4.916,10.934-10.897c0-0.464,21.323-69.1,26.545-90.912
				c0.333-1.391,3.915-1.422,4.248-0.028c5.223,21.812,8.825,90.41,8.825,90.873c0,5.981,4.896,10.831,10.935,10.831
				c6.037,0,10.933-4.463,10.933-10.444c0-0.047,4.585-59.794,3.84-78.468c-0.743-18.673-4.107-55.785-4.107-55.785
				s2.123-27.401,3.639-44.251c8.653,9.055,25.349,26.804,27.738,29.399C180.594,171.746,191.8,160.909,187.019,153.416z"/>
			<g>
				<path style="fill:#3396E4;" d="M113.163,131.011c0-3.229-2.644-5.849-5.905-5.849c-1.618,0-3.082,0.645-4.147,1.688
					c-1.067-1.042-2.531-1.688-4.148-1.688c-3.261,0-5.905,2.62-5.905,5.849c0,0.661,0.115,1.295,0.319,1.887
					c0.237,1.254,1.614,3.302,5.531,7.874c3.414,3.807,4.107,4.392,4.107,4.392s0.665-0.585,4.079-4.392
					c2.417-2.82,3.861-4.677,4.67-5.983C112.636,133.769,113.163,132.451,113.163,131.011z"/>
				<path style="fill:#66B4F2;" d="M126.062,145.564c0-2.632-2.153-4.762-4.809-4.762c-1.317,0-2.508,0.525-3.375,1.373
					c-0.871-0.848-2.062-1.373-3.38-1.373c-2.654,0-4.807,2.13-4.807,4.762c0,0.538,0.096,1.053,0.26,1.536
					c0.193,1.02,1.312,2.688,4.504,6.411c2.78,3.1,3.343,3.575,3.343,3.575s0.543-0.475,3.321-3.575
					c1.968-2.296,3.144-3.808,3.803-4.873C125.63,147.809,126.062,146.737,126.062,145.564z"/>
				<path style="fill:#78C4FF;" d="M109.477,157.55c0-1.73-1.418-3.13-3.163-3.13c-0.865,0-1.65,0.344-2.22,0.901
					c-0.569-0.558-1.354-0.901-2.219-0.901c-1.747,0-3.163,1.4-3.163,3.13c0,0.354,0.063,0.693,0.173,1.011
					c0.125,0.67,0.864,1.767,2.96,4.214c1.827,2.038,2.198,2.351,2.198,2.351s0.356-0.312,2.184-2.351
					c1.294-1.509,2.067-2.503,2.5-3.202C109.194,159.025,109.477,158.321,109.477,157.55z"/>
			</g>
		</g>
		<g>
			<path style="fill:#2171E4;stroke:#1B2536;stroke-width:4;stroke-miterlimit:10;" d="M197.871,124.089l0.012,0.002
				c0,0-4.244,24.625-7.049,33.203c-3.406,15.5-20.384,9.265-19.304-0.467c1.487-13.353,9.629-36.162,9.629-36.162h0.002
				c0.457-2,1.374-3.29,2.684-4.438c3.577-3.129,9.008-2.906,12.106,0.64C197.771,118.947,198.517,121.193,197.871,124.089z"/>
			<path style="fill:#3396E4;stroke:#1B2536;stroke-width:4;stroke-linecap:round;stroke-linejoin:round;stroke-miterlimit:10;" d="
				M182.254,118.139c0,0-5.293-6.197-4.24-9.479c1.054-3.28,2.266-4.526,5.753-3.364c-0.029,0.032-1.216-11.407-1.409-14.83
				c-0.269-3.188,5.878-6.162,5.988,0.575c0,0,0.769,5.26,1.253,7.742c0.665,3.389,2.316,3.745,3.43,0.283
				c0.329-1.961,1.644-6.798,1.785-8.622c0.381-4.898,6.677-3.285,6.182,1.356c-0.666,2.434-3.369,11.013-3.369,11.013
				s2.161-2.924,4.939-0.309c1.525,1.695,2.517,3.565,4.004,6.112c1.381,2.339-3.308,9.794-9.632,15.344
				C196.678,124.049,184.272,125.953,182.254,118.139z"/>
			<path style="fill:#3396E4;stroke:#1B2536;stroke-width:4;stroke-linecap:round;stroke-linejoin:round;stroke-miterlimit:10;" d="
				M178.962,112.766c1.187,2.068,3.533,6.608,8.182,3.775c1.426-1.83,0.751-7.135-3.377-11.245
				C182.191,103.729,174.935,105.722,178.962,112.766z"/>
			<path style="fill:#3396E4;stroke:#1B2536;stroke-width:4;stroke-linecap:round;stroke-linejoin:round;stroke-miterlimit:10;" d="
				M199.229,99.225c-1.768,0.984-5.638,2.929-3.375,7.059c1.502,1.29,5.973,0.824,9.53-2.685
				C206.739,102.262,205.248,95.872,199.229,99.225z"/>
			<path style="fill:#3396E4;stroke:#1B2536;stroke-width:4;stroke-linecap:round;stroke-linejoin:round;stroke-miterlimit:10;" d="
				M203.157,105.138c-1.768,0.983-5.637,2.927-3.375,7.057c1.501,1.291,5.973,0.825,9.529-2.683
				C210.667,108.174,209.176,101.785,203.157,105.138z"/>
		</g>
		<g>
			<path style="fill:#2171E4;stroke:#1B2536;stroke-width:4;stroke-miterlimit:10;" d="M73.949,171.104l0.004-0.008
				c0,0-19.433-15.758-27.191-20.37c-12.767-9.426-21.229,6.615-14.008,13.227C42.663,173.024,64.021,185,64.021,185l0.001-0.002
				c1.355,0.882,2.975,1.399,4.717,1.399c4.752,0,8.604-3.815,8.604-8.522C77.343,175.111,76.007,172.66,73.949,171.104z"/>
			<path style="fill:#3396E4;stroke:#1B2536;stroke-width:4;stroke-linecap:round;stroke-linejoin:round;stroke-miterlimit:10;" d="
				M64.474,185.057l9.078-13.961c0.001,0,1.645,1.206,3.64,2.63c0.684,0.487,0.517-0.758,3.149,0.021
				c5.341,1.582,2.701,3.924,3.299,4.329c1.015,0.687-0.537-0.293,0,0c2.199,1.195,4.384,3.375,3.127,5.992
				c-1.321,2.128-4.07,0.494-4.07,0.494s4.005,2.334,2.121,5.135c-0.942,1.245-5.577-0.777-5.577-0.777s3.135,2.19,1.878,4.059
				c-1.329,2.01-5.794-0.012-5.794-0.012s2.319,0.861,0.067,2.722c-1.938,0.929-10.61-2.899-9.557-5.421
				c1.221-2.92,3.037-0.354,3.037-0.354L64.474,185.057z"/>
		</g>
	</g>
</g>
<g id="Layer_1">
</g>
</svg>
