<?xml version="1.0" encoding="utf-8"?>
<!-- Generator: Adobe Illustrator 16.0.0, SVG Export Plug-In . SVG Version: 6.00 Build 0)  -->
<!DOCTYPE svg PUBLIC "-//W3C//DTD SVG 1.1//EN" "http://www.w3.org/Graphics/SVG/1.1/DTD/svg11.dtd">
<svg version="1.1" id="Layer_1" xmlns="http://www.w3.org/2000/svg" xmlns:xlink="http://www.w3.org/1999/xlink" x="0px" y="0px"
	 width="68.633px" height="116.993px" viewBox="0 0 68.633 116.993" enable-background="new 0 0 68.633 116.993"
	 xml:space="preserve">
<g id="shark_1_">
	<path fill="#2171E4" stroke="#44484F" stroke-width="4" stroke-miterlimit="10" d="M38.633,44.002c0-0.002,0-0.008,0-0.008
		c-35-1.106-30.755,33.197-30.755,33.197c7.426-11.234,23.588-12.285,28.654-12.343c5.067,0.058,21.77,1.108,29.195,12.343
		C65.728,77.191,68.633,45.018,38.633,44.002z"/>
	<path fill="#F9F900" fill-opacity="0.7" stroke="#44484F" stroke-width="4" stroke-miterlimit="10" d="M59.504,82.748
		c-0.156-1.72-0.855-5.012-6.142-5.866c-10.371-1.676-21.371-1.676-33.005,0c-5.3,0.764-5.977,4.146-6.135,5.866
		c-0.846,9.22,5.289,11.315,9.096,11.105c5.5,0.21,8.673-6.914,9.73-9.847c1.125-3.501,2.98-3.98,3.808-4.009
		c0.831,0.028,2.69,0.508,3.814,4.009c1.058,2.933,4.234,10.057,9.734,9.847C54.213,94.063,60.351,91.968,59.504,82.748z"/>
	<path fill="#F9F900" stroke="#44484F" stroke-width="4" stroke-miterlimit="10" d="M40.481,97.583
		c-1.787,0-2.812,2.034-4.469,2.034s-2.682-2.034-4.469-2.034c-1.192,0-2.302,0.354-3.231,0.957
		c-2.998-2.136-6.91-5.07-10.742-8.379c-5.018-5.487-7.266-39.96-8.205-54.303c0.072-10.494,3.015-25.808,4.368-30.159
		c-0.21-0.015-7.303-1.743-7.303-1.743S2.797,26.372,2.408,35.283c-0.572,8.477,5.976,52.798,8.395,57.789
		c3.931,4.888,10.948,9.452,15.307,12.649c0.899,2.093,2.994,3.56,5.435,3.56c1.787,0,2.812-2.032,4.469-2.032
		s2.682,2.032,4.469,2.032c3.261,0,5.905-2.618,5.905-5.849S43.742,97.583,40.481,97.583z"/>
	<path fill="#F9F900" stroke="#44484F" stroke-width="4" stroke-miterlimit="10" d="M4.973,4.264
		C5.27,1.525,7.531,1.566,10.295,1.86c2.764,0.295,4.982,0.729,4.686,3.467c-0.296,2.737-2.777,4.718-5.541,4.424
		S4.677,7,4.973,4.264z"/>
	
		<path fill="#3396E4" stroke="#44484F" stroke-width="4" stroke-linecap="round" stroke-linejoin="round" stroke-miterlimit="10" d="
		M30.107,43.968l5.267-19.418l5.878,19.933c0,0-0.611,8.048-5.4,8.048C32.045,52.53,29.369,46.484,30.107,43.968z"/>
</g>
</svg>
