<?xml version="1.0" encoding="utf-8"?>
<!-- Generator: Adobe Illustrator 16.0.0, SVG Export Plug-In . SVG Version: 6.00 Build 0)  -->
<!DOCTYPE svg PUBLIC "-//W3C//DTD SVG 1.1//EN" "http://www.w3.org/Graphics/SVG/1.1/DTD/svg11.dtd">
<svg version="1.1" id="Layer_1" xmlns="http://www.w3.org/2000/svg" xmlns:xlink="http://www.w3.org/1999/xlink" x="0px" y="0px"
	 width="187.965px" height="320.881px" viewBox="0 0 187.965 320.881" enable-background="new 0 0 187.965 320.881"
	 xml:space="preserve">
<g>
	
		<path fill="#3396E4" stroke="#44484F" stroke-width="4" stroke-linecap="round" stroke-linejoin="round" stroke-miterlimit="10" d="
		M158.719,120.967c0,0,0.323-12.399,0.936-19.259c-0.494-3.527-2.078-8.05-5.486-4.137c-1.509,4.544-4.125,12.42-4.125,12.42
		L158.719,120.967z"/>
	
		<path fill="#3396E4" stroke="#44484F" stroke-width="4" stroke-linecap="round" stroke-linejoin="round" stroke-miterlimit="10" d="
		M151.387,111.131c0,0,0.352-12.39,0.965-19.248c-0.495-3.528-2.052-8.041-5.459-4.128c-1.51,4.544-4.126,12.42-4.126,12.42
		L151.387,111.131z"/>
	
		<path fill="#3396E4" stroke="#44484F" stroke-width="4" stroke-linecap="round" stroke-linejoin="round" stroke-miterlimit="10" d="
		M144.529,101.454c0,0,0.617-12.302,1.229-19.161c-0.493-3.527-2.735-8.268-5.194-4.039c-1.509,4.543-4.125,12.419-4.125,12.419
		L144.529,101.454z"/>
	
		<path fill="#3396E4" stroke="#44484F" stroke-width="4" stroke-linecap="round" stroke-linejoin="round" stroke-miterlimit="10" d="
		M4.328,123.629c0,0-0.066-12.425-0.577-19.293c0.545-3.52,2.269-8.041,5.618-4.078c1.442,4.565,3.942,12.479,3.942,12.479
		L4.328,123.629z"/>
	
		<path fill="#3396E4" stroke="#44484F" stroke-width="4" stroke-linecap="round" stroke-linejoin="round" stroke-miterlimit="10" d="
		M11.806,113.903c0,0-0.097-12.416-0.608-19.284c0.547-3.52,2.243-8.032,5.592-4.069c1.443,4.565,3.943,12.479,3.943,12.479
		L11.806,113.903z"/>
	
		<path fill="#3396E4" stroke="#44484F" stroke-width="4" stroke-linecap="round" stroke-linejoin="round" stroke-miterlimit="10" d="
		M18.805,104.327c0,0-0.361-12.331-0.873-19.198c0.545-3.521,2.929-8.25,5.324-3.986c1.443,4.565,3.942,12.479,3.942,12.479
		L18.805,104.327z"/>
	
		<path fill="#F9F900" stroke="#44484F" stroke-width="4" stroke-linecap="round" stroke-linejoin="round" stroke-miterlimit="10" d="
		M59.133,306.278c-0.186-0.365-3.561-4.854-4.199-8.017c-0.543-2.692-1.049-3.407-1.723-5.333c0.033-0.351,0.055-0.705,0.055-1.063
		c0-6.223-5.093-11.268-11.375-11.268c-6.281,0-11.375,5.045-11.375,11.268c0,0.265,0.022,0.523,0.04,0.785
		c-0.356,1.277-1.026,3.854-1.476,6.719c-0.496,2.91-2.213,5.828-3.666,8.426c-1.153,0.34-2,1.387-2,2.64
		c0,1.527,1.25,2.767,2.793,2.767c1.115,0,2.069-0.652,2.518-1.588c0.269,1.879,1.895,3.326,3.866,3.326
		c1.319,0,2.483-1.282,3.192-2.273c0.708,0.991,1.872,2.273,3.191,2.273c1.545,0,2.876-0.889,3.512-2.177
		c0.635,1.288,1.966,2.177,3.511,2.177c1.892,0,3.471-1.332,3.832-3.102c0.815,2.003,2.792,3.418,5.104,3.418
		c3.041,0,5.506-2.441,5.506-5.454C60.439,308.458,59.947,307.229,59.133,306.278z"/>
	
		<path fill="#F9F900" stroke="#44484F" stroke-width="4" stroke-linecap="round" stroke-linejoin="round" stroke-miterlimit="10" d="
		M88.109,308.278c0.186-0.365,3.561-4.854,4.198-8.017c0.544-2.692,1.05-3.407,1.723-5.333c-0.032-0.351-0.054-0.705-0.054-1.063
		c0-6.223,5.092-11.268,11.374-11.268s11.375,5.045,11.375,11.268c0,0.265-0.022,0.523-0.04,0.785
		c0.357,1.277,1.026,3.854,1.477,6.719c0.494,2.91,2.213,5.828,3.666,8.426c1.152,0.34,1.999,1.387,1.999,2.64
		c0,1.527-1.251,2.767-2.793,2.767c-1.114,0-2.069-0.652-2.517-1.588c-0.27,1.879-1.896,3.326-3.867,3.326
		c-1.318,0-2.484-1.282-3.191-2.273c-0.709,0.991-1.873,2.273-3.191,2.273c-1.545,0-2.877-0.889-3.512-2.177
		c-0.636,1.288-1.967,2.177-3.512,2.177c-1.893,0-3.471-1.332-3.832-3.102c-0.814,2.003-2.791,3.418-5.104,3.418
		c-3.041,0-5.507-2.441-5.507-5.454C86.801,310.458,87.295,309.229,88.109,308.278z"/>
	<path fill="#2171E4" stroke="#44484F" stroke-width="4" stroke-miterlimit="10" d="M162.354,125.083
		c-4.212-6.953-21.975-33.321-25.805-38.999c-1.015-8.472-8.286-15.041-17.11-15.041c-1.995,0-3.907,0.34-5.689,0.957
		c-5.136-2.559-8.479-4.805-16.731-2.156c-3.007,1.415-4.114-1.726-4.207-4.138c1.732-0.69,3.244-1.438,4.043-2.169
		c8.927-8.148,15.499-20.86,15.499-32.519c0-16.493-12.564-29.868-29.161-29.896C66.593,1.15,54.021,14.525,54.021,31.019
		c0,11.658,6.563,24.37,15.492,32.519c0.78,0.713,2.238,1.442,3.919,2.119c-0.088,2.368-1.193,5.447-4.207,4.03
		c-8.231-2.643-11.58-0.292-16.693,2.326c-1.793-0.626-3.719-0.97-5.729-0.97c-8.824,0-16.094,6.569-17.109,15.041
		c-3.83,5.678-21.593,32.046-25.805,38.999c-4.857,7.612,6.527,18.896,14.294,10.985c2.427-2.637,19.382-20.938,28.175-30.136
		c1.539,17.104,3.699,44.948,3.699,44.948s-3.417,37.7-4.174,56.67c-0.756,18.969-14.1,79.546-14.1,79.596
		c0,6.075,4.974,10.861,11.107,10.861c6.135,0,11.107-4.994,11.107-11.07c0-0.47,21.66-70.194,26.965-92.354
		c0.339-1.413,3.977-1.444,4.315-0.028c5.305,22.157,8.966,91.844,8.966,92.314c0,6.075,4.973,11.001,11.106,11.001
		s11.106-4.533,11.106-10.608c0-0.05,4.657-60.743,3.901-79.713c-0.757-18.969-4.174-56.669-4.174-56.669s2.158-27.836,3.696-44.952
		c8.791,9.197,25.751,27.228,28.179,29.864C155.826,143.704,167.211,132.695,162.354,125.083z"/>
	<g>
		<path fill="#66B4F2" d="M87.327,102.323c0-3.281-2.687-5.941-5.999-5.941c-1.643,0-3.13,0.655-4.213,1.714
			c-1.084-1.059-2.57-1.714-4.213-1.714c-3.314,0-6,2.66-6,5.941c0,0.672,0.117,1.315,0.325,1.917
			c0.239,1.273,1.64,3.354,5.619,7.998c3.468,3.867,4.171,4.461,4.171,4.461s0.676-0.594,4.145-4.461
			c2.455-2.865,3.922-4.751,4.742-6.078C86.791,105.125,87.327,103.787,87.327,102.323z"/>
		<path fill="#99D2FF" d="M100.43,117.107c0-2.673-2.188-4.838-4.885-4.838c-1.338,0-2.549,0.533-3.43,1.396
			c-0.883-0.862-2.093-1.396-3.431-1.396c-2.697,0-4.884,2.165-4.884,4.838c0,0.546,0.096,1.07,0.264,1.561
			c0.195,1.036,1.335,2.73,4.575,6.512c2.823,3.148,3.396,3.632,3.396,3.632s0.551-0.483,3.374-3.632
			c1.999-2.333,3.192-3.868,3.862-4.949C99.992,119.388,100.43,118.299,100.43,117.107z"/>
		<path fill="#D1EBFF" d="M83.582,129.283c0-1.758-1.438-3.181-3.212-3.181c-0.88,0-1.676,0.351-2.255,0.917
			c-0.58-0.566-1.376-0.917-2.256-0.917c-1.773,0-3.211,1.423-3.211,3.181c0,0.359,0.062,0.704,0.174,1.026
			c0.128,0.681,0.877,1.795,3.008,4.281c1.855,2.07,2.232,2.388,2.232,2.388s0.362-0.317,2.219-2.388
			c1.314-1.534,2.1-2.543,2.539-3.254C83.295,130.782,83.582,130.066,83.582,129.283z"/>
	</g>
</g>
<g>
	<path fill="#2171E4" stroke="#44484F" stroke-width="4" stroke-miterlimit="10" d="M173.375,95.28l0.01,0.003
		c0,0-4.271,25.021-7.105,33.74c-3.435,15.751-20.693,9.469-19.61-0.418c1.488-13.566,9.722-36.725,9.722-36.725h0.002
		c0.463-2,1.391-3.371,2.721-4.539c3.629-3.184,9.146-2.977,12.299,0.619C173.264,90.07,174.025,92.338,173.375,95.28z"/>
	
		<path fill="#3396E4" stroke="#44484F" stroke-width="4" stroke-linecap="round" stroke-linejoin="round" stroke-miterlimit="10" d="
		M157.5,89.261c0,0-5.39-6.288-4.324-9.622s2.295-4.602,5.838-3.427c-0.029,0.034-1.253-11.585-1.455-15.062
		c-0.277-3.238,5.962-6.27,6.084,0.574c0,0,0.791,5.343,1.285,7.862c0.684,3.44,2.359,3.801,3.484,0.282
		c0.333-1.993,1.66-6.909,1.801-8.762c0.378-4.977,6.777-3.348,6.282,1.368c-0.672,2.474-3.405,11.192-3.405,11.192
		s2.191-2.974,5.018-0.321c1.551,1.72,2.562,3.617,4.076,6.201c1.407,2.375-3.344,9.955-9.759,15.604
		C172.161,95.241,159.562,97.196,157.5,89.261z"/>
	
		<path fill="#3396E4" stroke="#44484F" stroke-width="4" stroke-linecap="round" stroke-linejoin="round" stroke-miterlimit="10" d="
		M154.147,83.809c1.206,2.1,3.599,6.706,8.317,3.822c1.444-1.861,0.749-7.25-3.451-11.419
		C157.413,74.623,150.043,76.658,154.147,83.809z"/>
	
		<path fill="#3396E4" stroke="#44484F" stroke-width="4" stroke-linecap="round" stroke-linejoin="round" stroke-miterlimit="10" d="
		M174.714,70.02c-1.794,1.002-5.722,2.983-3.418,7.175c1.526,1.308,6.069,0.829,9.677-2.741
		C182.347,73.093,180.821,66.604,174.714,70.02z"/>
	
		<path fill="#3396E4" stroke="#44484F" stroke-width="4" stroke-linecap="round" stroke-linejoin="round" stroke-miterlimit="10" d="
		M178.714,76.02c-1.794,1.002-5.722,2.983-3.418,7.175c1.526,1.308,6.069,0.829,9.677-2.741
		C186.347,79.093,184.821,72.604,178.714,76.02z"/>
</g>
<g>
	<path fill="#2171E4" stroke="#44484F" stroke-width="4" stroke-miterlimit="10" d="M47.492,143.052l0.004-0.008
		c0,0-19.741-16.009-27.623-20.693c-12.969-9.574-21.785,6.72-14.45,13.437c10.065,9.216,31.542,21.382,31.542,21.382v-0.002
		c2,0.896,3.242,1.421,5.014,1.421c4.826,0,8.851-3.876,8.851-8.658C50.829,147.122,49.583,144.633,47.492,143.052z"/>
	
		<path fill="#3396E4" stroke="#44484F" stroke-width="4" stroke-linecap="round" stroke-linejoin="round" stroke-miterlimit="10" d="
		M37.865,157.226l9.223-14.182c0,0,1.67,1.225,3.698,2.672c0.693,0.495,0.524-0.771,3.198,0.021
		c5.427,1.606,2.744,3.986,3.352,4.397c1.032,0.697-0.545-0.297,0,0c2.234,1.214,4.454,3.429,3.178,6.088
		c-1.342,2.161-4.135,0.501-4.135,0.501s4.069,2.371,2.154,5.217c-0.957,1.265-5.666-0.79-5.666-0.79s3.186,2.226,1.908,4.123
		c-1.35,2.041-5.887-0.013-5.887-0.013s2.356,0.876,0.068,2.766c-1.968,0.942-10.777-2.945-9.707-5.507
		c1.239-2.966,3.084-0.36,3.084-0.36L37.865,157.226z"/>
</g>
</svg>
