<?xml version="1.0" encoding="utf-8"?>
<!-- Generator: Adobe Illustrator 16.0.0, SVG Export Plug-In . SVG Version: 6.00 Build 0)  -->
<!DOCTYPE svg PUBLIC "-//W3C//DTD SVG 1.1//EN" "http://www.w3.org/Graphics/SVG/1.1/DTD/svg11.dtd">
<svg version="1.1" id="Layer_1" xmlns="http://www.w3.org/2000/svg" xmlns:xlink="http://www.w3.org/1999/xlink" x="0px" y="0px"
	 width="68.633px" height="116.993px" viewBox="0 0 68.633 116.993" enable-background="new 0 0 68.633 116.993"
	 xml:space="preserve">
<g id="shark_5_">
	<path fill="#2171E4" stroke="#44484F" stroke-width="4" stroke-miterlimit="10" d="M37.633,43.652c0-0.002,0-0.008,0-0.008
		C2.633,42.538,7.07,76.842,7.07,76.842c7.426-11.234,23.683-12.285,28.749-12.343c5.068,0.058,21.627,1.108,29.053,12.343
		C64.872,76.842,67.633,44.668,37.633,43.652z"/>
	<path fill="#F9F900" fill-opacity="0.8" stroke="#44484F" stroke-width="4" stroke-miterlimit="10" d="M58.888,82.398
		c-0.156-1.72-0.957-4.523-6.142-5.866c-9.43-2.443-21.946-4.539-33.005,0c-4.953,2.033-5.977,4.146-6.135,5.866
		c-0.846,9.22,5.289,11.315,9.096,11.105c5.5,0.21,8.673-6.914,9.73-9.847c1.125-3.501,2.98-2.98,3.808-3.009
		c0.831,0.028,2.69-0.492,3.814,3.009c1.058,2.933,4.234,10.057,9.734,9.847C53.597,93.714,59.734,91.618,58.888,82.398z"/>
	<path fill="#F9F900" stroke="#44484F" stroke-width="4" stroke-miterlimit="10" d="M39.865,97.233
		c-1.787,0-2.812,2.034-4.469,2.034s-2.682-2.034-4.469-2.034c-1.192,0-2.302,0.354-3.231,0.957
		c-2.998-2.136-6.91-5.07-10.742-8.379c-5.018-5.487-7.266-39.96-8.205-54.303C8.821,25.015,11.764,9.701,13.117,5.35
		c-0.21-0.015-7.303-1.743-7.303-1.743S2.181,26.022,1.792,34.934C1.22,43.41,7.768,87.731,10.187,92.723
		c3.931,4.888,10.948,9.452,15.307,12.649c0.899,2.093,2.994,3.56,5.435,3.56c1.787,0,2.812-2.032,4.469-2.032
		s2.682,2.032,4.469,2.032c3.261,0,5.905-2.618,5.905-5.849S43.126,97.233,39.865,97.233z"/>
	<path fill="#F9F900" stroke="#44484F" stroke-width="4" stroke-miterlimit="10" d="M4.356,3.914
		c0.297-2.738,2.559-2.697,5.322-2.403c2.764,0.295,4.982,0.729,4.686,3.467c-0.296,2.737-2.777,4.718-5.541,4.424
		S4.061,6.65,4.356,3.914z"/>
	
		<path fill="#3396E4" stroke="#44484F" stroke-width="4" stroke-linecap="round" stroke-linejoin="round" stroke-miterlimit="10" d="
		M29.491,43.618L34.758,24.2l5.878,19.933c0,0-0.611,8.048-5.4,8.048C31.429,52.181,28.753,46.135,29.491,43.618z"/>
</g>
</svg>
