<?xml version="1.0" encoding="iso-8859-1"?>
<!-- Generator: Adobe Illustrator 16.0.0, SVG Export Plug-In . SVG Version: 6.00 Build 0)  -->
<!DOCTYPE svg PUBLIC "-//W3C//DTD SVG 1.1//EN" "http://www.w3.org/Graphics/SVG/1.1/DTD/svg11.dtd">
<svg version="1.1" xmlns="http://www.w3.org/2000/svg" xmlns:xlink="http://www.w3.org/1999/xlink" x="0px" y="0px" width="258px"
	 height="346.166px" viewBox="0 0 258 346.166" style="enable-background:new 0 0 258 346.166;" xml:space="preserve">
<g id="spidermanMask">
	<rect x="-0.333" y="0.666" style="fill:none;" width="99" height="146"/>
	<g>
		<g>
			<path style="fill:#ED1C24;stroke:#1B2536;stroke-width:4;stroke-miterlimit:10;" d="M85.317,76.85
				c0.125-11.65-1.606-28.057-15.861-34.183c-4.086-1.756-11.961-3.002-17.937-3.206c-7.01-0.222-19.992,3.206-24.581,7.889
				c-7.953,8.118-8.774,21.295-9.171,29.58c-3.458,0.681-7.367,3.061-3.869,10.878c4.54,10.151,3.739,15.226,6.676,17.096
				c1.579,0.394,2.215-0.442,3.542-1.393c1.453,2.833,2.579,4.485,2.579,4.485c14.447-20.723,22.645-5.049,27.536-7.367
				c9.015-4.274,15.187-4.637,23.122,7.367c0,0,1.575-3.134,2.109-4.44c1.317,0.93,1.924,1.736,3.477,1.348
				c2.938-1.871,2.136-6.945,6.677-17.096C93.265,79.648,88.562,77.413,85.317,76.85z M33.607,90.428
				c-7.423-1.019-10.448-13.892-0.227-16.547c12.837,0,15.25,4.534,15.26,8.958C48.657,89.087,43.813,92.112,33.607,90.428z
				 M71.773,90.428c-10.207,1.684-15.05-1.341-15.035-7.589c0.012-4.424,2.425-8.958,15.261-8.958
				C82.219,76.537,79.195,89.409,71.773,90.428z"/>
		</g>
		<g>
			<path style="fill:none;stroke:#FFFFFF;stroke-linecap:round;stroke-linejoin:round;stroke-miterlimit:10;" d="M50.829,73.098
				c0,0-10.277-17.899-30.329-7.878"/>
			<path style="fill:none;stroke:#FFFFFF;stroke-linecap:round;stroke-linejoin:round;stroke-miterlimit:10;" d="M30.253,47.206
				c20.354,11.667,20.749,31.849,20.576,24.285"/>
			<path style="fill:none;stroke:#FFFFFF;stroke-linecap:round;stroke-linejoin:round;stroke-miterlimit:10;" d="M41.631,64.512
				c0,0,4.357,3.055,3.673-3.192c1.274,2.069,5.637,2.722,4.359-2.704"/>
			<path style="fill:none;stroke:#FFFFFF;stroke-linecap:round;stroke-linejoin:round;stroke-miterlimit:10;" d="M35.664,62.172
				c0,0,6.635,1.704,4.888-6.974c1,1.191,9.132,2.573,7.652-2.686"/>
			<path style="fill:none;stroke:#FFFFFF;stroke-linecap:round;stroke-linejoin:round;stroke-miterlimit:10;" d="M30.253,61.936
				c0,0,7.583-2.274,4.305-11.922c0.221,0.164,9.859,4.992,11.671-4.38"/>
			<path style="fill:none;stroke:#FFFFFF;stroke-linecap:round;stroke-linejoin:round;stroke-miterlimit:10;" d="M22.045,64.231
				c0,0,13.619-10.446,8.208-17.025c0.686,0.685,11.771,0.425,15.051-4.445c0,0,7.289,21.342,5.525,30.337"/>
			<path style="fill:none;stroke:#FFFFFF;stroke-linecap:round;stroke-linejoin:round;stroke-miterlimit:10;" d="M51.559,73.098
				c0,0,10.276-17.899,30.329-7.878"/>
			<path style="fill:none;stroke:#FFFFFF;stroke-linecap:round;stroke-linejoin:round;stroke-miterlimit:10;" d="M72.134,47.206
				C51.782,58.873,51.387,79.055,51.559,71.491"/>
			<path style="fill:none;stroke:#FFFFFF;stroke-linecap:round;stroke-linejoin:round;stroke-miterlimit:10;" d="M60.758,64.512
				c0,0-4.359,3.055-3.674-3.192c-1.275,2.069-5.638,2.722-4.358-2.704"/>
			<path style="fill:none;stroke:#FFFFFF;stroke-linecap:round;stroke-linejoin:round;stroke-miterlimit:10;" d="M66.722,62.172
				c0,0-6.634,1.704-4.887-6.974c-0.999,1.191-9.132,2.573-7.65-2.686"/>
			<path style="fill:none;stroke:#FFFFFF;stroke-linecap:round;stroke-linejoin:round;stroke-miterlimit:10;" d="M72.134,61.936
				c0,0-7.581-2.274-4.304-11.922c-0.223,0.164-9.859,4.992-11.671-4.38"/>
			<path style="fill:none;stroke:#FFFFFF;stroke-linecap:round;stroke-linejoin:round;stroke-miterlimit:10;" d="M80.343,64.231
				c0,0-13.621-10.446-8.209-17.025c-0.685,0.685-11.771,0.425-15.05-4.445c0,0-7.29,21.342-5.525,30.337"/>
			<path style="fill:none;stroke:#FFFFFF;stroke-linecap:round;stroke-linejoin:round;stroke-miterlimit:10;" d="M48.532,53.785
				c0,0,2.81,3.33,5.478,0"/>
			<path style="fill:none;stroke:#FFFFFF;stroke-linecap:round;stroke-linejoin:round;stroke-miterlimit:10;" d="M46.056,45.934
				c0,0,5.347,6.339,10.427,0"/>
			<path style="fill:none;stroke:#FFFFFF;stroke-linecap:round;stroke-linejoin:round;stroke-miterlimit:10;" d="M46.056,42.856
				c0,0,5.347,6.339,10.427,0"/>
		</g>
	</g>
</g>
<g id="Layer_1">
</g>
</svg>
