<?xml version="1.0" encoding="iso-8859-1"?>
<!-- Generator: Adobe Illustrator 16.0.0, SVG Export Plug-In . SVG Version: 6.00 Build 0)  -->
<!DOCTYPE svg PUBLIC "-//W3C//DTD SVG 1.1//EN" "http://www.w3.org/Graphics/SVG/1.1/DTD/svg11.dtd">
<svg version="1.1" xmlns="http://www.w3.org/2000/svg" xmlns:xlink="http://www.w3.org/1999/xlink" x="0px" y="0px" width="258px"
	 height="346.166px" viewBox="0 0 258 346.166" style="enable-background:new 0 0 258 346.166;" xml:space="preserve">
<g id="spidermanBody">
	<rect x="-0.333" y="-0.334" style="fill:none;" width="258" height="347"/>
	<g>
		<path style="fill:#4E4BEA;stroke:#1B2536;stroke-width:4;stroke-miterlimit:10;" d="M182.48,160.798
			c-4.119-6.801-16.604-39.443-20.351-44.995c-0.992-8.289-8.105-14.714-16.736-14.714c-1.952,0-3.822,0.333-5.566,0.937
			c-5.022-2.503-8.295-4.699-16.366-2.109c-2.94,1.385-4.025-1.688-4.116-4.047c1.694-0.675,3.174-1.408,3.955-2.123
			c8.732-7.971,15.161-20.405,15.161-31.809c0-16.133-12.29-29.217-28.524-29.243c-16.238,0.026-28.535,13.11-28.535,29.243
			c0,11.404,6.419,23.838,15.154,31.809c0.762,0.698,2.189,1.411,3.833,2.073c-0.086,2.317-1.168,5.329-4.116,3.943
			c-8.05-2.584-11.327-0.286-16.327,2.275c-1.754-0.612-3.64-0.949-5.604-0.949c-8.633,0-15.745,6.426-16.738,14.714
			c-3.747,5.552-21.122,31.346-25.242,38.148c-4.751,7.446,6.385,18.482,13.983,10.746c2.375-2.579,18.959-20.482,27.56-29.479
			c1.505,16.732,3.619,43.969,3.619,43.969s-3.342,36.877-4.083,55.434c-0.74,18.556-7.923,77.812-7.923,77.86
			c0,5.944,4.865,10.623,10.865,10.623c6.001,0,10.865-4.885,10.865-10.829c0-0.457,15.319-68.662,20.509-90.34
			c0.331-1.381,3.889-1.411,4.221-0.025c5.188,21.672,8.77,89.84,8.77,90.301c0,5.942,4.865,10.761,10.864,10.761
			c6,0,10.865-4.433,10.865-10.376c0-0.049,4.555-59.419,3.816-77.975c-0.74-18.557-4.083-55.434-4.083-55.434
			s2.112-27.229,3.615-43.973c8.6,8.997,20.3,33.481,22.675,36.061C176.098,179.015,187.233,168.245,182.48,160.798z"/>
	</g>
	<g>
		<path style="fill:#ED1C24;stroke:#1B2536;stroke-width:4;stroke-linecap:round;stroke-linejoin:round;stroke-miterlimit:10;" d="
			M99.825,100.803c0.047,0.04,0.095,0.073,0.141,0.113C99.835,100.731,99.794,100.715,99.825,100.803z"/>
		<path style="fill:#ED1C24;stroke:#1B2536;stroke-width:4;stroke-linecap:round;stroke-linejoin:round;stroke-miterlimit:10;" d="
			M141.057,109.405l32.528,51.366l10.559,4.91l-22.305-49.878c0,0-2.137-18.583-20.782-14.223c-1.55,0.456-11.22-9.497-21.439-0.777
			c-0.181,0.502-3.081,4.804-9.234,4.873c-0.01-0.016-0.018-0.039-0.027-0.037c-0.22,0.018-0.42,0.012-0.633,0.019
			c-0.213-0.007-0.415-0.001-0.636-0.019c-0.009-0.002-0.018,0.021-0.025,0.037c-6.154-0.069-9.055-4.371-9.236-4.873
			c-10.219-8.72-19.889,1.233-21.438,0.777c-18.645-4.36-20.783,14.223-20.783,14.223l-25.236,38.139l11.535-4.91l34.484-39.627
			c20.783-6.398,19.98,58.158,19.98,58.158l-24.596-4.099l3.089,23.18l32.086,9.02c0.002,0.276,0.003,0.434,0.003,0.434l0.774-0.217
			l0.773,0.217c0,0,0.001-0.157,0.003-0.434l32.086-9.02l3.087-23.18l-24.596,4.099
			C121.076,167.563,120.274,103.007,141.057,109.405z"/>
		<path style="fill:#ED1C24;stroke:#1B2536;stroke-width:4;stroke-linecap:round;stroke-linejoin:round;stroke-miterlimit:10;" d="
			M119.477,100.917c0.047-0.04,0.095-0.074,0.141-0.113C119.648,100.715,119.608,100.731,119.477,100.917z"/>
	</g>
	<g>
		<path style="fill:#ED1C24;stroke:#1B2536;stroke-width:4;stroke-linecap:round;stroke-linejoin:round;stroke-miterlimit:10;" d="
			M155.865,201.721l-0.009-0.002c0,0,5.182-24.383,8.291-32.796c3.972-15.26,20.669-8.656,19.226,0.966
			c-1.985,13.204-10.867,35.311-10.867,35.311h-0.001c-0.515,1.977-1.547,3.398-2.893,4.49c-3.67,2.969-9.114,2.727-12.056-0.91
			C155.831,206.645,155.117,204.564,155.865,201.721z"/>
		<path style="fill:#ED1C24;stroke:#1B2536;stroke-width:4;stroke-linecap:round;stroke-linejoin:round;stroke-miterlimit:10;" d="
			M171.208,208.035c0,0,5.023,6.355,3.851,9.574c-1.169,3.219-2.422,4.408-5.838,3.122c0.029-0.031,0.77,11.372,0.833,14.778
			c0.145,3.175-6.072,5.895-5.925-0.799c0,0-0.564-5.252-0.949-7.735c-0.531-3.39-2.157-3.808-3.394-0.411
			c-0.402,1.934-1.893,6.688-2.103,8.494c-0.563,4.848-6.755,3.008-6.087-1.584c0.754-2.391,3.765-10.807,3.765-10.807
			s-2.258,2.822-4.915,0.119c-1.452-1.74-2.365-3.637-3.743-6.222c-1.283-2.376,3.657-9.599,10.146-14.868
			C157.111,201.619,169.504,200.201,171.208,208.035z"/>
		<path style="fill:#ED1C24;stroke:#1B2536;stroke-width:4;stroke-linecap:round;stroke-linejoin:round;stroke-miterlimit:10;" d="
			M174.273,213.496c-1.098-2.1-3.257-6.696-7.98-4.061c-1.484,1.764-1.017,7.057,2.928,11.296
			C170.721,222.346,178.005,220.644,174.273,213.496z"/>
		<path style="fill:#ED1C24;stroke:#1B2536;stroke-width:4;stroke-linecap:round;stroke-linejoin:round;stroke-miterlimit:10;" d="
			M153.634,226.172c1.791-0.912,5.708-2.693,3.619-6.879c-1.44-1.338-5.9-1.047-9.565,2.303
			C146.293,222.869,147.529,229.271,153.634,226.172z"/>
		<path style="fill:#ED1C24;stroke:#1B2536;stroke-width:4;stroke-linecap:round;stroke-linejoin:round;stroke-miterlimit:10;" d="
			M149.957,220.148c1.792-0.907,5.709-2.689,3.619-6.877c-1.438-1.338-5.897-1.049-9.564,2.299
			C142.616,216.85,143.854,223.252,149.957,220.148z"/>
	</g>
	<g>
		<path style="fill:#ED1C24;stroke:#1B2536;stroke-width:4;stroke-linecap:round;stroke-linejoin:round;stroke-miterlimit:10;" d="
			M75.014,171.529l0.005-0.008c0,0-19.312-15.66-27.021-20.242c-12.686-9.365-21.095,6.573-13.919,13.144
			c9.846,9.014,31.069,20.916,31.069,20.916l0.002-0.002c1.346,0.875,2.955,1.391,4.687,1.391c4.722,0,8.55-3.793,8.55-8.471
			C78.387,175.51,77.061,173.076,75.014,171.529z"/>
		<path style="fill:#ED1C24;stroke:#1B2536;stroke-width:4;stroke-linecap:round;stroke-linejoin:round;stroke-miterlimit:10;" d="
			M65.598,185.393l9.021-13.872c0.001,0,1.634,1.198,3.617,2.614c0.679,0.484,0.514-0.754,3.13,0.021
			c5.308,1.571,2.685,3.899,3.278,4.302c1.009,0.682-0.534-0.29,0,0c2.186,1.188,4.356,3.354,3.108,5.955
			c-1.312,2.114-4.044,0.49-4.044,0.49s3.98,2.32,2.107,5.103c-0.936,1.237-5.543-0.772-5.543-0.772s3.115,2.177,1.866,4.033
			c-1.32,1.996-5.757-0.013-5.757-0.013s2.304,0.856,0.066,2.705c-1.926,0.923-10.543-2.882-9.497-5.388
			c1.212-2.9,3.018-0.352,3.018-0.352L65.598,185.393z"/>
	</g>
	<path style="fill:#ED1C24;stroke:#1B2536;stroke-width:4;stroke-linecap:round;stroke-linejoin:round;stroke-miterlimit:10;" d="
		M101.061,333.706c2.6-7.038-3.108-19.157-4.078-23.932c-1.396-6.861,1.037-45.108,1.037-45.108H70.941
		c0,0-3.539,38.624-6.711,49.673c-6.441,8.92-10.045,15.358-8.104,19.491c-0.567,0.793-0.909,1.687-0.919,2.737
		c-0.028,2.733,2.167,4.993,4.9,5.021c2.042,0.024,3.804-0.923,4.582-2.923h0.68c0.737,2,2.477,2.971,4.519,2.991
		c1.933,0.02,3.599-1.112,4.429-2.714c0.802,1.617,2.445,2.792,4.375,2.812c2.058,0.021,3.831-1.007,4.599-2.956l0.645,0.004
		c0.729,1.965,2.481,3.015,4.538,3.038c1.931,0.02,3.598-1.104,4.429-2.707c0.802,1.617,2.445,2.741,4.375,2.76
		c2.737,0.028,4.975-2.173,5.003-4.909C102.293,335.729,101.823,334.588,101.061,333.706z"/>
	<path style="fill:#ED1C24;stroke:#1B2536;stroke-width:4;stroke-linecap:round;stroke-linejoin:round;stroke-miterlimit:10;" d="
		M156.496,333.129c2.415-7.104-7.521-19.313-8.613-24.061c-1.573-6.823-2.318-44.662-2.318-44.662l-26.899,0.652
		c0,0,0.461,38.365-2.426,49.491c-6.211,9.082-6.711,15.658-4.664,19.74c-0.545,0.809-0.862,1.77-0.847,2.819
		c0.042,2.735,2.295,4.94,5.028,4.899c2.042-0.029,3.776-1.081,4.505-3.05l0.68-0.011c0.788,1.945,2.554,2.934,4.596,2.903
		c1.932-0.03,3.568-1.187,4.359-2.812c0.843,1.599,2.516,2.733,4.444,2.705c2.058-0.033,3.804-1.103,4.521-3.07l0.646-0.01
		c0.777,1.944,2.557,2.95,4.614,2.92c1.931-0.029,3.567-1.194,4.358-2.818c0.842,1.597,2.515,2.676,4.441,2.646
		c2.737-0.044,4.92-2.301,4.877-5.034C157.778,335.121,157.28,333.991,156.496,333.129z"/>
</g>
<g id="Layer_1">
</g>
</svg>
