<?xml version="1.0" encoding="iso-8859-1"?>
<!-- Generator: Adobe Illustrator 16.0.0, SVG Export Plug-In . SVG Version: 6.00 Build 0)  -->
<!DOCTYPE svg PUBLIC "-//W3C//DTD SVG 1.1//EN" "http://www.w3.org/Graphics/SVG/1.1/DTD/svg11.dtd">
<svg version="1.1" xmlns="http://www.w3.org/2000/svg" xmlns:xlink="http://www.w3.org/1999/xlink" x="0px" y="0px" width="258px"
	 height="346.166px" viewBox="0 0 258 346.166" style="enable-background:new 0 0 258 346.166;" xml:space="preserve">
<g id="spidermanBodyH">
	<rect x="-0.333" y="-0.334" style="fill:none;" width="258" height="347"/>
	<g>
		<path style="fill:#4E4BEA;stroke:#1B2536;stroke-width:4;stroke-miterlimit:10;" d="M182.48,160.908
			c-4.117-6.797-16.593-39.415-20.338-44.966c-0.991-8.281-8.101-14.702-16.727-14.702c-1.95,0-3.819,0.332-5.561,0.935
			c-5.021-2.5-8.29-4.697-16.356-2.107c-2.938,1.382-4.021-1.687-4.112-4.045c1.693-0.675,3.172-1.406,3.952-2.12
			c8.727-7.965,15.151-20.392,15.151-31.79c0-16.122-12.283-29.197-28.506-29.224C93.757,32.915,81.467,45.99,81.467,62.112
			c0,11.397,6.417,23.824,15.145,31.79c0.763,0.696,2.188,1.41,3.83,2.072c-0.085,2.314-1.166,5.324-4.112,3.939
			c-8.046-2.583-11.32-0.286-16.319,2.274c-1.751-0.612-3.636-0.947-5.6-0.947c-8.626,0-15.733,6.421-16.725,14.702
			c-3.745,5.551-20.131,39.146-24.248,45.945c-4.749,7.44,6.38,18.469,13.973,10.737c2.372-2.577,17.969-28.288,26.563-37.279
			c1.506,16.72,3.617,43.938,3.617,43.938s-3.341,36.854-4.08,55.398c-0.738,18.542-7.918,77.758-7.918,77.808
			c0,5.939,4.862,10.618,10.858,10.618s10.857-4.882,10.857-10.821c0-0.459,15.309-68.618,20.495-90.28
			c0.332-1.382,3.887-1.412,4.218-0.028c5.187,21.66,8.765,89.782,8.765,90.242c0,5.938,4.861,10.754,10.856,10.754
			c5.996,0,10.857-4.431,10.857-10.371c0-0.048,4.553-59.379,3.814-77.923c-0.74-18.542-4.08-55.396-4.08-55.396
			s2.109-27.21,3.612-43.942c8.595,8.991,20.286,33.459,22.659,36.036C176.1,179.111,187.229,168.35,182.48,160.908z"/>
	</g>
	<g>
		<path style="fill:#ED1C24;stroke:#1B2536;stroke-width:4;stroke-linecap:round;stroke-linejoin:round;stroke-miterlimit:10;" d="
			M99.88,100.952c0.046,0.04,0.095,0.073,0.141,0.115C99.89,100.879,99.848,100.865,99.88,100.952z"/>
		<path style="fill:#ED1C24;stroke:#1B2536;stroke-width:4;stroke-linecap:round;stroke-linejoin:round;stroke-miterlimit:10;" d="
			M119.518,101.067c0.047-0.042,0.096-0.076,0.143-0.115C119.69,100.865,119.649,100.879,119.518,101.067z"/>
		<path style="fill:#ED1C24;stroke:#1B2536;stroke-width:4;stroke-linecap:round;stroke-linejoin:round;stroke-miterlimit:10;" d="
			M141.083,109.548l32.508,51.332l10.549,4.907l-22.288-49.846c0,0-2.135-18.569-20.769-14.213
			c-1.549,0.457-11.212-9.49-21.423-0.776c-0.182,0.501-3.08,4.801-9.229,4.871c-0.011-0.018-0.019-0.041-0.027-0.039
			c-0.221,0.017-0.421,0.011-0.635,0.019c-0.211-0.007-0.413-0.001-0.633-0.019c-0.009-0.002-0.019,0.021-0.028,0.039
			c-6.148-0.07-9.046-4.37-9.228-4.871c-10.212-8.714-19.875,1.232-21.424,0.776c-18.633-4.355-20.769,14.213-20.769,14.213
			l-20.333,38.116l11.528-4.908l29.574-39.601c20.769-6.393,19.967,58.121,19.967,58.121l-24.581-4.096l3.086,23.166l32.067,9.012
			c0.002,0.275,0.003,0.434,0.003,0.434l0.771-0.217l0.773,0.217c0,0,0.001-0.158,0.004-0.434l32.064-9.012l3.087-23.166
			l-24.582,4.096C121.115,167.669,120.313,103.155,141.083,109.548z"/>
	</g>
	<g>
		<path style="fill:#ED1C24;stroke:#1B2536;stroke-width:4;stroke-linecap:round;stroke-linejoin:round;stroke-miterlimit:10;" d="
			M154.617,200.557l-0.008-0.004c0,0,9.006-23.227,13.419-31.027c6.356-14.423,21.808-5.228,18.846,4.034
			c-4.065,12.708-16.322,33.106-16.322,33.106h-0.002c-0.819,1-2.104,3.097-3.606,3.957c-4.096,2.343-9.445,1.229-11.766-2.827
			C153.814,205.412,153.426,203.24,154.617,200.557z"/>
		<path style="fill:#ED1C24;stroke:#1B2536;stroke-width:4;stroke-linecap:round;stroke-linejoin:round;stroke-miterlimit:10;" d="
			M168.744,209.236c0,0,3.94,7.072,2.271,10.061c-1.67,2.985-3.095,3.961-6.261,2.146c0.035-0.027-1.055,11.342-1.538,14.711
			c-0.363,3.154-6.931,4.846-5.715-1.734c0,0,0.281-5.271,0.299-7.781c0.014-3.43-1.521-4.1-3.283-0.947
			c-0.707,1.842-2.935,6.294-3.431,8.043c-1.33,4.691-7.144,1.887-5.752-2.535c1.126-2.238,5.441-10.059,5.441-10.059
			s-2.679,2.422-4.869-0.669c-1.153-1.948-1.751-3.964-2.698-6.735c-0.887-2.549,5.141-8.885,12.386-13.047
			C155.862,200.654,168.313,201.235,168.744,209.236z"/>
		<path style="fill:#ED1C24;stroke:#1B2536;stroke-width:4;stroke-linecap:round;stroke-linejoin:round;stroke-miterlimit:10;" d="
			M170.896,215.113c-0.748-2.248-2.142-7.126-7.225-5.281c-1.746,1.502-2.128,6.799,1.083,11.611
			C165.978,223.276,173.436,222.76,170.896,215.113z"/>
		<path style="fill:#ED1C24;stroke:#1B2536;stroke-width:4;stroke-linecap:round;stroke-linejoin:round;stroke-miterlimit:10;" d="
			M148.51,224.319c1.914-0.61,6.061-1.743,4.671-6.208c-1.208-1.55-5.654-1.975-9.804,0.744
			C141.796,219.889,141.993,226.404,148.51,224.319z"/>
		<path style="fill:#ED1C24;stroke:#1B2536;stroke-width:4;stroke-linecap:round;stroke-linejoin:round;stroke-miterlimit:10;" d="
			M145.845,217.791c1.914-0.608,6.062-1.742,4.67-6.206c-1.205-1.55-5.652-1.977-9.803,0.741
			C139.131,213.363,139.328,219.877,145.845,217.791z"/>
	</g>
	<g>
		<path style="fill:#ED1C24;stroke:#1B2536;stroke-width:4;stroke-linecap:round;stroke-linejoin:round;stroke-miterlimit:10;" d="
			M66.538,194.258l0.007-0.004c0,0-11.096-22.176-16.225-29.525c-7.689-13.754-21.905-2.28-18.082,6.659
			c5.249,12.267,19.673,32.278,19.673,32.278h0.002c1.079,1,2.125,2.072,3.701,2.784c4.298,1.948,9.32-0.171,11.248-4.431
			C67.994,199.52,68.002,196.828,66.538,194.258z"/>
	</g>
	<path style="fill:#ED1C24;stroke:#1B2536;stroke-width:4;stroke-linecap:round;stroke-linejoin:round;stroke-miterlimit:10;" d="
		M101.113,333.7c2.597-7.033-3.104-19.166-4.075-23.934c-1.396-6.859,1.037-45.101,1.037-45.101h-27.06
		c0,0-3.537,38.618-6.707,49.661c-6.438,8.912-10.038,15.36-8.1,19.491c-0.565,0.791-0.907,1.688-0.917,2.736
		c-0.028,2.732,2.165,5.001,4.896,5.025c2.041,0.025,3.801-0.914,4.58-2.914h0.679c0.737,2,2.475,2.965,4.517,2.984
		c1.93,0.021,3.595-1.109,4.427-2.713c0.8,1.619,2.442,2.723,4.371,2.742c2.056,0.022,3.829-1.014,4.595-3.014h0.646
		c0.728,2,2.479,3.078,4.535,3.1c1.928,0.021,3.594-1.068,4.426-2.674c0.8,1.619,2.443,2.755,4.371,2.776
		c2.735,0.029,4.972-2.163,5-4.896C102.346,335.717,101.876,334.58,101.113,333.7z"/>
	<path style="fill:#ED1C24;stroke:#1B2536;stroke-width:4;stroke-linecap:round;stroke-linejoin:round;stroke-miterlimit:10;" d="
		M156.512,333.123c2.414-7.098-7.516-19.299-8.606-24.044c-1.571-6.818-2.315-44.632-2.315-44.632l-26.882,0.651
		c0,0,0.457,38.339-2.428,49.46c-6.204,9.073-6.703,15.646-4.659,19.726c-0.544,0.808-0.862,1.769-0.846,2.819
		c0.042,2.73,2.293,4.938,5.025,4.895c2.04-0.031,3.773-1.08,4.5-3.046l0.68-0.012c0.788,1.943,2.553,2.933,4.595,2.899
		c1.929-0.029,3.564-1.186,4.354-2.809c0.843,1.598,2.514,2.731,4.442,2.702c2.056-0.031,3.801-1.101,4.519-3.067l0.646-0.011
		c0.778,1.945,2.555,2.951,4.609,2.918c1.93-0.028,3.567-1.191,4.356-2.816c0.842,1.599,2.514,2.676,4.44,2.646
		c2.734-0.042,4.914-2.299,4.871-5.031C157.795,335.115,157.296,333.985,156.512,333.123z"/>
	<path style="fill:#ED1C24;stroke:#1B2536;stroke-width:4;stroke-linecap:round;stroke-linejoin:round;stroke-miterlimit:10;" d="
		M52.811,203.226c0,0-5.02,6.353-3.85,9.567c1.172,3.217,2.422,4.405,5.837,3.119c-0.03-0.029-0.772,11.365-0.833,14.769
		c-0.145,3.173,6.067,5.892,5.92-0.797c0,0,0.564-5.249,0.949-7.731c0.533-3.387,2.156-3.803,3.392-0.41
		c0.403,1.932,1.891,6.684,2.101,8.488c0.564,4.844,6.75,3.006,6.083-1.582c-0.753-2.391-3.763-10.8-3.763-10.8
		s2.256,2.819,4.913,0.118c1.448-1.738,2.362-3.633,3.74-6.217c1.282-2.374-3.655-9.592-10.141-14.859
		C66.898,196.813,54.515,195.396,52.811,203.226z"/>
	<path style="fill:#ED1C24;stroke:#1B2536;stroke-width:4;stroke-linecap:round;stroke-linejoin:round;stroke-miterlimit:10;" d="
		M49.748,205.75c1.098-2.098,3.254-6.692,7.976-4.059c1.483,1.763,1.015,7.053-2.925,11.289
		C53.297,214.594,46.018,212.893,49.748,205.75z"/>
	<path style="fill:#ED1C24;stroke:#1B2536;stroke-width:4;stroke-linecap:round;stroke-linejoin:round;stroke-miterlimit:10;" d="
		M70.375,221.35c-1.792-0.91-5.706-2.69-3.619-6.875c1.44-1.338,5.897-1.047,9.559,2.301
		C77.71,218.049,76.475,224.448,70.375,221.35z"/>
	<path style="fill:#ED1C24;stroke:#1B2536;stroke-width:4;stroke-linecap:round;stroke-linejoin:round;stroke-miterlimit:10;" d="
		M74.048,215.33c-1.792-0.906-5.705-2.688-3.619-6.871c1.44-1.338,5.896-1.048,9.56,2.297
		C81.383,212.033,80.147,218.432,74.048,215.33z"/>
	<path style="fill:none;stroke:#FFFFFF;stroke-linecap:round;stroke-linejoin:round;stroke-miterlimit:10;" d="M63.144,203.831
		c0,0,52.525,10.384,65.233-41.949c6.509-29.729-22.635-25.671-23.703-8.474c-1.069,17.847,15.726-10.899-7.308-12.467
		c-22.982-0.976-18.066,74.235,59.908,70.522"/>
</g>
<g id="Layer_1">
</g>
</svg>
